JetBrainsMoro-MediumItalic.ufo
<glyph name="exclam" format="2">
  <advance width="600.0"/>
  <unicode hex="0021"/>
  <outline>
    <contour>
      <point x="255.15" y="219.5" type="line"/>
      <point x="326.35" y="219.5" type="line"/>
      <point x="409.15" y="605.5" type="line"/>
      <point x="428.9" y="730.0" type="line"/>
      <point x="315.1" y="730.0" type="line"/>
      <point x="295.35" y="605.5" type="line"/>
    </contour>
    <contour>
      <point x="240.0" y="-5.0" type="curve" smooth="yes"/>
      <point x="269.85" y="-5.0" type="line" smooth="yes"/>
      <point x="306.5" y="-5.0"/>
      <point x="336.25" y="21.15"/>
      <point x="342.4" y="57.35" type="curve" smooth="yes"/>
      <point x="347.7" y="92.55"/>
      <point x="328.5" y="118.0"/>
      <point x="289.45" y="118.0" type="curve" smooth="yes"/>
      <point x="259.45" y="118.0" type="line" smooth="yes"/>
      <point x="222.95" y="118.0"/>
      <point x="193.2" y="92.55"/>
      <point x="187.9" y="56.5" type="curve" smooth="yes"/>
      <point x="181.9" y="20.45"/>
      <point x="203.5" y="-5.0"/>
    </contour>
  </outline>
</glyph>
<glyph name="quotedbl" format="2">
  <advance width="600.0"/>
  <unicode hex="0022"/>
  <outline>
    <contour>
      <point x="387.65" y="430.0" type="line"/>
      <point x="468.7" y="430.0" type="line"/>
      <point x="511.35" y="629.5" type="line"/>
      <point x="528.0" y="730.0" type="line"/>
      <point x="423.35" y="730.0" type="line"/>
      <point x="406.7" y="629.5" type="line"/>
    </contour>
    <contour>
      <point x="180.3" y="430.0" type="line"/>
      <point x="261.35" y="430.0" type="line"/>
      <point x="304.0" y="629.5" type="line"/>
      <point x="320.65" y="730.0" type="line"/>
      <point x="216.0" y="730.0" type="line"/>
      <point x="199.35" y="629.5" type="line"/>
    </contour>
  </outline>
</glyph>
<glyph name="numbersign" format="2">
  <advance width="600.0"/>
  <unicode hex="0023"/>
  <outline>
    <contour>
      <point x="36.2" y="0.0" type="line"/>
      <point x="114.0" y="0.0" type="line"/>
      <point x="181.05" y="195.5" type="line"/>
      <point x="332.4" y="195.5" type="line"/>
      <point x="265.35" y="0.0" type="line"/>
      <point x="343.15" y="0.0" type="line"/>
      <point x="410.2" y="195.5" type="line"/>
      <point x="520.25" y="195.5" type="line"/>
      <point x="531.15" y="265.75" type="line"/>
      <point x="433.85" y="265.75" type="line"/>
      <point x="501.1" y="464.25" type="line"/>
      <point x="597.1" y="464.25" type="line"/>
      <point x="608.0" y="534.5" type="line"/>
      <point x="524.75" y="534.5" type="line"/>
      <point x="591.8" y="730.0" type="line"/>
      <point x="514.0" y="730.0" type="line"/>
      <point x="446.95" y="534.5" type="line"/>
      <point x="295.6" y="534.5" type="line"/>
      <point x="362.65" y="730.0" type="line"/>
      <point x="284.85" y="730.0" type="line"/>
      <point x="217.8" y="534.5" type="line"/>
      <point x="107.75" y="534.5" type="line"/>
      <point x="96.85" y="464.25" type="line"/>
      <point x="194.15" y="464.25" type="line"/>
      <point x="126.9" y="265.75" type="line"/>
      <point x="30.9" y="265.75" type="line"/>
      <point x="20.0" y="195.5" type="line"/>
      <point x="103.25" y="195.5" type="line"/>
    </contour>
    <contour>
      <point x="204.7" y="265.75" type="line"/>
      <point x="271.95" y="464.25" type="line"/>
      <point x="423.3" y="464.25" type="line"/>
      <point x="356.05" y="265.75" type="line"/>
    </contour>
  </outline>
</glyph>
<glyph name="dollar" format="2">
  <advance width="600.0"/>
  <unicode hex="0024"/>
  <outline>
    <contour>
      <point x="207.35" y="-140.0" type="line"/>
      <point x="268.1" y="-140.0" type="line"/>
      <point x="289.1" y="-9.0" type="line"/>
      <point x="410.1" y="2.7"/>
      <point x="500.75" y="80.75"/>
      <point x="518.2" y="192.4" type="curve" smooth="yes"/>
      <point x="534.5" y="294.25"/>
      <point x="488.85" y="371.4"/>
      <point x="391.9" y="402.25" type="curve" smooth="yes"/>
      <point x="355.7" y="414.2" type="line"/>
      <point x="392.9" y="650.35" type="line"/>
      <point x="448.9" y="640.5"/>
      <point x="474.55" y="601.75"/>
      <point x="465.15" y="543.5" type="curve"/>
      <point x="564.15" y="543.5" type="line"/>
      <point x="580.45" y="653.55"/>
      <point x="519.1" y="728.0"/>
      <point x="407.1" y="739.0" type="curve"/>
      <point x="428.1" y="870.0" type="line"/>
      <point x="367.35" y="870.0" type="line"/>
      <point x="346.35" y="738.0" type="line"/>
      <point x="229.95" y="727.0"/>
      <point x="145.6" y="652.1"/>
      <point x="128.45" y="543.45" type="curve" smooth="yes"/>
      <point x="113.0" y="442.9"/>
      <point x="159.1" y="366.7"/>
      <point x="257.85" y="336.0" type="curve" smooth="yes"/>
      <point x="281.45" y="328.75" type="line"/>
      <point x="241.7" y="79.8" type="line"/>
      <point x="176.05" y="88.95"/>
      <point x="144.15" y="129.7"/>
      <point x="153.55" y="191.5" type="curve"/>
      <point x="54.55" y="191.5" type="line"/>
      <point x="38.1" y="76.05"/>
      <point x="102.3" y="1.3"/>
      <point x="228.35" y="-8.85" type="curve"/>
    </contour>
    <contour>
      <point x="302.3" y="79.5" type="curve"/>
      <point x="341.0" y="320.55" type="line"/>
      <point x="340.0" y="307.85" type="line" smooth="yes"/>
      <point x="399.35" y="293.3"/>
      <point x="428.05" y="247.5"/>
      <point x="419.05" y="189.65" type="curve" smooth="yes"/>
      <point x="409.5" y="128.8"/>
      <point x="366.45" y="89.05"/>
    </contour>
    <contour>
      <point x="291.2" y="388.7" type="line"/>
      <point x="331.4" y="425.75" type="line"/>
      <point x="254.75" y="435.35"/>
      <point x="218.6" y="483.55"/>
      <point x="229.3" y="551.15" type="curve" smooth="yes"/>
      <point x="237.85" y="605.3"/>
      <point x="275.45" y="641.35"/>
      <point x="332.15" y="650.35" type="curve"/>
    </contour>
  </outline>
</glyph>
<glyph name="percent" format="2">
  <advance width="600.0"/>
  <unicode hex="0025"/>
  <outline>
    <contour>
      <point x="-34.35" y="0.0" type="line"/>
      <point x="46.15" y="0.0" type="line"/>
      <point x="662.35" y="730.0" type="line"/>
      <point x="582.0" y="730.0" type="line"/>
    </contour>
    <contour>
      <point x="399.25" y="-5.0" type="curve" smooth="yes"/>
      <point x="483.7" y="-5.0"/>
      <point x="549.05" y="46.45"/>
      <point x="561.9" y="130.0" type="curve" smooth="yes"/>
      <point x="571.9" y="195.0" type="line" smooth="yes"/>
      <point x="584.75" y="278.55"/>
      <point x="536.7" y="330.0"/>
      <point x="452.25" y="330.0" type="curve" smooth="yes"/>
      <point x="367.8" y="330.0"/>
      <point x="303.45" y="278.55"/>
      <point x="290.6" y="195.0" type="curve" smooth="yes"/>
      <point x="280.6" y="130.0" type="line" smooth="yes"/>
      <point x="267.75" y="46.45"/>
      <point x="314.8" y="-5.0"/>
    </contour>
    <contour>
      <point x="410.7" y="66.25" type="curve" smooth="yes"/>
      <point x="368.35" y="66.25"/>
      <point x="351.5" y="86.35"/>
      <point x="358.35" y="130.0" type="curve" smooth="yes"/>
      <point x="368.35" y="195.0" type="line" smooth="yes"/>
      <point x="375.2" y="238.65"/>
      <point x="398.6" y="259.75"/>
      <point x="440.95" y="259.75" type="curve" smooth="yes"/>
      <point x="483.15" y="259.75"/>
      <point x="501.0" y="238.65"/>
      <point x="494.15" y="195.0" type="curve" smooth="yes"/>
      <point x="484.15" y="130.0" type="line" smooth="yes"/>
      <point x="477.3" y="86.35"/>
      <point x="453.05" y="66.25"/>
    </contour>
    <contour>
      <point x="174.75" y="400.0" type="curve" smooth="yes"/>
      <point x="258.75" y="400.0"/>
      <point x="324.4" y="451.0"/>
      <point x="337.4" y="535.0" type="curve" smooth="yes"/>
      <point x="347.4" y="600.0" type="line" smooth="yes"/>
      <point x="360.4" y="684.0"/>
      <point x="311.75" y="735.0"/>
      <point x="227.75" y="735.0" type="curve" smooth="yes"/>
      <point x="143.75" y="735.0"/>
      <point x="79.1" y="684.0"/>
      <point x="66.1" y="600.0" type="curve" smooth="yes"/>
      <point x="56.1" y="535.0" type="line" smooth="yes"/>
      <point x="43.1" y="451.0"/>
      <point x="90.75" y="400.0"/>
    </contour>
    <contour>
      <point x="186.05" y="470.25" type="curve" smooth="yes"/>
      <point x="144.55" y="470.25"/>
      <point x="127.0" y="491.35"/>
      <point x="133.85" y="535.0" type="curve" smooth="yes"/>
      <point x="143.85" y="600.0" type="line" smooth="yes"/>
      <point x="150.7" y="643.65"/>
      <point x="175.8" y="664.75"/>
      <point x="217.3" y="664.75" type="curve" smooth="yes"/>
      <point x="258.8" y="664.75"/>
      <point x="276.5" y="643.65"/>
      <point x="269.65" y="600.0" type="curve" smooth="yes"/>
      <point x="259.65" y="535.0" type="line" smooth="yes"/>
      <point x="252.8" y="491.35"/>
      <point x="227.55" y="470.25"/>
    </contour>
  </outline>
</glyph>
<glyph name="ampersand" format="2">
  <advance width="600.0"/>
  <unicode hex="0026"/>
  <outline>
    <contour>
      <point x="184.75" y="-10.0" type="curve" smooth="yes"/>
      <point x="249.9" y="-10.0"/>
      <point x="315.85" y="22.05"/>
      <point x="372.65" y="81.6" type="curve"/>
      <point x="418.5" y="0.0" type="line"/>
      <point x="524.1" y="0.0" type="line"/>
      <point x="433.45" y="160.1" type="line"/>
      <point x="576.8" y="360.0" type="line"/>
      <point x="475.9" y="360.0" type="line"/>
      <point x="390.0" y="238.7" type="line"/>
      <point x="261.9" y="464.9" type="line" smooth="yes"/>
      <point x="242.15" y="500.4"/>
      <point x="232.4" y="541.8"/>
      <point x="238.25" y="574.65" type="curve" smooth="yes"/>
      <point x="246.1" y="624.3"/>
      <point x="284.9" y="655.7"/>
      <point x="337.95" y="655.7" type="curve" smooth="yes"/>
      <point x="396.1" y="655.7"/>
      <point x="426.9" y="621.75"/>
      <point x="418.2" y="566.15" type="curve"/>
      <point x="514.95" y="566.15" type="line"/>
      <point x="532.1" y="672.5"/>
      <point x="468.05" y="740.0"/>
      <point x="351.0" y="740.0" type="curve" smooth="yes"/>
      <point x="241.2" y="740.0"/>
      <point x="157.85" y="675.65"/>
      <point x="142.55" y="578.6" type="curve" smooth="yes"/>
      <point x="134.4" y="529.1"/>
      <point x="146.15" y="481.3"/>
      <point x="178.3" y="424.85" type="curve" smooth="yes"/>
      <point x="187.15" y="424.3" type="line"/>
      <point x="112.85" y="405.95"/>
      <point x="63.3" y="352.55"/>
      <point x="51.55" y="277.75" type="curve" smooth="yes"/>
      <point x="33.75" y="161.0" type="line" smooth="yes"/>
      <point x="16.15" y="54.1"/>
      <point x="72.9" y="-10.0"/>
    </contour>
    <contour>
      <point x="205.0" y="76.0" type="curve" smooth="yes"/>
      <point x="149.8" y="76.0"/>
      <point x="122.25" y="106.85"/>
      <point x="131.25" y="161.0" type="curve" smooth="yes"/>
      <point x="149.05" y="277.75" type="line" smooth="yes"/>
      <point x="155.75" y="320.1"/>
      <point x="179.8" y="346.5"/>
      <point x="218.35" y="354.55" type="curve"/>
      <point x="331.25" y="154.4" type="line"/>
      <point x="295.35" y="105.45"/>
      <point x="248.2" y="76.0"/>
    </contour>
  </outline>
</glyph>
<glyph name="quotesingle" format="2">
  <advance width="600.0"/>
  <unicode hex="0027"/>
  <outline>
    <contour>
      <point x="279.3" y="430.0" type="line"/>
      <point x="360.35" y="430.0" type="line"/>
      <point x="395.35" y="578.5" type="line"/>
      <point x="419.65" y="730.0" type="line"/>
      <point x="315.0" y="730.0" type="line"/>
      <point x="290.7" y="578.5" type="line"/>
    </contour>
  </outline>
</glyph>
<glyph name="parenleft" format="2">
  <advance width="600.0"/>
  <unicode hex="0028"/>
  <outline>
    <contour>
      <point x="421.0" y="-125.0" type="curve"/>
      <point x="436.5" y="-26.55" type="line"/>
      <point x="315.05" y="3.0"/>
      <point x="253.4" y="115.1"/>
      <point x="277.5" y="264.85" type="curve" smooth="yes"/>
      <point x="307.5" y="455.0" type="line" smooth="yes"/>
      <point x="331.75" y="606.9"/>
      <point x="429.75" y="720.55"/>
      <point x="559.5" y="750.25" type="curve"/>
      <point x="575.0" y="845.0" type="line"/>
      <point x="379.4" y="797.5"/>
      <point x="239.35" y="649.25"/>
      <point x="208.5" y="455.0" type="curve" smooth="yes"/>
      <point x="178.5" y="264.85" type="line" smooth="yes"/>
      <point x="146.65" y="66.75"/>
      <point x="236.7" y="-76.5"/>
    </contour>
  </outline>
</glyph>
<glyph name="parenright" format="2">
  <advance width="600.0"/>
  <unicode hex="0029"/>
  <outline>
    <contour>
      <point x="51.0" y="-125.0" type="line"/>
      <point x="251.6" y="-76.5"/>
      <point x="385.65" y="66.75"/>
      <point x="417.5" y="264.85" type="curve" smooth="yes"/>
      <point x="447.5" y="455.0" type="line" smooth="yes"/>
      <point x="478.35" y="649.25"/>
      <point x="386.0" y="797.5"/>
      <point x="205.0" y="845.0" type="curve"/>
      <point x="189.5" y="750.25" type="line"/>
      <point x="311.25" y="720.55"/>
      <point x="372.75" y="606.9"/>
      <point x="348.5" y="455.0" type="curve" smooth="yes"/>
      <point x="318.5" y="264.85" type="line" smooth="yes"/>
      <point x="294.4" y="115.1"/>
      <point x="197.95" y="3.0"/>
      <point x="66.5" y="-26.55" type="curve"/>
    </contour>
  </outline>
</glyph>
<glyph name="asterisk" format="2">
  <advance width="600.0"/>
  <unicode hex="002A"/>
  <outline>
    <contour>
      <point x="155.1" y="92.2" type="line"/>
      <point x="217.05" y="165.25" type="line" smooth="yes"/>
      <point x="249.55" y="203.75"/>
      <point x="282.3" y="262.95"/>
      <point x="301.0" y="299.85" type="curve"/>
      <point x="307.85" y="299.85" type="line"/>
      <point x="313.7" y="262.95"/>
      <point x="326.4" y="202.9"/>
      <point x="347.15" y="165.25" type="curve" smooth="yes"/>
      <point x="387.45" y="92.2" type="line"/>
      <point x="473.15" y="145.8" type="line"/>
      <point x="433.0" y="219.0" type="line" smooth="yes"/>
      <point x="412.1" y="256.5"/>
      <point x="371.8" y="297.85"/>
      <point x="344.9" y="322.0" type="curve"/>
      <point x="349.6" y="329.4" type="line"/>
      <point x="389.5" y="331.95"/>
      <point x="450.8" y="338.35"/>
      <point x="495.6" y="353.95" type="curve" smooth="yes"/>
      <point x="583.75" y="384.0" type="line"/>
      <point x="565.4" y="472.85" type="line"/>
      <point x="477.25" y="442.8" type="line" smooth="yes"/>
      <point x="431.6" y="427.2"/>
      <point x="374.2" y="391.65"/>
      <point x="338.6" y="367.75" type="curve"/>
      <point x="334.6" y="371.6" type="line"/>
      <point x="352.35" y="409.2"/>
      <point x="379.75" y="473.2"/>
      <point x="387.05" y="521.0" type="curve" smooth="yes"/>
      <point x="401.15" y="610.0" type="line"/>
      <point x="306.85" y="610.0" type="line"/>
      <point x="292.75" y="521.0" type="line" smooth="yes"/>
      <point x="285.45" y="473.2"/>
      <point x="291.95" y="409.2"/>
      <point x="296.55" y="371.6" type="curve"/>
      <point x="290.7" y="367.6" type="line"/>
      <point x="263.25" y="391.5"/>
      <point x="216.6" y="427.2"/>
      <point x="175.25" y="442.8" type="curve" smooth="yes"/>
      <point x="97.35" y="472.85" type="line"/>
      <point x="51.35" y="384.0" type="line"/>
      <point x="129.1" y="353.95" type="line" smooth="yes"/>
      <point x="169.6" y="338.35"/>
      <point x="230.2" y="331.95"/>
      <point x="268.4" y="329.4" type="curve"/>
      <point x="270.25" y="322.85" type="line"/>
      <point x="236.2" y="298.7"/>
      <point x="181.6" y="257.35"/>
      <point x="148.4" y="218.85" type="curve" smooth="yes"/>
      <point x="86.6" y="145.8" type="line"/>
    </contour>
  </outline>
</glyph>
<glyph name="plus" format="2">
  <advance width="600.0"/>
  <unicode hex="002B"/>
  <outline>
    <contour>
      <point x="222.2" y="94.25" type="line"/>
      <point x="319.5" y="94.25" type="line"/>
      <point x="349.9" y="285.5" type="line"/>
      <point x="537.75" y="285.5" type="line"/>
      <point x="552.1" y="374.5" type="line"/>
      <point x="364.25" y="374.5" type="line"/>
      <point x="393.8" y="565.75" type="line"/>
      <point x="296.5" y="565.75" type="line"/>
      <point x="266.95" y="374.5" type="line"/>
      <point x="79.1" y="374.5" type="line"/>
      <point x="64.75" y="285.5" type="line"/>
      <point x="252.6" y="285.5" type="line"/>
    </contour>
  </outline>
</glyph>
<glyph name="comma" format="2">
  <advance width="600.0"/>
  <unicode hex="002C"/>
  <outline>
    <contour>
      <point x="90.55" y="-160.0" type="line"/>
      <point x="181.45" y="-160.0" type="line"/>
      <point x="360.45" y="151.0" type="line"/>
      <point x="219.55" y="151.0" type="line"/>
    </contour>
  </outline>
</glyph>
<glyph name="hyphen" format="2">
  <advance width="600.0"/>
  <unicode hex="002D"/>
  <outline>
    <contour>
      <point x="139.0" y="285.5" type="line"/>
      <point x="463.5" y="285.5" type="line"/>
      <point x="477.85" y="374.5" type="line"/>
      <point x="153.35" y="374.5" type="line"/>
    </contour>
  </outline>
</glyph>
<glyph name="period" format="2">
  <advance width="600.0"/>
  <unicode hex="002E"/>
  <outline>
    <contour>
      <point x="254.0" y="-10.0" type="curve" smooth="yes"/>
      <point x="306.65" y="-10.0"/>
      <point x="345.0" y="22.2"/>
      <point x="353.15" y="74.0" type="curve" smooth="yes"/>
      <point x="361.45" y="127.5"/>
      <point x="334.4" y="161.4"/>
      <point x="281.75" y="161.4" type="curve" smooth="yes"/>
      <point x="229.1" y="161.4"/>
      <point x="190.05" y="127.5"/>
      <point x="181.75" y="74.0" type="curve" smooth="yes"/>
      <point x="173.6" y="22.2"/>
      <point x="201.35" y="-10.0"/>
    </contour>
  </outline>
</glyph>
<glyph name="slash" format="2">
  <advance width="600.0"/>
  <unicode hex="002F"/>
  <outline>
    <contour>
      <point x="10.25" y="-110.0" type="line"/>
      <point x="116.55" y="-110.0" type="line"/>
      <point x="615.75" y="830.0" type="line"/>
      <point x="509.45" y="830.0" type="line"/>
    </contour>
  </outline>
</glyph>
<glyph name="zero" format="2">
  <advance width="600.0"/>
  <unicode hex="0030"/>
  <outline>
    <contour>
      <point x="254.0" y="-10.0" type="curve" smooth="yes"/>
      <point x="389.95" y="-10.0"/>
      <point x="490.15" y="75.45"/>
      <point x="511.15" y="205.75" type="curve" smooth="yes"/>
      <point x="561.85" y="524.25" type="line" smooth="yes"/>
      <point x="582.85" y="655.4"/>
      <point x="509.8" y="740.0"/>
      <point x="373.0" y="740.0" type="curve" smooth="yes"/>
      <point x="236.2" y="740.0"/>
      <point x="136.85" y="655.4"/>
      <point x="115.85" y="524.25" type="curve" smooth="yes"/>
      <point x="65.15" y="205.75" type="line" smooth="yes"/>
      <point x="44.15" y="74.6"/>
      <point x="117.2" y="-10.0"/>
    </contour>
    <contour>
      <point x="268.2" y="74.95" type="curve" smooth="yes"/>
      <point x="190.9" y="74.95"/>
      <point x="147.7" y="128.5"/>
      <point x="160.1" y="205.75" type="curve" smooth="yes"/>
      <point x="210.8" y="524.25" type="line" smooth="yes"/>
      <point x="223.2" y="601.5"/>
      <point x="282.35" y="655.05"/>
      <point x="359.8" y="655.05" type="curve" smooth="yes"/>
      <point x="437.25" y="655.05"/>
      <point x="479.3" y="601.5"/>
      <point x="466.9" y="524.25" type="curve" smooth="yes"/>
      <point x="416.2" y="205.75" type="line" smooth="yes"/>
      <point x="403.8" y="128.5"/>
      <point x="345.5" y="74.95"/>
    </contour>
    <contour>
      <point x="313.7" y="304.5" type="curve" smooth="yes"/>
      <point x="350.6" y="304.5"/>
      <point x="375.2" y="330.1"/>
      <point x="375.2" y="368.0" type="curve" smooth="yes"/>
      <point x="375.2" y="404.9"/>
      <point x="350.6" y="429.5"/>
      <point x="313.7" y="429.5" type="curve" smooth="yes"/>
      <point x="276.8" y="429.5"/>
      <point x="252.2" y="404.9"/>
      <point x="252.2" y="368.0" type="curve" smooth="yes"/>
      <point x="252.2" y="330.1"/>
      <point x="276.8" y="304.5"/>
    </contour>
  </outline>
</glyph>
<glyph name="one" format="2">
  <advance width="600.0"/>
  <unicode hex="0031"/>
  <outline>
    <contour>
      <point x="44.5" y="0.0" type="line"/>
      <point x="499.0" y="0.0" type="line"/>
      <point x="513.2" y="89.2" type="line"/>
      <point x="353.6" y="89.2" type="line"/>
      <point x="455.4" y="730.0" type="line"/>
      <point x="326.1" y="730.0" type="line"/>
      <point x="140.35" y="607.45" type="line"/>
      <point x="123.0" y="499.2" type="line"/>
      <point x="342.9" y="645.7" type="line"/>
      <point x="254.6" y="89.2" type="line"/>
      <point x="58.7" y="89.2" type="line"/>
    </contour>
  </outline>
</glyph>
<glyph name="two" format="2">
  <advance width="600.0"/>
  <unicode hex="0032"/>
  <outline>
    <contour>
      <point x="44.7" y="0.0" type="line"/>
      <point x="484.4" y="0.0" type="line"/>
      <point x="498.6" y="89.95" type="line"/>
      <point x="176.65" y="89.95" type="line"/>
      <point x="395.9" y="287.7" type="line" smooth="yes"/>
      <point x="500.55" y="382.3"/>
      <point x="545.4" y="455.0"/>
      <point x="556.85" y="526.95" type="curve" smooth="yes"/>
      <point x="577.0" y="657.7"/>
      <point x="503.65" y="740.0"/>
      <point x="367.45" y="740.0" type="curve" smooth="yes"/>
      <point x="232.75" y="740.0"/>
      <point x="131.95" y="655.65"/>
      <point x="107.25" y="522.0" type="curve"/>
      <point x="206.25" y="522.0" type="line"/>
      <point x="218.8" y="602.0"/>
      <point x="276.1" y="651.75"/>
      <point x="353.65" y="651.75" type="curve" smooth="yes"/>
      <point x="430.05" y="651.75"/>
      <point x="469.1" y="603.15"/>
      <point x="457.4" y="525.7" type="curve" smooth="yes"/>
      <point x="448.85" y="471.8"/>
      <point x="411.8" y="419.2"/>
      <point x="336.5" y="349.9" type="curve" smooth="yes"/>
      <point x="59.75" y="95.45" type="line"/>
    </contour>
  </outline>
</glyph>
<glyph name="three" format="2">
  <advance width="600.0"/>
  <unicode hex="0033"/>
  <outline>
    <contour>
      <point x="244.05" y="-10.0" type="curve" smooth="yes"/>
      <point x="383.45" y="-10.0"/>
      <point x="482.5" y="70.7"/>
      <point x="502.5" y="200.0" type="curve" smooth="yes"/>
      <point x="510.65" y="251.35" type="line" smooth="yes"/>
      <point x="530.65" y="379.65"/>
      <point x="457.45" y="461.65"/>
      <point x="321.9" y="461.65" type="curve"/>
      <point x="316.85" y="427.9" type="line"/>
      <point x="548.0" y="641.2" type="line"/>
      <point x="562.75" y="730.0" type="line"/>
      <point x="170.05" y="730.0" type="line"/>
      <point x="156.0" y="641.55" type="line"/>
      <point x="437.7" y="641.55" type="line"/>
      <point x="239.25" y="458.3" type="line"/>
      <point x="225.35" y="374.6" type="line"/>
      <point x="306.0" y="374.6" type="line" smooth="yes"/>
      <point x="384.7" y="374.6"/>
      <point x="424.05" y="329.15"/>
      <point x="411.65" y="251.2" type="curve" smooth="yes"/>
      <point x="403.5" y="200.0" type="line" smooth="yes"/>
      <point x="391.1" y="125.45"/>
      <point x="337.8" y="76.75"/>
      <point x="258.95" y="76.75" type="curve" smooth="yes"/>
      <point x="181.1" y="76.75"/>
      <point x="141.9" y="123.05"/>
      <point x="154.3" y="200.0" type="curve"/>
      <point x="55.3" y="200.0" type="line"/>
      <point x="35.15" y="73.55"/>
      <point x="109.35" y="-10.0"/>
    </contour>
  </outline>
</glyph>
<glyph name="four" format="2">
  <advance width="600.0"/>
  <unicode hex="0034"/>
  <outline>
    <contour>
      <point x="351.5" y="0.0" type="line"/>
      <point x="450.5" y="0.0" type="line"/>
      <point x="517.5" y="420.0" type="line"/>
      <point x="418.5" y="420.0" type="line"/>
      <point x="390.1" y="245.3" type="line"/>
      <point x="159.1" y="245.3" type="line"/>
      <point x="164.95" y="282.7" type="line"/>
      <point x="515.1" y="730.0" type="line"/>
      <point x="406.2" y="730.0" type="line"/>
      <point x="71.9" y="307.3" type="line"/>
      <point x="47.4" y="156.1" type="line"/>
      <point x="375.9" y="156.1" type="line"/>
    </contour>
  </outline>
</glyph>
<glyph name="five" format="2">
  <advance width="600.0"/>
  <unicode hex="0035"/>
  <outline>
    <contour>
      <point x="252.15" y="-10.0" type="curve" smooth="yes"/>
      <point x="391.25" y="-10.0"/>
      <point x="486.6" y="71.0"/>
      <point x="506.75" y="200.75" type="curve" smooth="yes"/>
      <point x="517.9" y="271.75" type="line" smooth="yes"/>
      <point x="537.9" y="403.15"/>
      <point x="480.9" y="480.7"/>
      <point x="362.75" y="479.85" type="curve" smooth="yes"/>
      <point x="279.05" y="479.85"/>
      <point x="219.65" y="441.0"/>
      <point x="209.65" y="379.15" type="curve"/>
      <point x="242.25" y="405.0" type="line"/>
      <point x="213.8" y="405.0" type="line"/>
      <point x="254.3" y="640.05" type="line"/>
      <point x="550.25" y="640.05" type="line"/>
      <point x="564.6" y="730.0" type="line"/>
      <point x="173.55" y="730.0" type="line"/>
      <point x="104.55" y="326.6" type="line"/>
      <point x="202.8" y="326.6" type="line"/>
      <point x="225.9" y="367.85"/>
      <point x="269.2" y="394.85"/>
      <point x="318.8" y="394.85" type="curve" smooth="yes"/>
      <point x="398.35" y="394.85"/>
      <point x="431.15" y="350.4"/>
      <point x="418.9" y="271.75" type="curve" smooth="yes"/>
      <point x="407.75" y="200.75" type="line" smooth="yes"/>
      <point x="395.5" y="122.1"/>
      <point x="347.45" y="77.5"/>
      <point x="267.2" y="77.5" type="curve" smooth="yes"/>
      <point x="196.05" y="77.5"/>
      <point x="159.55" y="109.45"/>
      <point x="162.0" y="164.5" type="curve"/>
      <point x="63.0" y="164.5" type="line"/>
      <point x="58.05" y="57.65"/>
      <point x="129.25" y="-10.0"/>
    </contour>
  </outline>
</glyph>
<glyph name="six" format="2">
  <advance width="600.0"/>
  <unicode hex="0036"/>
  <outline>
    <contour>
      <point x="255.85" y="-10.0" type="curve" smooth="yes"/>
      <point x="398.65" y="-10.0"/>
      <point x="508.85" y="85.0"/>
      <point x="531.7" y="226.85" type="curve" smooth="yes"/>
      <point x="552.7" y="359.7"/>
      <point x="486.3" y="448.55"/>
      <point x="367.2" y="448.55" type="curve" smooth="yes"/>
      <point x="310.2" y="448.55"/>
      <point x="261.55" y="425.25"/>
      <point x="230.65" y="388.2" type="curve"/>
      <point x="227.2" y="391.35" type="line"/>
      <point x="479.4" y="730.0" type="line"/>
      <point x="370.65" y="730.0" type="line"/>
      <point x="150.95" y="431.35" type="line" smooth="yes"/>
      <point x="96.75" y="356.7"/>
      <point x="63.45" y="289.25"/>
      <point x="53.6" y="225.85" type="curve" smooth="yes"/>
      <point x="31.3" y="85.05"/>
      <point x="112.2" y="-10.0"/>
    </contour>
    <contour>
      <point x="269.05" y="76.75" type="curve" smooth="yes"/>
      <point x="185.35" y="76.75"/>
      <point x="137.3" y="136.2"/>
      <point x="151.55" y="224.85" type="curve" smooth="yes"/>
      <point x="165.8" y="313.65"/>
      <point x="232.25" y="373.25"/>
      <point x="315.95" y="373.25" type="curve" smooth="yes"/>
      <point x="399.65" y="373.25"/>
      <point x="446.7" y="313.65"/>
      <point x="432.45" y="224.85" type="curve" smooth="yes"/>
      <point x="418.2" y="136.2"/>
      <point x="352.75" y="76.75"/>
    </contour>
  </outline>
</glyph>
<glyph name="seven" format="2">
  <advance width="600.0"/>
  <unicode hex="0037"/>
  <outline>
    <contour>
      <point x="138.45" y="0.0" type="line"/>
      <point x="249.2" y="0.0" type="line"/>
      <point x="604.8" y="638.5" type="line"/>
      <point x="620.0" y="730.0" type="line"/>
      <point x="148.25" y="730.0" type="line"/>
      <point x="115.05" y="522.5" type="line"/>
      <point x="214.05" y="522.5" type="line"/>
      <point x="232.9" y="640.05" type="line"/>
      <point x="500.9" y="640.05" type="line"/>
    </contour>
  </outline>
</glyph>
<glyph name="eight" format="2">
  <advance width="600.0"/>
  <unicode hex="0038"/>
  <outline>
    <contour>
      <point x="254.15" y="-10.0" type="curve" smooth="yes"/>
      <point x="396.8" y="-10.0"/>
      <point x="504.0" y="68.85"/>
      <point x="522.3" y="184.35" type="curve" smooth="yes"/>
      <point x="536.15" y="272.6"/>
      <point x="485.1" y="351.6"/>
      <point x="390.8" y="389.95" type="curve" smooth="yes"/>
      <point x="295.65" y="428.65" type="line" smooth="yes"/>
      <point x="242.2" y="450.2"/>
      <point x="209.7" y="495.4"/>
      <point x="218.25" y="548.45" type="curve" smooth="yes"/>
      <point x="227.95" y="610.05"/>
      <point x="285.4" y="654.25"/>
      <point x="359.1" y="654.25" type="curve" smooth="yes"/>
      <point x="432.65" y="654.25"/>
      <point x="476.55" y="610.9"/>
      <point x="466.85" y="548.45" type="curve" smooth="yes"/>
      <point x="458.15" y="496.95"/>
      <point x="410.55" y="450.75"/>
      <point x="347.85" y="427.65" type="curve" smooth="yes"/>
      <point x="240.65" y="388.25" type="line" smooth="yes"/>
      <point x="137.4" y="350.8"/>
      <point x="62.3" y="272.65"/>
      <point x="48.3" y="184.35" type="curve" smooth="yes"/>
      <point x="30.15" y="69.3"/>
      <point x="111.5" y="-10.0"/>
    </contour>
    <contour>
      <point x="268.2" y="76.6" type="curve" smooth="yes"/>
      <point x="184.4" y="76.6"/>
      <point x="135.6" y="124.95"/>
      <point x="146.15" y="196.5" type="curve" smooth="yes"/>
      <point x="154.7" y="250.95"/>
      <point x="199.55" y="300.6"/>
      <point x="264.25" y="324.7" type="curve" smooth="yes"/>
      <point x="372.15" y="365.3" type="line" smooth="yes"/>
      <point x="485.75" y="407.1"/>
      <point x="551.55" y="475.15"/>
      <point x="563.85" y="552.5" type="curve" smooth="yes"/>
      <point x="581.7" y="661.65"/>
      <point x="502.0" y="740.85"/>
      <point x="373.15" y="740.85" type="curve" smooth="yes"/>
      <point x="244.15" y="740.85"/>
      <point x="139.7" y="661.65"/>
      <point x="121.85" y="552.5" type="curve" smooth="yes"/>
      <point x="109.7" y="474.75"/>
      <point x="153.25" y="407.25"/>
      <point x="252.9" y="366.15" type="curve" smooth="yes"/>
      <point x="348.3" y="325.55" type="line" smooth="yes"/>
      <point x="406.15" y="301.45"/>
      <point x="436.15" y="252.5"/>
      <point x="426.75" y="196.35" type="curve" smooth="yes"/>
      <point x="416.2" y="124.95"/>
      <point x="352.0" y="76.6"/>
    </contour>
  </outline>
</glyph>
<glyph name="nine" format="2">
  <advance width="600.0"/>
  <unicode hex="0039"/>
  <outline>
    <contour>
      <point x="147.7" y="0.0" type="line"/>
      <point x="263.1" y="0.0" type="line"/>
      <point x="478.35" y="298.8" type="line" smooth="yes"/>
      <point x="532.25" y="373.45"/>
      <point x="565.55" y="441.05"/>
      <point x="575.55" y="504.75" type="curve" smooth="yes"/>
      <point x="597.7" y="644.65"/>
      <point x="516.2" y="740.0"/>
      <point x="373.15" y="740.0" type="curve" smooth="yes"/>
      <point x="230.95" y="740.0"/>
      <point x="120.15" y="644.4"/>
      <point x="98.0" y="502.7" type="curve" smooth="yes"/>
      <point x="77.15" y="370.15"/>
      <point x="143.7" y="280.55"/>
      <point x="262.5" y="280.55" type="curve" smooth="yes"/>
      <point x="319.5" y="280.55"/>
      <point x="363.4" y="303.85"/>
      <point x="394.3" y="340.9" type="curve"/>
      <point x="397.75" y="337.75" type="line"/>
    </contour>
    <contour>
      <point x="313.05" y="355.85" type="curve" smooth="yes"/>
      <point x="229.5" y="355.85"/>
      <point x="182.15" y="415.6"/>
      <point x="196.55" y="504.7" type="curve" smooth="yes"/>
      <point x="210.8" y="593.5"/>
      <point x="277.25" y="653.25"/>
      <point x="360.8" y="653.25" type="curve" smooth="yes"/>
      <point x="444.35" y="653.25"/>
      <point x="491.7" y="593.5"/>
      <point x="477.45" y="504.7" type="curve" smooth="yes"/>
      <point x="463.05" y="415.6"/>
      <point x="396.6" y="355.85"/>
    </contour>
  </outline>
</glyph>
<glyph name="colon" format="2">
  <advance width="600.0"/>
  <unicode hex="003A"/>
  <outline>
    <contour>
      <point x="320.25" y="405.5" type="curve" smooth="yes"/>
      <point x="371.75" y="405.5"/>
      <point x="410.95" y="436.4"/>
      <point x="418.1" y="482.75" type="curve" smooth="yes"/>
      <point x="425.4" y="529.1"/>
      <point x="396.5" y="560.0"/>
      <point x="345.0" y="560.0" type="curve" smooth="yes"/>
      <point x="293.5" y="560.0"/>
      <point x="254.3" y="529.1"/>
      <point x="247.0" y="482.75" type="curve" smooth="yes"/>
      <point x="239.85" y="436.4"/>
      <point x="268.75" y="405.5"/>
    </contour>
    <contour>
      <point x="254.0" y="-10.0" type="curve" smooth="yes"/>
      <point x="305.5" y="-10.0"/>
      <point x="344.7" y="20.9"/>
      <point x="352.0" y="67.25" type="curve" smooth="yes"/>
      <point x="359.15" y="113.6"/>
      <point x="330.25" y="144.5"/>
      <point x="278.75" y="144.5" type="curve" smooth="yes"/>
      <point x="227.25" y="144.5"/>
      <point x="188.05" y="113.6"/>
      <point x="180.9" y="67.25" type="curve" smooth="yes"/>
      <point x="173.6" y="20.9"/>
      <point x="202.5" y="-10.0"/>
    </contour>
  </outline>
</glyph>
<glyph name="semicolon" format="2">
  <advance width="600.0"/>
  <unicode hex="003B"/>
  <outline>
    <contour>
      <point x="97.25" y="-160.0" type="line"/>
      <point x="184.75" y="-160.0" type="line"/>
      <point x="363.75" y="151.0" type="line"/>
      <point x="226.25" y="151.0" type="line"/>
    </contour>
    <contour>
      <point x="310.25" y="405.5" type="curve" smooth="yes"/>
      <point x="330.25" y="405.5" type="line" smooth="yes"/>
      <point x="375.45" y="405.5"/>
      <point x="412.65" y="437.55"/>
      <point x="419.8" y="482.75" type="curve" smooth="yes"/>
      <point x="427.1" y="527.1"/>
      <point x="399.35" y="560.0"/>
      <point x="355.0" y="560.0" type="curve" smooth="yes"/>
      <point x="335.0" y="560.0" type="line" smooth="yes"/>
      <point x="290.65" y="560.0"/>
      <point x="252.6" y="527.1"/>
      <point x="245.3" y="482.75" type="curve" smooth="yes"/>
      <point x="238.15" y="437.55"/>
      <point x="265.05" y="405.5"/>
    </contour>
  </outline>
</glyph>
<glyph name="less" format="2">
  <advance width="600.0"/>
  <unicode hex="003C"/>
  <outline>
    <contour>
      <point x="482.95" y="62.6" type="line"/>
      <point x="498.85" y="153.95" type="line"/>
      <point x="217.35" y="302.15" type="line" smooth="yes"/>
      <point x="195.75" y="314.15"/>
      <point x="170.55" y="322.85"/>
      <point x="158.65" y="325.85" type="curve"/>
      <point x="170.7" y="328.85"/>
      <point x="197.05" y="337.7"/>
      <point x="224.35" y="349.7" type="curve" smooth="yes"/>
      <point x="552.5" y="497.05" type="line"/>
      <point x="567.55" y="597.1" type="line"/>
      <point x="99.2" y="383.0" type="line"/>
      <point x="82.3" y="276.55" type="line"/>
    </contour>
  </outline>
</glyph>
<glyph name="equal" format="2">
  <advance width="600.0"/>
  <unicode hex="003D"/>
  <outline>
    <contour>
      <point x="104.65" y="406.25" type="line"/>
      <point x="536.15" y="406.25" type="line"/>
      <point x="550.5" y="495.25" type="line"/>
      <point x="119.0" y="495.25" type="line"/>
    </contour>
    <contour>
      <point x="66.35" y="164.75" type="line"/>
      <point x="497.85" y="164.75" type="line"/>
      <point x="512.35" y="253.75" type="line"/>
      <point x="80.85" y="253.75" type="line"/>
    </contour>
  </outline>
</glyph>
<glyph name="greater" format="2">
  <advance width="600.0"/>
  <unicode hex="003E"/>
  <outline>
    <contour>
      <point x="48.45" y="62.6" type="line"/>
      <point x="516.8" y="276.7" type="line"/>
      <point x="533.85" y="383.15" type="line"/>
      <point x="133.05" y="597.1" type="line"/>
      <point x="118.0" y="504.05" type="line"/>
      <point x="399.65" y="355.85" type="line" smooth="yes"/>
      <point x="421.25" y="343.85"/>
      <point x="445.6" y="335.15"/>
      <point x="458.2" y="332.15" type="curve"/>
      <point x="445.45" y="329.15"/>
      <point x="418.95" y="320.3"/>
      <point x="391.65" y="308.3" type="curve" smooth="yes"/>
      <point x="63.5" y="160.95" type="line"/>
    </contour>
  </outline>
</glyph>
<glyph name="question" format="2">
  <advance width="600.0"/>
  <unicode hex="003F"/>
  <outline>
    <contour>
      <point x="195.1" y="208.0" type="line"/>
      <point x="290.35" y="208.0" type="line"/>
      <point x="306.6" y="309.25" type="line"/>
      <point x="421.55" y="314.35"/>
      <point x="512.6" y="398.35"/>
      <point x="531.75" y="515.0" type="curve" smooth="yes"/>
      <point x="551.75" y="646.0"/>
      <point x="474.7" y="730.0"/>
      <point x="332.75" y="730.0" type="curve" smooth="yes"/>
      <point x="203.25" y="730.0" type="line"/>
      <point x="187.9" y="636.75" type="line"/>
      <point x="318.9" y="636.75" type="line" smooth="yes"/>
      <point x="400.25" y="636.75"/>
      <point x="444.0" y="589.05"/>
      <point x="432.75" y="515.0" type="curve" smooth="yes"/>
      <point x="420.5" y="441.1"/>
      <point x="361.95" y="393.25"/>
      <point x="281.6" y="393.25" type="curve" smooth="yes"/>
      <point x="224.1" y="393.25" type="line"/>
    </contour>
    <contour>
      <point x="193.35" y="-5.0" type="curve" smooth="yes"/>
      <point x="223.2" y="-5.0" type="line" smooth="yes"/>
      <point x="259.85" y="-5.0"/>
      <point x="289.6" y="21.15"/>
      <point x="295.75" y="57.35" type="curve" smooth="yes"/>
      <point x="301.05" y="92.55"/>
      <point x="281.85" y="118.0"/>
      <point x="242.8" y="118.0" type="curve" smooth="yes"/>
      <point x="212.8" y="118.0" type="line" smooth="yes"/>
      <point x="176.3" y="118.0"/>
      <point x="146.55" y="92.55"/>
      <point x="141.25" y="56.5" type="curve" smooth="yes"/>
      <point x="135.25" y="20.45"/>
      <point x="156.85" y="-5.0"/>
    </contour>
  </outline>
</glyph>
<glyph name="at" format="2">
  <advance width="600.0"/>
  <unicode hex="0040"/>
  <outline>
    <contour>
      <point x="252.15" y="-179.85" type="curve" smooth="yes"/>
      <point x="322.15" y="-179.85" type="line"/>
      <point x="334.9" y="-99.6" type="line"/>
      <point x="264.9" y="-99.6" type="line" smooth="yes"/>
      <point x="142.1" y="-99.6"/>
      <point x="80.45" y="-20.3"/>
      <point x="101.15" y="110.15" type="curve" smooth="yes"/>
      <point x="155.0" y="450.0" type="line" smooth="yes"/>
      <point x="176.55" y="586.0"/>
      <point x="258.05" y="664.75"/>
      <point x="375.2" y="664.75" type="curve" smooth="yes"/>
      <point x="481.0" y="664.75"/>
      <point x="528.55" y="604.7"/>
      <point x="511.15" y="495.75" type="curve" smooth="yes"/>
      <point x="510.85" y="489.55" type="line"/>
      <point x="500.85" y="410.0" type="line"/>
      <point x="483.85" y="410.0" type="line"/>
      <point x="496.0" y="399.15" type="line"/>
      <point x="504.15" y="451.9"/>
      <point x="467.85" y="486.5"/>
      <point x="403.55" y="486.5" type="curve" smooth="yes"/>
      <point x="317.3" y="486.5"/>
      <point x="261.9" y="431.45"/>
      <point x="245.75" y="330.0" type="curve" smooth="yes"/>
      <point x="227.05" y="211.5" type="line" smooth="yes"/>
      <point x="210.9" y="110.05"/>
      <point x="249.15" y="55.0"/>
      <point x="335.4" y="55.0" type="curve" smooth="yes"/>
      <point x="399.55" y="55.0"/>
      <point x="447.15" y="89.75"/>
      <point x="455.3" y="141.65" type="curve"/>
      <point x="436.05" y="131.5" type="line"/>
      <point x="456.3" y="131.5" type="line"/>
      <point x="445.15" y="65.0" type="line"/>
      <point x="529.0" y="65.0" type="line"/>
      <point x="597.15" y="495.75" type="line" smooth="yes"/>
      <point x="620.85" y="645.65"/>
      <point x="542.1" y="740.0"/>
      <point x="388.0" y="740.0" type="curve" smooth="yes"/>
      <point x="218.2" y="740.0"/>
      <point x="98.0" y="630.0"/>
      <point x="69.0" y="450.0" type="curve" smooth="yes"/>
      <point x="15.15" y="110.15" type="line" smooth="yes"/>
      <point x="-13.0" y="-67.3"/>
      <point x="78.9" y="-179.85"/>
    </contour>
    <contour>
      <point x="375.45" y="121.3" type="curve" smooth="yes"/>
      <point x="323.7" y="121.3"/>
      <point x="302.45" y="149.25"/>
      <point x="312.3" y="211.5" type="curve" smooth="yes"/>
      <point x="331.0" y="330.0" type="line" smooth="yes"/>
      <point x="340.7" y="391.2"/>
      <point x="370.95" y="420.2"/>
      <point x="422.7" y="420.2" type="curve" smooth="yes"/>
      <point x="475.15" y="420.2"/>
      <point x="494.7" y="392.05"/>
      <point x="485.0" y="330.85" type="curve" smooth="yes"/>
      <point x="468.0" y="220.0" type="line" smooth="yes"/>
      <point x="457.15" y="152.5"/>
      <point x="428.5" y="121.3"/>
    </contour>
  </outline>
</glyph>
<glyph name="A" format="2">
  <advance width="600.0"/>
  <unicode hex="0041"/>
  <anchor x="256.0" y="0.0" name="bottom"/>
  <anchor x="451.25" y="0.0" name="ogonek"/>
  <anchor x="372.0" y="730.0" name="top"/>
  <outline>
    <contour>
      <point x="2.25" y="0.0" type="line"/>
      <point x="106.55" y="0.0" type="line"/>
      <point x="182.85" y="189.65" type="line"/>
      <point x="396.8" y="189.65" type="line"/>
      <point x="412.6" y="0.0" type="line"/>
      <point x="509.75" y="0.0" type="line"/>
      <point x="437.95" y="730.0" type="line"/>
      <point x="306.6" y="730.0" type="line"/>
    </contour>
    <contour>
      <point x="214.95" y="272.25" type="line"/>
      <point x="302.9" y="490.9" type="line" smooth="yes"/>
      <point x="334.5" y="569.8"/>
      <point x="354.9" y="629.05"/>
      <point x="361.35" y="648.55" type="curve"/>
      <point x="361.5" y="629.05"/>
      <point x="363.8" y="569.8"/>
      <point x="370.9" y="489.9" type="curve" smooth="yes"/>
      <point x="389.8" y="272.25" type="line"/>
    </contour>
  </outline>
</glyph>
<glyph name="B" format="2">
  <advance width="600.0"/>
  <unicode hex="0042"/>
  <anchor x="256.0" y="0.0" name="bottom"/>
  <anchor x="372.0" y="730.0" name="top"/>
  <outline>
    <contour>
      <point x="44.95" y="0.0" type="line"/>
      <point x="270.25" y="0.0" type="line" smooth="yes"/>
      <point x="406.25" y="0.0"/>
      <point x="502.65" y="78.75"/>
      <point x="522.65" y="204.2" type="curve" smooth="yes"/>
      <point x="541.5" y="320.45"/>
      <point x="476.85" y="392.9"/>
      <point x="363.7" y="391.05" type="curve"/>
      <point x="362.15" y="378.75" type="line"/>
      <point x="466.3" y="377.05"/>
      <point x="543.8" y="440.9"/>
      <point x="559.65" y="541.3" type="curve" smooth="yes"/>
      <point x="577.65" y="658.7"/>
      <point x="507.4" y="730.0"/>
      <point x="372.15" y="730.0" type="curve" smooth="yes"/>
      <point x="160.95" y="730.0" type="line"/>
    </contour>
    <contour>
      <point x="155.4" y="87.0" type="line"/>
      <point x="194.9" y="337.55" type="line"/>
      <point x="314.25" y="337.55" type="line" smooth="yes"/>
      <point x="395.4" y="337.55"/>
      <point x="437.05" y="285.1"/>
      <point x="425.5" y="207.95" type="curve" smooth="yes"/>
      <point x="412.95" y="133.35"/>
      <point x="355.9" y="87.0"/>
      <point x="274.75" y="87.0" type="curve" smooth="yes"/>
    </contour>
    <contour>
      <point x="207.95" y="421.55" type="line"/>
      <point x="243.45" y="643.0" type="line"/>
      <point x="357.8" y="643.0" type="line" smooth="yes"/>
      <point x="431.95" y="643.0"/>
      <point x="470.6" y="600.8"/>
      <point x="460.05" y="532.35" type="curve" smooth="yes"/>
      <point x="448.5" y="463.9"/>
      <point x="395.6" y="421.55"/>
      <point x="321.45" y="421.55" type="curve" smooth="yes"/>
    </contour>
  </outline>
</glyph>
<glyph name="D" format="2">
  <advance width="600.0"/>
  <unicode hex="0044"/>
  <anchor x="256.0" y="0.0" name="bottom"/>
  <anchor x="314.0" y="365.0" name="center"/>
  <anchor x="372.0" y="730.0" name="top"/>
  <outline>
    <contour>
      <point x="43.65" y="0.0" type="line"/>
      <point x="239.85" y="0.0" type="line" smooth="yes"/>
      <point x="382.35" y="0.0"/>
      <point x="488.15" y="87.2"/>
      <point x="509.3" y="222.25" type="curve" smooth="yes"/>
      <point x="554.7" y="508.75" type="line" smooth="yes"/>
      <point x="575.85" y="642.95"/>
      <point x="498.35" y="730.0"/>
      <point x="355.85" y="730.0" type="curve" smooth="yes"/>
      <point x="159.65" y="730.0" type="line"/>
    </contour>
    <contour>
      <point x="157.0" y="89.0" type="line"/>
      <point x="244.15" y="641.0" type="line"/>
      <point x="341.35" y="641.0" type="line" smooth="yes"/>
      <point x="425.3" y="641.0"/>
      <point x="468.8" y="591.1"/>
      <point x="455.7" y="508.75" type="curve" smooth="yes"/>
      <point x="410.3" y="222.25" type="line" smooth="yes"/>
      <point x="397.05" y="138.9"/>
      <point x="338.15" y="89.0"/>
      <point x="254.2" y="89.0" type="curve" smooth="yes"/>
    </contour>
  </outline>
</glyph>
<glyph name="E" format="2">
  <advance width="600.0"/>
  <unicode hex="0045"/>
  <anchor x="320.0" y="0.0" name="bottom"/>
  <anchor x="388.5" y="0.0" name="ogonek"/>
  <anchor x="392.0" y="730.0" name="top"/>
  <anchor x="92.0" y="730.0" name="topleft"/>
  <outline>
    <contour>
      <point x="53.0" y="0.0" type="line"/>
      <point x="477.5" y="0.0" type="line"/>
      <point x="491.55" y="88.9" type="line"/>
      <point x="164.75" y="88.9" type="line"/>
      <point x="203.95" y="336.35" type="line"/>
      <point x="495.75" y="336.35" type="line"/>
      <point x="509.8" y="424.4" type="line"/>
      <point x="218.0" y="424.4" type="line"/>
      <point x="252.5" y="641.1" type="line"/>
      <point x="579.3" y="641.1" type="line"/>
      <point x="593.5" y="730.0" type="line"/>
      <point x="169.0" y="730.0" type="line"/>
    </contour>
  </outline>
</glyph>
<glyph name="F" format="2">
  <advance width="600.0"/>
  <unicode hex="0046"/>
  <anchor x="256.0" y="0.0" name="bottom"/>
  <anchor x="372.0" y="730.0" name="top"/>
  <outline>
    <contour>
      <point x="47.25" y="0.0" type="line"/>
      <point x="146.25" y="0.0" type="line"/>
      <point x="196.5" y="318.6" type="line"/>
      <point x="507.5" y="318.6" type="line"/>
      <point x="521.85" y="409.3" type="line"/>
      <point x="208.85" y="409.3" type="line"/>
      <point x="245.75" y="639.3" type="line"/>
      <point x="584.75" y="639.3" type="line"/>
      <point x="599.25" y="730.0" type="line"/>
      <point x="163.25" y="730.0" type="line"/>
    </contour>
  </outline>
</glyph>
<glyph name="G" format="2">
  <advance width="600.0"/>
  <unicode hex="0047"/>
  <anchor x="260.0" y="0.0" name="bottom"/>
  <anchor x="372.0" y="730.0" name="top"/>
  <outline>
    <contour>
      <point x="258.0" y="-10.0" type="curve" smooth="yes"/>
      <point x="391.4" y="-10.0"/>
      <point x="490.5" y="71.9"/>
      <point x="510.65" y="201.5" type="curve" smooth="yes"/>
      <point x="538.1" y="376.2" type="line"/>
      <point x="297.1" y="376.2" type="line"/>
      <point x="283.05" y="287.45" type="line"/>
      <point x="425.05" y="287.45" type="line"/>
      <point x="411.65" y="201.5" type="line" smooth="yes"/>
      <point x="399.25" y="122.25"/>
      <point x="347.5" y="77.5"/>
      <point x="272.2" y="77.5" type="curve" smooth="yes"/>
      <point x="196.05" y="77.5"/>
      <point x="158.55" y="122.25"/>
      <point x="170.95" y="201.5" type="curve" smooth="yes"/>
      <point x="222.5" y="529.35" type="line" smooth="yes"/>
      <point x="235.05" y="607.75"/>
      <point x="286.8" y="651.65"/>
      <point x="362.95" y="651.65" type="curve" smooth="yes"/>
      <point x="438.25" y="651.65"/>
      <point x="475.75" y="607.75"/>
      <point x="463.2" y="528.5" type="curve"/>
      <point x="562.2" y="528.5" type="line"/>
      <point x="582.35" y="658.1"/>
      <point x="510.4" y="740.0"/>
      <point x="377.0" y="740.0" type="curve" smooth="yes"/>
      <point x="241.9" y="740.0"/>
      <point x="144.5" y="659.8"/>
      <point x="123.5" y="528.5" type="curve" smooth="yes"/>
      <point x="71.95" y="201.5" type="line" smooth="yes"/>
      <point x="50.95" y="70.35"/>
      <point x="122.9" y="-10.0"/>
    </contour>
  </outline>
</glyph>
<glyph name="H" format="2">
  <advance width="600.0"/>
  <unicode hex="0048"/>
  <anchor x="256.0" y="0.0" name="bottom"/>
  <anchor x="314.0" y="365.0" name="center"/>
  <anchor x="372.0" y="730.0" name="top"/>
  <anchor x="92.0" y="730.0" name="topleft"/>
  <outline>
    <contour>
      <point x="44.95" y="0.0" type="line"/>
      <point x="143.95" y="0.0" type="line"/>
      <point x="196.35" y="332.1" type="line"/>
      <point x="420.45" y="332.1" type="line"/>
      <point x="368.05" y="0.0" type="line"/>
      <point x="467.05" y="0.0" type="line"/>
      <point x="583.05" y="730.0" type="line"/>
      <point x="484.05" y="730.0" type="line"/>
      <point x="434.8" y="422.8" type="line"/>
      <point x="210.7" y="422.8" type="line"/>
      <point x="259.95" y="730.0" type="line"/>
      <point x="160.95" y="730.0" type="line"/>
    </contour>
  </outline>
</glyph>
<glyph name="I" format="2">
  <advance width="600.0"/>
  <unicode hex="0049"/>
  <anchor x="256.0" y="0.0" name="bottom"/>
  <anchor x="280.0" y="0.0" name="ogonek"/>
  <anchor x="372.0" y="730.0" name="top"/>
  <anchor x="92.0" y="730.0" name="topleft"/>
  <outline>
    <contour>
      <point x="57.25" y="0.0" type="line"/>
      <point x="454.75" y="0.0" type="line"/>
      <point x="468.95" y="89.2" type="line"/>
      <point x="320.55" y="89.2" type="line"/>
      <point x="408.15" y="640.8" type="line"/>
      <point x="556.55" y="640.8" type="line"/>
      <point x="570.75" y="730.0" type="line"/>
      <point x="173.25" y="730.0" type="line"/>
      <point x="159.05" y="640.8" type="line"/>
      <point x="307.45" y="640.8" type="line"/>
      <point x="219.85" y="89.2" type="line"/>
      <point x="71.45" y="89.2" type="line"/>
    </contour>
  </outline>
</glyph>
<glyph name="J" format="2">
  <advance width="600.0"/>
  <unicode hex="004A"/>
  <anchor x="256.0" y="0.0" name="bottom"/>
  <anchor x="442.8" y="730.0" name="top"/>
  <outline>
    <contour>
      <point x="224.0" y="-10.0" type="curve" smooth="yes"/>
      <point x="370.25" y="-10.0"/>
      <point x="465.75" y="70.45"/>
      <point x="488.05" y="211.35" type="curve" smooth="yes"/>
      <point x="570.75" y="730.0" type="line"/>
      <point x="266.75" y="730.0" type="line"/>
      <point x="252.4" y="640.05" type="line"/>
      <point x="457.4" y="640.05" type="line"/>
      <point x="389.05" y="211.35" type="line" smooth="yes"/>
      <point x="375.65" y="126.55"/>
      <point x="319.6" y="77.5"/>
      <point x="238.2" y="77.5" type="curve" smooth="yes"/>
      <point x="156.65" y="77.5"/>
      <point x="116.15" y="126.7"/>
      <point x="129.55" y="211.65" type="curve"/>
      <point x="30.55" y="211.65" type="line"/>
      <point x="9.4" y="74.75"/>
      <point x="81.9" y="-10.0"/>
    </contour>
  </outline>
</glyph>
<glyph name="K" format="2">
  <advance width="600.0"/>
  <unicode hex="004B"/>
  <anchor x="256.0" y="0.0" name="bottom"/>
  <anchor x="372.0" y="730.0" name="top"/>
  <outline>
    <contour>
      <point x="43.95" y="0.0" type="line"/>
      <point x="142.95" y="0.0" type="line"/>
      <point x="196.2" y="333.65" type="line"/>
      <point x="299.4" y="333.65" type="line"/>
      <point x="409.4" y="0.0" type="line"/>
      <point x="518.25" y="0.0" type="line"/>
      <point x="391.6" y="375.4" type="line"/>
      <point x="624.85" y="730.0" type="line"/>
      <point x="515.4" y="730.0" type="line"/>
      <point x="310.0" y="421.5" type="line"/>
      <point x="209.7" y="421.5" type="line"/>
      <point x="258.95" y="730.0" type="line"/>
      <point x="159.95" y="730.0" type="line"/>
    </contour>
  </outline>
</glyph>
<glyph name="L" format="2">
  <advance width="600.0"/>
  <unicode hex="004C"/>
  <anchor x="296.0" y="0.0" name="bottom"/>
  <anchor x="314.0" y="365.0" name="center"/>
  <anchor x="254.35" y="730.0" name="top"/>
  <anchor x="652.0" y="730.0" name="topright"/>
  <outline>
    <contour>
      <point x="88.0" y="0.0" type="line"/>
      <point x="511.75" y="0.0" type="line"/>
      <point x="526.1" y="90.7" type="line"/>
      <point x="201.35" y="90.7" type="line"/>
      <point x="303.0" y="730.0" type="line"/>
      <point x="204.0" y="730.0" type="line"/>
    </contour>
  </outline>
</glyph>
<glyph name="M" format="2">
  <advance width="600.0"/>
  <unicode hex="004D"/>
  <anchor x="256.0" y="0.0" name="bottom"/>
  <anchor x="372.0" y="730.0" name="top"/>
  <outline>
    <contour>
      <point x="26.9" y="0.0" type="line"/>
      <point x="122.25" y="0.0" type="line"/>
      <point x="162.75" y="255.25" type="line" smooth="yes"/>
      <point x="184.2" y="389.55"/>
      <point x="196.35" y="575.85"/>
      <point x="200.05" y="678.25" type="curve"/>
      <point x="258.15" y="318.5" type="line"/>
      <point x="357.95" y="318.5" type="line"/>
      <point x="527.1" y="678.25" type="line"/>
      <point x="498.25" y="571.85"/>
      <point x="450.7" y="382.55"/>
      <point x="430.25" y="255.25" type="curve" smooth="yes"/>
      <point x="389.75" y="0.0" type="line"/>
      <point x="485.1" y="0.0" type="line"/>
      <point x="601.1" y="730.0" type="line"/>
      <point x="473.3" y="730.0" type="line"/>
      <point x="364.35" y="495.75" type="line" smooth="yes"/>
      <point x="344.2" y="451.15"/>
      <point x="326.1" y="406.35"/>
      <point x="317.85" y="384.55" type="curve"/>
      <point x="315.45" y="406.35"/>
      <point x="310.2" y="451.15"/>
      <point x="303.2" y="494.9" type="curve" smooth="yes"/>
      <point x="266.4" y="730.0" type="line"/>
      <point x="142.9" y="730.0" type="line"/>
    </contour>
  </outline>
</glyph>
<glyph name="N" format="2">
  <advance width="600.0"/>
  <unicode hex="004E"/>
  <anchor x="256.0" y="0.0" name="bottom"/>
  <anchor x="372.0" y="730.0" name="top"/>
  <outline>
    <contour>
      <point x="41.5" y="0.0" type="line"/>
      <point x="135.25" y="0.0" type="line"/>
      <point x="198.15" y="396.5" type="line" smooth="yes"/>
      <point x="210.0" y="468.9"/>
      <point x="219.0" y="564.75"/>
      <point x="223.0" y="616.0" type="curve"/>
      <point x="343.4" y="0.0" type="line"/>
      <point x="470.5" y="0.0" type="line"/>
      <point x="586.5" y="730.0" type="line"/>
      <point x="492.75" y="730.0" type="line"/>
      <point x="430.3" y="336.5" type="line" smooth="yes"/>
      <point x="418.45" y="264.1"/>
      <point x="409.3" y="166.6"/>
      <point x="406.0" y="114.0" type="curve"/>
      <point x="284.6" y="730.0" type="line"/>
      <point x="157.5" y="730.0" type="line"/>
    </contour>
  </outline>
</glyph>
<glyph name="O" format="2">
  <advance width="600.0"/>
  <unicode hex="004F"/>
  <anchor x="256.0" y="0.0" name="bottom"/>
  <anchor x="314.0" y="365.0" name="center"/>
  <anchor x="387.0" y="700.0" name="horn"/>
  <anchor x="305.0" y="0.0" name="ogonek"/>
  <anchor x="372.0" y="730.0" name="top"/>
  <anchor x="92.0" y="730.0" name="topleft"/>
  <anchor x="652.0" y="730.0" name="topright"/>
  <outline>
    <contour>
      <point x="254.0" y="-10.0" type="curve" smooth="yes"/>
      <point x="387.4" y="-10.0"/>
      <point x="483.35" y="70.35"/>
      <point x="504.35" y="201.5" type="curve" smooth="yes"/>
      <point x="555.9" y="529.35" type="line" smooth="yes"/>
      <point x="576.05" y="659.65"/>
      <point x="506.4" y="740.0"/>
      <point x="373.0" y="740.0" type="curve" smooth="yes"/>
      <point x="239.6" y="740.0"/>
      <point x="144.5" y="659.65"/>
      <point x="123.5" y="528.5" type="curve" smooth="yes"/>
      <point x="71.95" y="201.5" type="line" smooth="yes"/>
      <point x="50.95" y="70.35"/>
      <point x="120.6" y="-10.0"/>
    </contour>
    <contour>
      <point x="268.2" y="78.35" type="curve" smooth="yes"/>
      <point x="192.9" y="78.35"/>
      <point x="158.55" y="122.25"/>
      <point x="170.95" y="201.5" type="curve" smooth="yes"/>
      <point x="222.5" y="528.5" type="line" smooth="yes"/>
      <point x="234.9" y="607.75"/>
      <point x="283.5" y="651.65"/>
      <point x="358.95" y="651.65" type="curve" smooth="yes"/>
      <point x="434.4" y="651.65"/>
      <point x="469.3" y="607.75"/>
      <point x="456.9" y="528.5" type="curve" smooth="yes"/>
      <point x="405.35" y="201.5" type="line" smooth="yes"/>
      <point x="392.95" y="122.25"/>
      <point x="343.5" y="78.35"/>
    </contour>
  </outline>
</glyph>
<glyph name="P" format="2">
  <advance width="600.0"/>
  <unicode hex="0050"/>
  <anchor x="256.0" y="0.0" name="bottom"/>
  <anchor x="372.0" y="730.0" name="top"/>
  <outline>
    <contour>
      <point x="44.1" y="0.0" type="line"/>
      <point x="143.1" y="0.0" type="line"/>
      <point x="190.2" y="294.9" type="line"/>
      <point x="328.3" y="294.9" type="line" smooth="yes"/>
      <point x="466.85" y="294.9"/>
      <point x="569.4" y="380.25"/>
      <point x="590.55" y="512.45" type="curve" smooth="yes"/>
      <point x="610.85" y="644.8"/>
      <point x="535.9" y="730.0"/>
      <point x="397.2" y="730.0" type="curve" smooth="yes"/>
      <point x="160.1" y="730.0" type="line"/>
    </contour>
    <contour>
      <point x="203.7" y="384.0" type="line"/>
      <point x="244.75" y="640.9" type="line"/>
      <point x="382.85" y="640.9" type="line" smooth="yes"/>
      <point x="459.6" y="640.9"/>
      <point x="501.4" y="591.0"/>
      <point x="489.0" y="512.45" type="curve" smooth="yes"/>
      <point x="476.6" y="433.9"/>
      <point x="418.55" y="384.0"/>
      <point x="341.8" y="384.0" type="curve" smooth="yes"/>
    </contour>
  </outline>
</glyph>
<glyph name="Q" format="2">
  <advance width="600.0"/>
  <unicode hex="0051"/>
  <anchor x="256.0" y="0.0" name="bottom"/>
  <anchor x="372.0" y="730.0" name="top"/>
  <outline>
    <contour>
      <point x="349.0" y="-180.0" type="line"/>
      <point x="454.35" y="-180.0" type="line"/>
      <point x="350.1" y="54.05" type="line"/>
      <point x="342.45" y="3.85" type="line"/>
      <point x="432.55" y="30.7"/>
      <point x="495.15" y="105.15"/>
      <point x="511.15" y="205.75" type="curve" smooth="yes"/>
      <point x="561.85" y="524.25" type="line" smooth="yes"/>
      <point x="582.85" y="655.4"/>
      <point x="509.35" y="740.0"/>
      <point x="373.0" y="740.0" type="curve" smooth="yes"/>
      <point x="236.5" y="740.0"/>
      <point x="136.85" y="655.55"/>
      <point x="115.85" y="524.25" type="curve" smooth="yes"/>
      <point x="65.15" y="205.75" type="line" smooth="yes"/>
      <point x="44.15" y="74.75"/>
      <point x="117.65" y="-10.0"/>
      <point x="254.0" y="-10.0" type="curve" smooth="yes"/>
      <point x="263.4" y="-10.0"/>
      <point x="274.1" y="-9.0"/>
      <point x="284.2" y="-7.3" type="curve"/>
      <point x="270.4" y="-1.95" type="line"/>
    </contour>
    <contour>
      <point x="268.2" y="77.65" type="curve" smooth="yes"/>
      <point x="191.75" y="77.65"/>
      <point x="151.75" y="127.5"/>
      <point x="164.15" y="205.75" type="curve" smooth="yes"/>
      <point x="214.85" y="524.25" type="line" smooth="yes"/>
      <point x="227.25" y="602.65"/>
      <point x="283.95" y="652.5"/>
      <point x="359.8" y="652.5" type="curve" smooth="yes"/>
      <point x="435.65" y="652.5"/>
      <point x="475.25" y="602.65"/>
      <point x="462.85" y="524.25" type="curve" smooth="yes"/>
      <point x="412.15" y="205.75" type="line" smooth="yes"/>
      <point x="399.75" y="127.5"/>
      <point x="344.65" y="77.65"/>
    </contour>
  </outline>
</glyph>
<glyph name="R" format="2">
  <advance width="600.0"/>
  <unicode hex="0052"/>
  <anchor x="256.0" y="0.0" name="bottom"/>
  <anchor x="372.0" y="730.0" name="top"/>
  <outline>
    <contour>
      <point x="43.95" y="0.0" type="line"/>
      <point x="142.8" y="0.0" type="line"/>
      <point x="191.05" y="304.9" type="line"/>
      <point x="301.0" y="304.9" type="line"/>
      <point x="394.05" y="0.0" type="line"/>
      <point x="504.0" y="0.0" type="line"/>
      <point x="386.15" y="359.3" type="line"/>
      <point x="373.95" y="309.95" type="line"/>
      <point x="479.8" y="328.95"/>
      <point x="559.55" y="408.75"/>
      <point x="575.7" y="518.2" type="curve" smooth="yes"/>
      <point x="596.0" y="644.85"/>
      <point x="521.05" y="730.0"/>
      <point x="387.3" y="730.0" type="curve" smooth="yes"/>
      <point x="159.95" y="730.0" type="line"/>
    </contour>
    <contour>
      <point x="205.1" y="393.25" type="line"/>
      <point x="244.6" y="641.65" type="line"/>
      <point x="373.1" y="641.65" type="line" smooth="yes"/>
      <point x="445.9" y="641.65"/>
      <point x="486.55" y="592.75"/>
      <point x="474.0" y="517.15" type="curve" smooth="yes"/>
      <point x="462.45" y="441.85"/>
      <point x="407.25" y="393.25"/>
      <point x="333.6" y="393.25" type="curve" smooth="yes"/>
    </contour>
  </outline>
</glyph>
<glyph name="S" format="2">
  <advance width="600.0"/>
  <unicode hex="0053"/>
  <anchor x="256.0" y="0.0" name="bottom"/>
  <anchor x="372.0" y="730.0" name="top"/>
  <outline>
    <contour>
      <point x="257.4" y="-10.0" type="curve" smooth="yes"/>
      <point x="394.55" y="-10.0"/>
      <point x="498.75" y="70.6"/>
      <point x="518.2" y="192.4" type="curve" smooth="yes"/>
      <point x="533.5" y="291.8"/>
      <point x="486.4" y="368.25"/>
      <point x="389.75" y="399.1" type="curve" smooth="yes"/>
      <point x="297.75" y="429.0" type="line" smooth="yes"/>
      <point x="244.55" y="445.8"/>
      <point x="219.6" y="491.55"/>
      <point x="229.3" y="551.15" type="curve" smooth="yes"/>
      <point x="238.85" y="614.45"/>
      <point x="288.45" y="652.5"/>
      <point x="363.45" y="652.5" type="curve" smooth="yes"/>
      <point x="439.75" y="652.5"/>
      <point x="476.4" y="611.6"/>
      <point x="465.15" y="543.5" type="curve"/>
      <point x="564.15" y="543.5" type="line"/>
      <point x="581.6" y="662.55"/>
      <point x="508.95" y="740.85"/>
      <point x="377.8" y="740.85" type="curve" smooth="yes"/>
      <point x="245.1" y="740.85"/>
      <point x="147.6" y="662.1"/>
      <point x="128.45" y="543.45" type="curve" smooth="yes"/>
      <point x="114.0" y="445.2"/>
      <point x="162.95" y="369.0"/>
      <point x="260.0" y="339.15" type="curve" smooth="yes"/>
      <point x="350.55" y="310.25" type="line" smooth="yes"/>
      <point x="402.35" y="294.15"/>
      <point x="427.6" y="249.1"/>
      <point x="419.05" y="189.65" type="curve" smooth="yes"/>
      <point x="407.65" y="120.1"/>
      <point x="352.9" y="78.35"/>
      <point x="272.05" y="78.35" type="curve" smooth="yes"/>
      <point x="185.8" y="78.35"/>
      <point x="142.15" y="121.25"/>
      <point x="153.55" y="191.5" type="curve"/>
      <point x="54.55" y="191.5" type="line"/>
      <point x="36.1" y="66.9"/>
      <point x="112.75" y="-10.0"/>
    </contour>
  </outline>
</glyph>
<glyph name="T" format="2">
  <advance width="600.0"/>
  <unicode hex="0054"/>
  <anchor x="256.0" y="0.0" name="bottom"/>
  <anchor x="314.0" y="365.0" name="center"/>
  <anchor x="372.0" y="730.0" name="top"/>
  <outline>
    <contour>
      <point x="206.5" y="0.0" type="line"/>
      <point x="305.5" y="0.0" type="line"/>
      <point x="407.0" y="639.3" type="line"/>
      <point x="604.75" y="639.3" type="line"/>
      <point x="619.25" y="730.0" type="line"/>
      <point x="124.75" y="730.0" type="line"/>
      <point x="110.25" y="639.3" type="line"/>
      <point x="308.0" y="639.3" type="line"/>
    </contour>
  </outline>
</glyph>
<glyph name="U" format="2">
  <advance width="600.0"/>
  <unicode hex="0055"/>
  <anchor x="256.0" y="0.0" name="bottom"/>
  <anchor x="457.0" y="730.0" name="horn"/>
  <anchor x="305.0" y="0.0" name="ogonek"/>
  <anchor x="372.0" y="730.0" name="top"/>
  <anchor x="652.0" y="730.0" name="topright"/>
  <outline>
    <contour>
      <point x="254.0" y="-10.0" type="curve" smooth="yes"/>
      <point x="392.65" y="-10.0"/>
      <point x="481.65" y="70.05"/>
      <point x="502.8" y="202.1" type="curve" smooth="yes"/>
      <point x="586.5" y="730.0" type="line"/>
      <point x="487.5" y="730.0" type="line"/>
      <point x="403.8" y="202.25" type="line" smooth="yes"/>
      <point x="391.25" y="125.1"/>
      <point x="344.6" y="77.5"/>
      <point x="268.2" y="77.5" type="curve" smooth="yes"/>
      <point x="190.8" y="77.5"/>
      <point x="160.25" y="125.1"/>
      <point x="172.8" y="202.25" type="curve" smooth="yes"/>
      <point x="256.5" y="730.0" type="line"/>
      <point x="157.5" y="730.0" type="line"/>
      <point x="73.8" y="202.1" type="line" smooth="yes"/>
      <point x="52.65" y="70.75"/>
      <point x="116.2" y="-10.0"/>
    </contour>
  </outline>
</glyph>
<glyph name="V" format="2">
  <advance width="600.0"/>
  <unicode hex="0056"/>
  <anchor x="256.0" y="0.0" name="bottom"/>
  <anchor x="372.0" y="730.0" name="top"/>
  <outline>
    <contour>
      <point x="189.2" y="0.0" type="line"/>
      <point x="322.25" y="0.0" type="line"/>
      <point x="625.75" y="730.0" type="line"/>
      <point x="523.6" y="730.0" type="line"/>
      <point x="326.25" y="239.4" type="line" smooth="yes"/>
      <point x="300.65" y="175.8"/>
      <point x="279.25" y="111.7"/>
      <point x="270.1" y="81.1" type="curve"/>
      <point x="269.95" y="111.7"/>
      <point x="266.25" y="175.8"/>
      <point x="260.85" y="239.25" type="curve" smooth="yes"/>
      <point x="218.4" y="730.0" type="line"/>
      <point x="118.25" y="730.0" type="line"/>
    </contour>
  </outline>
</glyph>
<glyph name="W" format="2">
  <advance width="600.0"/>
  <unicode hex="0057"/>
  <anchor x="256.0" y="0.0" name="bottom"/>
  <anchor x="372.0" y="730.0" name="top"/>
  <outline>
    <contour>
      <point x="60.35" y="0.0" type="line"/>
      <point x="179.95" y="0.0" type="line"/>
      <point x="330.35" y="540.25" type="line" smooth="yes"/>
      <point x="342.75" y="583.6"/>
      <point x="355.35" y="635.65"/>
      <point x="362.8" y="662.95" type="curve"/>
      <point x="360.5" y="635.65"/>
      <point x="357.05" y="583.6"/>
      <point x="355.05" y="540.25" type="curve" smooth="yes"/>
      <point x="329.75" y="0.0" type="line"/>
      <point x="449.2" y="0.0" type="line"/>
      <point x="649.25" y="730.0" type="line"/>
      <point x="560.95" y="730.0" type="line"/>
      <point x="422.6" y="197.8" type="line" smooth="yes"/>
      <point x="411.35" y="156.05"/>
      <point x="399.2" y="100.65"/>
      <point x="392.05" y="70.25" type="curve"/>
      <point x="394.05" y="100.65"/>
      <point x="396.05" y="156.05"/>
      <point x="398.05" y="197.8" type="curve" smooth="yes"/>
      <point x="422.35" y="730.0" type="line"/>
      <point x="324.05" y="730.0" type="line"/>
      <point x="173.35" y="197.8" type="line" smooth="yes"/>
      <point x="161.1" y="156.05"/>
      <point x="148.35" y="100.65"/>
      <point x="139.9" y="70.25" type="curve"/>
      <point x="144.2" y="100.65"/>
      <point x="148.8" y="156.05"/>
      <point x="151.65" y="197.8" type="curve" smooth="yes"/>
      <point x="184.15" y="730.0" type="line"/>
      <point x="94.75" y="730.0" type="line"/>
    </contour>
  </outline>
</glyph>
<glyph name="X" format="2">
  <advance width="600.0"/>
  <unicode hex="0058"/>
  <anchor x="256.0" y="0.0" name="bottom"/>
  <anchor x="372.0" y="730.0" name="top"/>
  <outline>
    <contour>
      <point x="-7.0" y="0.0" type="line"/>
      <point x="106.3" y="0.0" type="line"/>
      <point x="261.55" y="225.05" type="line" smooth="yes"/>
      <point x="277.15" y="248.1"/>
      <point x="294.4" y="276.95"/>
      <point x="303.8" y="292.5" type="curve"/>
      <point x="307.65" y="276.95"/>
      <point x="317.2" y="248.1"/>
      <point x="326.35" y="224.2" type="curve" smooth="yes"/>
      <point x="410.85" y="0.0" type="line"/>
      <point x="519.0" y="0.0" type="line"/>
      <point x="371.95" y="373.85" type="line"/>
      <point x="623.7" y="730.0" type="line"/>
      <point x="511.25" y="730.0" type="line"/>
      <point x="369.0" y="522.4" type="line" smooth="yes"/>
      <point x="352.55" y="498.5"/>
      <point x="336.45" y="469.95"/>
      <point x="328.05" y="455.55" type="curve"/>
      <point x="322.8" y="469.95"/>
      <point x="312.1" y="498.35"/>
      <point x="303.95" y="522.4" type="curve" smooth="yes"/>
      <point x="229.3" y="730.0" type="line"/>
      <point x="120.3" y="730.0" type="line"/>
      <point x="259.2" y="373.35" type="line"/>
    </contour>
  </outline>
</glyph>
<glyph name="Y" format="2">
  <advance width="600.0"/>
  <unicode hex="0059"/>
  <anchor x="256.0" y="0.0" name="bottom"/>
  <anchor x="372.0" y="730.0" name="top"/>
  <anchor x="92.0" y="730.0" name="topleft"/>
  <outline>
    <contour>
      <point x="206.5" y="0.0" type="line"/>
      <point x="305.5" y="0.0" type="line"/>
      <point x="348.2" y="271.05" type="line"/>
      <point x="640.0" y="730.0" type="line"/>
      <point x="535.25" y="730.0" type="line"/>
      <point x="355.15" y="442.0" type="line" smooth="yes"/>
      <point x="333.55" y="407.35"/>
      <point x="319.35" y="377.7"/>
      <point x="313.45" y="364.7" type="curve"/>
      <point x="312.45" y="377.7"/>
      <point x="306.3" y="407.35"/>
      <point x="295.3" y="442.0" type="curve" smooth="yes"/>
      <point x="204.3" y="730.0" type="line"/>
      <point x="104.0" y="730.0" type="line"/>
      <point x="249.2" y="271.05" type="line"/>
    </contour>
  </outline>
</glyph>
<glyph name="Z" format="2">
  <advance width="600.0"/>
  <unicode hex="005A"/>
  <anchor x="256.0" y="0.0" name="bottom"/>
  <anchor x="314.0" y="365.0" name="center"/>
  <anchor x="372.0" y="730.0" name="top"/>
  <outline>
    <contour>
      <point x="39.65" y="0.0" type="line"/>
      <point x="472.5" y="0.0" type="line"/>
      <point x="486.85" y="90.7" type="line"/>
      <point x="160.0" y="90.7" type="line"/>
      <point x="562.15" y="632.5" type="line"/>
      <point x="578.35" y="730.0" type="line"/>
      <point x="160.95" y="730.0" type="line"/>
      <point x="146.45" y="639.3" type="line"/>
      <point x="457.7" y="639.3" type="line"/>
      <point x="54.85" y="97.5" type="line"/>
    </contour>
  </outline>
</glyph>
<glyph name="bracketleft" format="2">
  <advance width="600.0"/>
  <unicode hex="005B"/>
  <outline>
    <contour>
      <point x="138.75" y="-110.0" type="line"/>
      <point x="392.75" y="-110.0" type="line"/>
      <point x="406.25" y="-21.0" type="line"/>
      <point x="251.25" y="-21.0" type="line"/>
      <point x="372.25" y="741.0" type="line"/>
      <point x="527.25" y="741.0" type="line"/>
      <point x="540.75" y="830.0" type="line"/>
      <point x="286.75" y="830.0" type="line"/>
    </contour>
  </outline>
</glyph>
<glyph name="backslash" format="2">
  <advance width="600.0"/>
  <unicode hex="005C"/>
  <outline>
    <contour>
      <point x="368.45" y="-110.0" type="line"/>
      <point x="467.6" y="-110.0" type="line"/>
      <point x="257.25" y="830.0" type="line"/>
      <point x="158.1" y="830.0" type="line"/>
    </contour>
  </outline>
</glyph>
<glyph name="bracketright" format="2">
  <advance width="600.0"/>
  <unicode hex="005D"/>
  <outline>
    <contour>
      <point x="85.25" y="-110.0" type="line"/>
      <point x="339.25" y="-110.0" type="line"/>
      <point x="487.25" y="830.0" type="line"/>
      <point x="233.25" y="830.0" type="line"/>
      <point x="219.75" y="741.0" type="line"/>
      <point x="374.75" y="741.0" type="line"/>
      <point x="253.75" y="-21.0" type="line"/>
      <point x="98.75" y="-21.0" type="line"/>
    </contour>
  </outline>
</glyph>
<glyph name="asciicircum" format="2">
  <advance width="600.0"/>
  <unicode hex="005E"/>
  <outline>
    <contour>
      <point x="87.0" y="340.0" type="line"/>
      <point x="180.0" y="340.0" type="line"/>
      <point x="329.55" y="590.8" type="line" smooth="yes"/>
      <point x="345.55" y="617.4"/>
      <point x="358.1" y="644.7"/>
      <point x="364.65" y="658.55" type="curve"/>
      <point x="366.35" y="644.7"/>
      <point x="372.05" y="617.4"/>
      <point x="378.9" y="590.8" type="curve" smooth="yes"/>
      <point x="445.85" y="340.0" type="line"/>
      <point x="533.0" y="340.0" type="line"/>
      <point x="419.65" y="730.0" type="line"/>
      <point x="326.35" y="730.0" type="line"/>
    </contour>
  </outline>
</glyph>
<glyph name="a" format="2">
  <advance width="600.0"/>
  <unicode hex="0061"/>
  <anchor x="261.0" y="0.0" name="bottom"/>
  <anchor x="415.5" y="0.0" name="ogonek"/>
  <anchor x="348.0" y="550.0" name="top"/>
  <outline>
    <contour>
      <point x="219.1" y="-10.0" type="curve" smooth="yes"/>
      <point x="310.1" y="-10.0"/>
      <point x="377.5" y="42.45"/>
      <point x="390.8" y="128.1" type="curve"/>
      <point x="366.95" y="105.0" type="line"/>
      <point x="387.5" y="105.0" type="line"/>
      <point x="370.5" y="0.0" type="line"/>
      <point x="468.75" y="0.0" type="line"/>
      <point x="555.75" y="550.0" type="line"/>
      <point x="456.9" y="550.0" type="line"/>
      <point x="442.2" y="445.0" type="line"/>
      <point x="419.95" y="445.0" type="line"/>
      <point x="437.2" y="421.9" type="line"/>
      <point x="450.5" y="506.7"/>
      <point x="400.25" y="560.0"/>
      <point x="310.1" y="560.0" type="curve" smooth="yes"/>
      <point x="199.1" y="560.0"/>
      <point x="116.8" y="481.1"/>
      <point x="96.5" y="353.5" type="curve" smooth="yes"/>
      <point x="71.8" y="195.65" type="line" smooth="yes"/>
      <point x="51.5" y="68.75"/>
      <point x="108.95" y="-10.0"/>
    </contour>
    <contour>
      <point x="266.9" y="75.8" type="curve" smooth="yes"/>
      <point x="193.9" y="75.8"/>
      <point x="159.4" y="120.55"/>
      <point x="171.8" y="201.5" type="curve" smooth="yes"/>
      <point x="194.5" y="348.5" type="line" smooth="yes"/>
      <point x="206.9" y="429.3"/>
      <point x="256.5" y="474.2"/>
      <point x="329.5" y="474.2" type="curve" smooth="yes"/>
      <point x="400.65" y="474.2"/>
      <point x="437.0" y="427.6"/>
      <point x="424.6" y="348.5" type="curve" smooth="yes"/>
      <point x="401.9" y="201.5" type="line" smooth="yes"/>
      <point x="389.5" y="122.25"/>
      <point x="338.05" y="75.8"/>
    </contour>
  </outline>
</glyph>
<glyph name="b" format="2">
  <advance width="600.0"/>
  <unicode hex="0062"/>
  <anchor x="256.0" y="0.0" name="bottom"/>
  <anchor x="372.0" y="730.0" name="top"/>
  <outline>
    <contour>
      <point x="289.75" y="-10.0" type="curve" smooth="yes"/>
      <point x="399.9" y="-10.0"/>
      <point x="483.35" y="68.75"/>
      <point x="503.35" y="195.65" type="curve" smooth="yes"/>
      <point x="528.05" y="353.5" type="line" smooth="yes"/>
      <point x="548.05" y="481.1"/>
      <point x="491.75" y="560.0"/>
      <point x="380.75" y="560.0" type="curve" smooth="yes"/>
      <point x="290.6" y="560.0"/>
      <point x="222.35" y="506.7"/>
      <point x="209.05" y="421.9" type="curve"/>
      <point x="232.9" y="445.0" type="line"/>
      <point x="210.65" y="445.0" type="line"/>
      <point x="233.4" y="571.5" type="line"/>
      <point x="259.1" y="730.0" type="line"/>
      <point x="160.1" y="730.0" type="line"/>
      <point x="44.1" y="0.0" type="line"/>
      <point x="142.35" y="0.0" type="line"/>
      <point x="159.35" y="105.0" type="line"/>
      <point x="179.9" y="105.0" type="line"/>
      <point x="162.65" y="128.1" type="line"/>
      <point x="149.35" y="42.45"/>
      <point x="198.75" y="-10.0"/>
    </contour>
    <contour>
      <point x="270.35" y="75.8" type="curve" smooth="yes"/>
      <point x="199.2" y="75.8"/>
      <point x="162.85" y="122.25"/>
      <point x="175.25" y="201.5" type="curve" smooth="yes"/>
      <point x="197.95" y="348.5" type="line" smooth="yes"/>
      <point x="211.2" y="427.6"/>
      <point x="261.8" y="474.2"/>
      <point x="332.95" y="474.2" type="curve" smooth="yes"/>
      <point x="405.95" y="474.2"/>
      <point x="441.3" y="429.3"/>
      <point x="428.05" y="348.5" type="curve" smooth="yes"/>
      <point x="405.35" y="201.5" type="line" smooth="yes"/>
      <point x="392.1" y="120.55"/>
      <point x="343.35" y="75.8"/>
    </contour>
  </outline>
</glyph>
<glyph name="c" format="2">
  <advance width="600.0"/>
  <unicode hex="0063"/>
  <anchor x="259.85" y="0.0" name="bottom"/>
  <anchor x="346.85" y="550.0" name="top"/>
  <outline>
    <contour>
      <point x="257.85" y="-10.0" type="curve" smooth="yes"/>
      <point x="387.55" y="-10.0"/>
      <point x="484.2" y="63.75"/>
      <point x="507.5" y="182.25" type="curve"/>
      <point x="408.5" y="182.25" type="line"/>
      <point x="393.1" y="115.55"/>
      <point x="343.2" y="77.5"/>
      <point x="272.05" y="77.5" type="curve" smooth="yes"/>
      <point x="195.9" y="77.5"/>
      <point x="158.55" y="122.25"/>
      <point x="170.95" y="201.5" type="curve" smooth="yes"/>
      <point x="194.5" y="349.35" type="line" smooth="yes"/>
      <point x="206.9" y="427.75"/>
      <point x="258.5" y="472.5"/>
      <point x="334.65" y="472.5" type="curve" smooth="yes"/>
      <point x="405.65" y="472.5"/>
      <point x="444.3" y="434.3"/>
      <point x="437.75" y="367.75" type="curve"/>
      <point x="536.75" y="367.75" type="line"/>
      <point x="550.9" y="486.25"/>
      <point x="478.55" y="560.0"/>
      <point x="348.85" y="560.0" type="curve" smooth="yes"/>
      <point x="213.75" y="560.0"/>
      <point x="115.65" y="479.8"/>
      <point x="94.65" y="348.5" type="curve" smooth="yes"/>
      <point x="71.95" y="201.5" type="line" smooth="yes"/>
      <point x="50.95" y="70.2"/>
      <point x="122.75" y="-10.0"/>
    </contour>
  </outline>
</glyph>
<glyph name="d" format="2">
  <advance width="600.0"/>
  <unicode hex="0064"/>
  <anchor x="256.0" y="0.0" name="bottom"/>
  <anchor x="300.0" y="275.0" name="center"/>
  <anchor x="372.0" y="730.0" name="top"/>
  <anchor x="624.0" y="550.0" name="topright"/>
  <outline>
    <contour>
      <point x="219.1" y="-10.0" type="curve" smooth="yes"/>
      <point x="310.1" y="-10.0"/>
      <point x="377.5" y="42.45"/>
      <point x="390.8" y="128.1" type="curve"/>
      <point x="366.95" y="105.0" type="line"/>
      <point x="387.5" y="105.0" type="line"/>
      <point x="370.5" y="0.0" type="line"/>
      <point x="468.75" y="0.0" type="line"/>
      <point x="584.75" y="730.0" type="line"/>
      <point x="485.75" y="730.0" type="line"/>
      <point x="460.05" y="571.5" type="line"/>
      <point x="442.2" y="445.0" type="line"/>
      <point x="419.95" y="445.0" type="line"/>
      <point x="437.2" y="421.9" type="line"/>
      <point x="450.5" y="506.7"/>
      <point x="400.25" y="560.0"/>
      <point x="310.1" y="560.0" type="curve" smooth="yes"/>
      <point x="199.1" y="560.0"/>
      <point x="116.5" y="481.1"/>
      <point x="96.5" y="353.5" type="curve" smooth="yes"/>
      <point x="71.8" y="195.65" type="line" smooth="yes"/>
      <point x="51.8" y="68.75"/>
      <point x="108.95" y="-10.0"/>
    </contour>
    <contour>
      <point x="266.9" y="75.8" type="curve" smooth="yes"/>
      <point x="193.9" y="75.8"/>
      <point x="158.55" y="120.55"/>
      <point x="171.8" y="201.5" type="curve" smooth="yes"/>
      <point x="194.5" y="348.5" type="line" smooth="yes"/>
      <point x="207.75" y="429.3"/>
      <point x="256.5" y="474.2"/>
      <point x="329.5" y="474.2" type="curve" smooth="yes"/>
      <point x="400.65" y="474.2"/>
      <point x="437.85" y="427.6"/>
      <point x="424.6" y="348.5" type="curve" smooth="yes"/>
      <point x="401.9" y="201.5" type="line" smooth="yes"/>
      <point x="389.5" y="122.25"/>
      <point x="338.05" y="75.8"/>
    </contour>
  </outline>
</glyph>
<glyph name="e" format="2">
  <advance width="600.0"/>
  <unicode hex="0065"/>
  <anchor x="256.0" y="0.0" name="bottom"/>
  <anchor x="305.0" y="0.0" name="ogonek"/>
  <anchor x="343.0" y="550.0" name="top"/>
  <outline>
    <contour>
      <point x="254.15" y="-10.0" type="curve" smooth="yes"/>
      <point x="370.6" y="-10.0"/>
      <point x="464.1" y="48.9"/>
      <point x="492.05" y="141.5" type="curve"/>
      <point x="393.5" y="141.5" type="line"/>
      <point x="376.1" y="95.65"/>
      <point x="333.2" y="71.85"/>
      <point x="267.5" y="71.85" type="curve" smooth="yes"/>
      <point x="187.75" y="71.85"/>
      <point x="154.65" y="117.2"/>
      <point x="168.2" y="201.5" type="curve" smooth="yes"/>
      <point x="175.75" y="251.05" type="line"/>
      <point x="511.9" y="251.05" type="line"/>
      <point x="527.05" y="348.5" type="line" smooth="yes"/>
      <point x="548.05" y="476.25"/>
      <point x="477.55" y="560.0"/>
      <point x="345.15" y="560.0" type="curve" smooth="yes"/>
      <point x="212.6" y="560.0"/>
      <point x="115.65" y="476.25"/>
      <point x="94.65" y="348.5" type="curve" smooth="yes"/>
      <point x="71.95" y="201.5" type="line" smooth="yes"/>
      <point x="51.8" y="73.75"/>
      <point x="121.6" y="-10.0"/>
    </contour>
    <contour>
      <point x="425.95" y="313.6" type="line"/>
      <point x="434.55" y="321.9" type="line"/>
      <point x="187.05" y="321.6" type="line"/>
      <point x="190.9" y="348.5" type="line" smooth="yes"/>
      <point x="204.45" y="432.65"/>
      <point x="252.65" y="479.3"/>
      <point x="332.25" y="479.3" type="curve" smooth="yes"/>
      <point x="411.7" y="479.3"/>
      <point x="444.35" y="432.95"/>
      <point x="430.8" y="348.8" type="curve" smooth="yes"/>
    </contour>
  </outline>
</glyph>
<glyph name="f" format="2">
  <advance width="600.0"/>
  <unicode hex="0066"/>
  <anchor x="256.0" y="0.0" name="bottom"/>
  <anchor x="372.0" y="730.0" name="top"/>
  <outline>
    <contour>
      <point x="0.0" y="-180.0" type="line"/>
      <point x="69.25" y="-180.0" type="line" smooth="yes"/>
      <point x="182.2" y="-180.0"/>
      <point x="260.1" y="-117.05"/>
      <point x="276.55" y="-14.9" type="curve" smooth="yes"/>
      <point x="345.0" y="403.55" type="line"/>
      <point x="556.15" y="403.55" type="line"/>
      <point x="570.5" y="493.5" type="line"/>
      <point x="359.35" y="493.5" type="line"/>
      <point x="371.2" y="567.75" type="line" smooth="yes"/>
      <point x="378.6" y="616.85"/>
      <point x="407.25" y="640.8"/>
      <point x="458.9" y="640.8" type="curve" smooth="yes"/>
      <point x="585.8" y="640.8" type="line"/>
      <point x="600.0" y="730.0" type="line"/>
      <point x="473.2" y="730.0" type="line" smooth="yes"/>
      <point x="364.3" y="730.0"/>
      <point x="288.35" y="667.95"/>
      <point x="272.35" y="568.5" type="curve" smooth="yes"/>
      <point x="260.35" y="493.5" type="line"/>
      <point x="92.2" y="493.5" type="line"/>
      <point x="77.85" y="403.55" type="line"/>
      <point x="246.0" y="403.55" type="line"/>
      <point x="177.7" y="-14.15" type="line" smooth="yes"/>
      <point x="168.85" y="-66.7"/>
      <point x="138.8" y="-92.3"/>
      <point x="83.25" y="-92.3" type="curve" smooth="yes"/>
      <point x="13.9" y="-92.3" type="line"/>
    </contour>
  </outline>
</glyph>
<glyph name="g" format="2">
  <advance width="600.0"/>
  <unicode hex="0067"/>
  <anchor x="214.0" y="-270.0" name="bottom"/>
  <anchor x="340.0" y="550.0" name="top"/>
  <outline>
    <contour>
      <point x="87.3" y="-180.0" type="line"/>
      <point x="259.2" y="-180.0" type="line" smooth="yes"/>
      <point x="372.15" y="-180.0"/>
      <point x="450.05" y="-117.05"/>
      <point x="466.5" y="-14.9" type="curve" smooth="yes"/>
      <point x="555.75" y="550.0" type="line"/>
      <point x="457.6" y="550.0" type="line"/>
      <point x="441.35" y="445.0" type="line"/>
      <point x="421.65" y="445.0" type="line"/>
      <point x="438.9" y="427.0" type="line"/>
      <point x="452.2" y="509.25"/>
      <point x="402.8" y="560.0"/>
      <point x="313.5" y="560.0" type="curve" smooth="yes"/>
      <point x="200.8" y="560.0"/>
      <point x="117.35" y="480.25"/>
      <point x="97.35" y="354.35" type="curve" smooth="yes"/>
      <point x="79.65" y="240.75" type="line" smooth="yes"/>
      <point x="59.5" y="113.85"/>
      <point x="117.65" y="34.25"/>
      <point x="230.35" y="34.25" type="curve" smooth="yes"/>
      <point x="319.65" y="34.25"/>
      <point x="384.35" y="85.0"/>
      <point x="397.8" y="167.25" type="curve"/>
      <point x="375.5" y="149.25" type="line"/>
      <point x="396.05" y="149.25" type="line"/>
      <point x="377.9" y="48.5" type="line"/>
      <point x="368.1" y="-14.15" type="line" smooth="yes"/>
      <point x="359.25" y="-66.7"/>
      <point x="329.2" y="-92.3"/>
      <point x="273.2" y="-92.3" type="curve" smooth="yes"/>
      <point x="101.2" y="-92.3" type="line"/>
    </contour>
    <contour>
      <point x="274.6" y="120.05" type="curve" smooth="yes"/>
      <point x="201.6" y="120.05"/>
      <point x="166.25" y="164.8"/>
      <point x="179.65" y="245.75" type="curve" smooth="yes"/>
      <point x="195.35" y="348.5" type="line" smooth="yes"/>
      <point x="208.6" y="429.3"/>
      <point x="257.35" y="474.2"/>
      <point x="330.35" y="474.2" type="curve" smooth="yes"/>
      <point x="401.5" y="474.2"/>
      <point x="438.7" y="427.6"/>
      <point x="425.45" y="348.5" type="curve" smooth="yes"/>
      <point x="409.75" y="245.75" type="line" smooth="yes"/>
      <point x="397.2" y="166.5"/>
      <point x="345.75" y="120.05"/>
    </contour>
  </outline>
</glyph>
<glyph name="k" format="2">
  <advance width="600.0"/>
  <unicode hex="006B"/>
  <anchor x="256.0" y="0.0" name="bottom"/>
  <anchor x="372.0" y="730.0" name="top"/>
  <outline>
    <contour>
      <point x="47.1" y="0.0" type="line"/>
      <point x="146.1" y="0.0" type="line"/>
      <point x="184.35" y="240.65" type="line"/>
      <point x="280.2" y="240.65" type="line"/>
      <point x="395.65" y="0.0" type="line"/>
      <point x="507.65" y="0.0" type="line"/>
      <point x="369.85" y="283.35" type="line"/>
      <point x="591.65" y="550.0" type="line"/>
      <point x="476.9" y="550.0" type="line"/>
      <point x="288.1" y="325.85" type="line"/>
      <point x="197.55" y="325.85" type="line"/>
      <point x="262.1" y="730.0" type="line"/>
      <point x="163.1" y="730.0" type="line"/>
    </contour>
  </outline>
</glyph>
<glyph name="l" format="2">
  <advance width="600.0"/>
  <unicode hex="006C"/>
  <anchor x="246.0" y="0.0" name="bottom"/>
  <anchor x="314.0" y="365.0" name="center"/>
  <anchor x="316.5" y="730.0" name="top"/>
  <anchor x="652.0" y="730.0" name="topright"/>
  <outline>
    <contour>
      <point x="324.75" y="0.0" type="curve" smooth="yes"/>
      <point x="508.25" y="0.0" type="line"/>
      <point x="522.45" y="89.95" type="line"/>
      <point x="341.2" y="89.95" type="line" smooth="yes"/>
      <point x="299.25" y="89.95"/>
      <point x="277.55" y="117.35"/>
      <point x="284.4" y="161.0" type="curve" smooth="yes"/>
      <point x="374.5" y="730.0" type="line"/>
      <point x="109.75" y="730.0" type="line"/>
      <point x="95.4" y="640.05" type="line"/>
      <point x="261.15" y="640.05" type="line"/>
      <point x="185.4" y="161.0" type="line" smooth="yes"/>
      <point x="169.95" y="63.55"/>
      <point x="224.75" y="0.0"/>
    </contour>
  </outline>
</glyph>
<glyph name="m" format="2">
  <advance width="600.0"/>
  <unicode hex="006D"/>
  <anchor x="256.0" y="0.0" name="bottom"/>
  <anchor x="344.0" y="550.0" name="top"/>
  <outline>
    <contour>
      <point x="18.4" y="0.0" type="line"/>
      <point x="108.3" y="0.0" type="line"/>
      <point x="173.85" y="417.45" type="line" smooth="yes"/>
      <point x="180.55" y="460.35"/>
      <point x="202.65" y="485.0"/>
      <point x="237.85" y="485.0" type="curve" smooth="yes"/>
      <point x="273.05" y="485.0"/>
      <point x="290.0" y="460.35"/>
      <point x="283.3" y="416.6" type="curve" smooth="yes"/>
      <point x="217.75" y="0.0" type="line"/>
      <point x="294.4" y="0.0" type="line"/>
      <point x="359.95" y="417.45" type="line" smooth="yes"/>
      <point x="366.65" y="460.35"/>
      <point x="391.3" y="485.0"/>
      <point x="425.65" y="485.0" type="curve" smooth="yes"/>
      <point x="460.85" y="485.0"/>
      <point x="476.1" y="459.5"/>
      <point x="469.4" y="416.6" type="curve" smooth="yes"/>
      <point x="403.85" y="0.0" type="line"/>
      <point x="493.75" y="0.0" type="line"/>
      <point x="559.75" y="418.3" type="line" smooth="yes"/>
      <point x="572.75" y="502.85"/>
      <point x="540.7" y="560.0"/>
      <point x="472.3" y="560.0" type="curve" smooth="yes"/>
      <point x="416.3" y="560.0"/>
      <point x="372.85" y="520.4"/>
      <point x="363.7" y="459.4" type="curve"/>
      <point x="384.05" y="481.9" type="line"/>
      <point x="344.15" y="481.9" type="line"/>
      <point x="362.25" y="431.5" type="line"/>
      <point x="374.95" y="512.55"/>
      <point x="346.5" y="560.0"/>
      <point x="286.25" y="560.0" type="curve" smooth="yes"/>
      <point x="230.7" y="560.0"/>
      <point x="189.4" y="520.4"/>
      <point x="180.25" y="459.4" type="curve"/>
      <point x="197.85" y="481.9" type="line"/>
      <point x="178.95" y="481.9" type="line"/>
      <point x="190.25" y="550.0" type="line"/>
      <point x="105.4" y="550.0" type="line"/>
    </contour>
  </outline>
</glyph>
<glyph name="o" format="2">
  <advance width="600.0"/>
  <unicode hex="006F"/>
  <anchor x="256.0" y="0.0" name="bottom"/>
  <anchor x="300.0" y="275.0" name="center"/>
  <anchor x="373.2" y="550.0" name="horn"/>
  <anchor x="305.0" y="0.0" name="ogonek"/>
  <anchor x="343.0" y="550.0" name="top"/>
  <anchor x="624.0" y="550.0" name="topright"/>
  <outline>
    <contour>
      <point x="254.0" y="-10.0" type="curve" smooth="yes"/>
      <point x="387.4" y="-10.0"/>
      <point x="483.35" y="70.35"/>
      <point x="504.35" y="201.5" type="curve" smooth="yes"/>
      <point x="527.9" y="349.35" type="line" smooth="yes"/>
      <point x="548.05" y="479.65"/>
      <point x="478.4" y="560.0"/>
      <point x="345.0" y="560.0" type="curve" smooth="yes"/>
      <point x="211.6" y="560.0"/>
      <point x="115.65" y="479.65"/>
      <point x="94.65" y="348.5" type="curve" smooth="yes"/>
      <point x="71.95" y="201.5" type="line" smooth="yes"/>
      <point x="50.95" y="70.35"/>
      <point x="120.6" y="-10.0"/>
    </contour>
    <contour>
      <point x="268.2" y="77.5" type="curve" smooth="yes"/>
      <point x="193.2" y="77.5"/>
      <point x="157.7" y="120.55"/>
      <point x="170.95" y="201.5" type="curve" smooth="yes"/>
      <point x="193.65" y="348.5" type="line" smooth="yes"/>
      <point x="206.9" y="429.45"/>
      <point x="255.8" y="472.5"/>
      <point x="330.8" y="472.5" type="curve" smooth="yes"/>
      <point x="405.8" y="472.5"/>
      <point x="441.3" y="429.45"/>
      <point x="428.05" y="348.5" type="curve" smooth="yes"/>
      <point x="405.35" y="201.5" type="line" smooth="yes"/>
      <point x="392.1" y="120.55"/>
      <point x="343.2" y="77.5"/>
    </contour>
  </outline>
</glyph>
<glyph name="p" format="2">
  <advance width="600.0"/>
  <unicode hex="0070"/>
  <anchor x="256.0" y="0.0" name="bottom"/>
  <anchor x="344.0" y="550.0" name="top"/>
  <outline>
    <contour>
      <point x="15.1" y="-180.0" type="line"/>
      <point x="114.1" y="-180.0" type="line"/>
      <point x="139.8" y="-21.5" type="line"/>
      <point x="157.65" y="105.0" type="line"/>
      <point x="179.9" y="105.0" type="line"/>
      <point x="162.65" y="128.1" type="line"/>
      <point x="149.35" y="43.3"/>
      <point x="200.45" y="-10.0"/>
      <point x="290.6" y="-10.0" type="curve" smooth="yes"/>
      <point x="401.6" y="-10.0"/>
      <point x="483.35" y="68.9"/>
      <point x="503.35" y="196.5" type="curve" smooth="yes"/>
      <point x="528.05" y="354.35" type="line" smooth="yes"/>
      <point x="548.05" y="481.1"/>
      <point x="491.75" y="560.0"/>
      <point x="381.6" y="560.0" type="curve" smooth="yes"/>
      <point x="290.6" y="560.0"/>
      <point x="222.35" y="507.55"/>
      <point x="209.05" y="421.9" type="curve"/>
      <point x="232.9" y="445.0" type="line"/>
      <point x="212.35" y="445.0" type="line"/>
      <point x="229.35" y="550.0" type="line"/>
      <point x="131.1" y="550.0" type="line"/>
    </contour>
    <contour>
      <point x="271.2" y="75.8" type="curve" smooth="yes"/>
      <point x="200.05" y="75.8"/>
      <point x="162.85" y="122.4"/>
      <point x="175.25" y="201.5" type="curve" smooth="yes"/>
      <point x="197.95" y="348.5" type="line" smooth="yes"/>
      <point x="211.2" y="427.6"/>
      <point x="262.65" y="474.2"/>
      <point x="333.8" y="474.2" type="curve" smooth="yes"/>
      <point x="406.8" y="474.2"/>
      <point x="441.3" y="429.45"/>
      <point x="428.05" y="348.5" type="curve" smooth="yes"/>
      <point x="405.35" y="201.5" type="line" smooth="yes"/>
      <point x="392.1" y="120.55"/>
      <point x="344.2" y="75.8"/>
    </contour>
  </outline>
</glyph>
<glyph name="q" format="2">
  <advance width="600.0"/>
  <unicode hex="0071"/>
  <anchor x="256.0" y="0.0" name="bottom"/>
  <anchor x="344.0" y="550.0" name="top"/>
  <outline>
    <contour>
      <point x="339.9" y="-180.0" type="line"/>
      <point x="438.9" y="-180.0" type="line"/>
      <point x="554.9" y="550.0" type="line"/>
      <point x="456.65" y="550.0" type="line"/>
      <point x="439.65" y="445.0" type="line"/>
      <point x="419.1" y="445.0" type="line"/>
      <point x="436.05" y="421.9" type="line"/>
      <point x="449.35" y="507.55"/>
      <point x="400.25" y="560.0"/>
      <point x="309.25" y="560.0" type="curve" smooth="yes"/>
      <point x="199.1" y="560.0"/>
      <point x="115.65" y="481.1"/>
      <point x="95.65" y="354.35" type="curve" smooth="yes"/>
      <point x="70.95" y="196.5" type="line" smooth="yes"/>
      <point x="50.95" y="68.9"/>
      <point x="107.25" y="-10.0"/>
      <point x="218.25" y="-10.0" type="curve" smooth="yes"/>
      <point x="308.4" y="-10.0"/>
      <point x="376.35" y="43.3"/>
      <point x="389.65" y="128.1" type="curve"/>
      <point x="366.1" y="105.0" type="line"/>
      <point x="388.35" y="105.0" type="line"/>
      <point x="365.6" y="-21.5" type="line"/>
    </contour>
    <contour>
      <point x="266.05" y="75.8" type="curve" smooth="yes"/>
      <point x="193.05" y="75.8"/>
      <point x="157.7" y="120.55"/>
      <point x="170.95" y="201.5" type="curve" smooth="yes"/>
      <point x="193.65" y="348.5" type="line" smooth="yes"/>
      <point x="206.9" y="429.45"/>
      <point x="255.65" y="474.2"/>
      <point x="328.65" y="474.2" type="curve" smooth="yes"/>
      <point x="399.8" y="474.2"/>
      <point x="437.0" y="427.6"/>
      <point x="423.75" y="348.5" type="curve" smooth="yes"/>
      <point x="401.05" y="201.5" type="line" smooth="yes"/>
      <point x="388.65" y="122.4"/>
      <point x="337.2" y="75.8"/>
    </contour>
  </outline>
</glyph>
<glyph name="r" format="2">
  <advance width="600.0"/>
  <unicode hex="0072"/>
  <anchor x="91.0" y="0.0" name="bottom"/>
  <anchor x="363.0" y="550.0" name="top"/>
  <outline>
    <contour>
      <point x="62.65" y="0.0" type="line"/>
      <point x="161.65" y="0.0" type="line"/>
      <point x="216.5" y="348.5" type="line" smooth="yes"/>
      <point x="229.75" y="429.75"/>
      <point x="281.2" y="476.65"/>
      <point x="354.35" y="476.65" type="curve" smooth="yes"/>
      <point x="428.05" y="476.65"/>
      <point x="463.0" y="430.6"/>
      <point x="449.75" y="348.5" type="curve" smooth="yes"/>
      <point x="445.45" y="322.0" type="line"/>
      <point x="545.95" y="322.0" type="line"/>
      <point x="552.1" y="356.8" type="line" smooth="yes"/>
      <point x="571.4" y="482.15"/>
      <point x="510.85" y="560.0"/>
      <point x="394.1" y="560.0" type="curve" smooth="yes"/>
      <point x="292.5" y="560.0"/>
      <point x="229.9" y="499.0"/>
      <point x="210.9" y="380.15" type="curve"/>
      <point x="252.0" y="445.0" type="line"/>
      <point x="228.45" y="445.0" type="line"/>
      <point x="245.45" y="550.0" type="line"/>
      <point x="149.65" y="550.0" type="line"/>
    </contour>
  </outline>
</glyph>
<glyph name="s" format="2">
  <advance width="600.0"/>
  <unicode hex="0073"/>
  <anchor x="256.7" y="0.0" name="bottom"/>
  <anchor x="344.15" y="550.0" name="top"/>
  <outline>
    <contour>
      <point x="231.85" y="-10.0" type="curve" smooth="yes"/>
      <point x="274.15" y="-10.0" type="line" smooth="yes"/>
      <point x="407.15" y="-10.0"/>
      <point x="484.25" y="52.85"/>
      <point x="501.4" y="156.35" type="curve" smooth="yes"/>
      <point x="516.55" y="253.4"/>
      <point x="468.45" y="298.25"/>
      <point x="350.3" y="317.1" type="curve" smooth="yes"/>
      <point x="278.9" y="328.65" type="line" smooth="yes"/>
      <point x="224.55" y="337.2"/>
      <point x="204.45" y="357.75"/>
      <point x="211.15" y="400.65" type="curve" smooth="yes"/>
      <point x="218.7" y="448.1"/>
      <point x="251.2" y="474.45"/>
      <point x="316.5" y="474.45" type="curve" smooth="yes"/>
      <point x="354.5" y="474.45" type="line" smooth="yes"/>
      <point x="406.85" y="474.45"/>
      <point x="435.25" y="451.35"/>
      <point x="437.2" y="417.55" type="curve"/>
      <point x="536.2" y="417.55" type="line"/>
      <point x="538.6" y="503.65"/>
      <point x="477.75" y="560.0"/>
      <point x="368.4" y="560.0" type="curve" smooth="yes"/>
      <point x="330.4" y="560.0" type="line" smooth="yes"/>
      <point x="203.0" y="560.0"/>
      <point x="128.2" y="500.7"/>
      <point x="112.9" y="401.35" type="curve" smooth="yes"/>
      <point x="97.75" y="307.0"/>
      <point x="145.1" y="262.6"/>
      <point x="254.45" y="245.6" type="curve" smooth="yes"/>
      <point x="325.1" y="234.2" type="line" smooth="yes"/>
      <point x="383.05" y="224.65"/>
      <point x="409.0" y="197.85"/>
      <point x="402.3" y="152.95" type="curve" smooth="yes"/>
      <point x="394.6" y="106.75"/>
      <point x="356.65" y="75.55"/>
      <point x="288.05" y="75.55" type="curve" smooth="yes"/>
      <point x="245.75" y="75.55" type="line" smooth="yes"/>
      <point x="188.7" y="75.55"/>
      <point x="157.3" y="100.8"/>
      <point x="156.35" y="138.75" type="curve"/>
      <point x="57.35" y="138.75" type="line"/>
      <point x="51.55" y="48.65"/>
      <point x="115.4" y="-10.0"/>
    </contour>
  </outline>
</glyph>
<glyph name="t" format="2">
  <advance width="600.0"/>
  <unicode hex="0074"/>
  <anchor x="316.0" y="0.0" name="bottom"/>
  <anchor x="300.0" y="275.0" name="center"/>
  <anchor x="375.0" y="700.0" name="top"/>
  <anchor x="624.0" y="550.0" name="topright"/>
  <outline>
    <contour>
      <point x="316.0" y="0.0" type="curve" smooth="yes"/>
      <point x="468.25" y="0.0" type="line"/>
      <point x="482.45" y="89.95" type="line"/>
      <point x="332.45" y="89.95" type="line" smooth="yes"/>
      <point x="293.25" y="89.95"/>
      <point x="277.7" y="109.35"/>
      <point x="284.4" y="150.25" type="curve" smooth="yes"/>
      <point x="333.3" y="460.05" type="line"/>
      <point x="551.05" y="460.05" type="line"/>
      <point x="565.25" y="550.0" type="line"/>
      <point x="347.5" y="550.0" type="line"/>
      <point x="371.5" y="700.0" type="line"/>
      <point x="272.5" y="700.0" type="line"/>
      <point x="248.5" y="550.0" type="line"/>
      <point x="95.0" y="550.0" type="line"/>
      <point x="80.8" y="460.05" type="line"/>
      <point x="234.3" y="460.05" type="line"/>
      <point x="185.4" y="150.25" type="line" smooth="yes"/>
      <point x="169.95" y="55.25"/>
      <point x="218.45" y="0.0"/>
    </contour>
  </outline>
</glyph>
<glyph name="u" format="2">
  <advance width="600.0"/>
  <unicode hex="0075"/>
  <anchor x="256.0" y="0.0" name="bottom"/>
  <anchor x="461.5" y="550.0" name="horn"/>
  <anchor x="305.0" y="0.0" name="ogonek"/>
  <anchor x="343.0" y="550.0" name="top"/>
  <anchor x="624.0" y="550.0" name="topright"/>
  <outline>
    <contour>
      <point x="253.15" y="-10.0" type="curve" smooth="yes"/>
      <point x="383.0" y="-10.0"/>
      <point x="481.9" y="71.45"/>
      <point x="502.2" y="202.1" type="curve" smooth="yes"/>
      <point x="556.9" y="550.0" type="line"/>
      <point x="457.9" y="550.0" type="line"/>
      <point x="403.2" y="202.25" type="line" smooth="yes"/>
      <point x="390.65" y="122.4"/>
      <point x="339.35" y="76.65"/>
      <point x="267.35" y="76.65" type="curve" smooth="yes"/>
      <point x="196.05" y="76.65"/>
      <point x="160.85" y="122.4"/>
      <point x="173.4" y="202.25" type="curve" smooth="yes"/>
      <point x="228.1" y="550.0" type="line"/>
      <point x="129.1" y="550.0" type="line"/>
      <point x="74.4" y="202.1" type="line" smooth="yes"/>
      <point x="54.1" y="71.6"/>
      <point x="123.0" y="-10.0"/>
    </contour>
  </outline>
</glyph>
<glyph name="v" format="2">
  <advance width="600.0"/>
  <unicode hex="0076"/>
  <anchor x="256.0" y="0.0" name="bottom"/>
  <anchor x="344.0" y="550.0" name="top"/>
  <outline>
    <contour>
      <point x="190.2" y="0.0" type="line"/>
      <point x="322.1" y="0.0" type="line"/>
      <point x="587.95" y="550.0" type="line"/>
      <point x="484.65" y="550.0" type="line"/>
      <point x="317.45" y="189.0" type="line" smooth="yes"/>
      <point x="297.2" y="146.2"/>
      <point x="276.8" y="100.45"/>
      <point x="267.65" y="77.7" type="curve"/>
      <point x="264.8" y="100.45"/>
      <point x="259.8" y="146.2"/>
      <point x="253.1" y="189.15" type="curve" smooth="yes"/>
      <point x="196.5" y="550.0" type="line"/>
      <point x="98.05" y="550.0" type="line"/>
    </contour>
  </outline>
</glyph>
<glyph name="w" format="2">
  <advance width="600.0"/>
  <unicode hex="0077"/>
  <anchor x="256.0" y="0.0" name="bottom"/>
  <anchor x="343.0" y="550.0" name="top"/>
  <outline>
    <contour>
      <point x="74.05" y="0.0" type="line"/>
      <point x="180.85" y="0.0" type="line"/>
      <point x="297.9" y="369.5" type="line" smooth="yes"/>
      <point x="309.75" y="406.5"/>
      <point x="323.2" y="451.2"/>
      <point x="329.95" y="474.3" type="curve"/>
      <point x="329.65" y="451.2"/>
      <point x="329.65" y="406.5"/>
      <point x="329.5" y="369.5" type="curve" smooth="yes"/>
      <point x="327.75" y="0.0" type="line"/>
      <point x="434.4" y="0.0" type="line"/>
      <point x="611.75" y="550.0" type="line"/>
      <point x="529.6" y="550.0" type="line"/>
      <point x="415.1" y="173.5" type="line" smooth="yes"/>
      <point x="405.5" y="142.4"/>
      <point x="392.75" y="99.5"/>
      <point x="385.6" y="75.25" type="curve"/>
      <point x="386.6" y="99.35"/>
      <point x="386.2" y="142.1"/>
      <point x="386.2" y="173.5" type="curve" smooth="yes"/>
      <point x="387.5" y="550.0" type="line"/>
      <point x="296.8" y="550.0" type="line"/>
      <point x="177.45" y="173.5" type="line" smooth="yes"/>
      <point x="167.7" y="142.1"/>
      <point x="154.95" y="99.5"/>
      <point x="147.65" y="75.4" type="curve"/>
      <point x="148.8" y="99.5"/>
      <point x="149.4" y="142.25"/>
      <point x="150.4" y="173.5" type="curve" smooth="yes"/>
      <point x="157.4" y="550.0" type="line"/>
      <point x="74.25" y="550.0" type="line"/>
    </contour>
  </outline>
</glyph>
<glyph name="x" format="2">
  <advance width="600.0"/>
  <unicode hex="0078"/>
  <anchor x="256.0" y="0.0" name="bottom"/>
  <anchor x="344.0" y="550.0" name="top"/>
  <outline>
    <contour>
      <point x="6.65" y="0.0" type="line"/>
      <point x="123.25" y="0.0" type="line"/>
      <point x="259.25" y="172.5" type="line" smooth="yes"/>
      <point x="271.55" y="187.8"/>
      <point x="284.4" y="210.25"/>
      <point x="292.25" y="222.4" type="curve"/>
      <point x="296.1" y="210.25"/>
      <point x="304.25" y="187.95"/>
      <point x="311.4" y="172.5" type="curve" smooth="yes"/>
      <point x="392.5" y="0.0" type="line"/>
      <point x="505.35" y="0.0" type="line"/>
      <point x="361.35" y="279.45" type="line"/>
      <point x="581.05" y="550.0" type="line"/>
      <point x="464.45" y="550.0" type="line"/>
      <point x="340.35" y="389.0" type="line" smooth="yes"/>
      <point x="328.9" y="373.55"/>
      <point x="316.75" y="353.8"/>
      <point x="310.6" y="342.5" type="curve"/>
      <point x="307.6" y="353.8"/>
      <point x="299.75" y="373.55"/>
      <point x="292.6" y="389.0" type="curve" smooth="yes"/>
      <point x="218.65" y="550.0" type="line"/>
      <point x="105.8" y="550.0" type="line"/>
      <point x="241.65" y="286.3" type="line"/>
    </contour>
  </outline>
</glyph>
<glyph name="y" format="2">
  <advance width="600.0"/>
  <unicode hex="0079"/>
  <anchor x="256.0" y="0.0" name="bottom"/>
  <anchor x="343.0" y="550.0" name="top"/>
  <outline>
    <contour>
      <point x="86.55" y="-180.0" type="line"/>
      <point x="258.45" y="-180.0" type="line" smooth="yes"/>
      <point x="371.4" y="-180.0"/>
      <point x="450.15" y="-117.05"/>
      <point x="465.75" y="-14.9" type="curve" smooth="yes"/>
      <point x="555.55" y="550.0" type="line"/>
      <point x="456.55" y="550.0" type="line"/>
      <point x="409.7" y="251.5" type="line" smooth="yes"/>
      <point x="397.3" y="170.7"/>
      <point x="345.15" y="124.1"/>
      <point x="273.45" y="124.1" type="curve" smooth="yes"/>
      <point x="204.15" y="124.1"/>
      <point x="167.8" y="168.15"/>
      <point x="180.2" y="243.0" type="curve" smooth="yes"/>
      <point x="228.75" y="550.0" type="line"/>
      <point x="129.75" y="550.0" type="line"/>
      <point x="79.2" y="232.25" type="line" smooth="yes"/>
      <point x="60.05" y="114.2"/>
      <point x="119.6" y="40.0"/>
      <point x="229.15" y="40.0" type="curve" smooth="yes"/>
      <point x="321.0" y="40.0"/>
      <point x="384.45" y="91.05"/>
      <point x="398.6" y="178.1" type="curve"/>
      <point x="372.55" y="155.0" type="line"/>
      <point x="395.3" y="155.0" type="line"/>
      <point x="378.0" y="52.75" type="line"/>
      <point x="367.35" y="-14.15" type="line" smooth="yes"/>
      <point x="359.5" y="-67.55"/>
      <point x="328.45" y="-92.3"/>
      <point x="272.45" y="-92.3" type="curve" smooth="yes"/>
      <point x="100.45" y="-92.3" type="line"/>
    </contour>
  </outline>
</glyph>
<glyph name="z" format="2">
  <advance width="600.0"/>
  <unicode hex="007A"/>
  <anchor x="256.0" y="0.0" name="bottom"/>
  <anchor x="300.0" y="275.0" name="center"/>
  <anchor x="343.0" y="550.0" name="top"/>
  <outline>
    <contour>
      <point x="43.0" y="0.0" type="line"/>
      <point x="469.0" y="0.0" type="line"/>
      <point x="483.2" y="89.2" type="line"/>
      <point x="168.5" y="89.2" type="line"/>
      <point x="530.1" y="454.0" type="line"/>
      <point x="545.0" y="550.0" type="line"/>
      <point x="138.3" y="550.0" type="line"/>
      <point x="124.25" y="460.8" type="line"/>
      <point x="414.55" y="460.8" type="line"/>
      <point x="58.05" y="96.0" type="line"/>
    </contour>
  </outline>
</glyph>
<glyph name="braceleft" format="2">
  <advance width="600.0"/>
  <unicode hex="007B"/>
  <outline>
    <contour>
      <point x="404.35" y="-110.15" type="curve" smooth="yes"/>
      <point x="455.35" y="-110.15" type="line"/>
      <point x="469.0" y="-21.15" type="line"/>
      <point x="422.5" y="-21.15" type="line" smooth="yes"/>
      <point x="363.55" y="-21.15"/>
      <point x="334.6" y="7.1"/>
      <point x="346.0" y="60.95" type="curve" smooth="yes"/>
      <point x="381.7" y="222.85" type="line" smooth="yes"/>
      <point x="399.55" y="307.2"/>
      <point x="355.75" y="363.15"/>
      <point x="269.65" y="363.15" type="curve"/>
      <point x="269.5" y="357.85" type="line"/>
      <point x="356.45" y="357.85"/>
      <point x="416.1" y="411.95"/>
      <point x="424.8" y="496.85" type="curve" smooth="yes"/>
      <point x="440.5" y="658.9" type="line" smooth="yes"/>
      <point x="446.2" y="713.8"/>
      <point x="484.25" y="741.0"/>
      <point x="543.5" y="741.0" type="curve" smooth="yes"/>
      <point x="590.0" y="741.0" type="line"/>
      <point x="603.5" y="830.0" type="line"/>
      <point x="552.5" y="830.0" type="line" smooth="yes"/>
      <point x="435.7" y="830.0"/>
      <point x="352.8" y="767.65"/>
      <point x="341.95" y="661.9" type="curve" smooth="yes"/>
      <point x="326.25" y="499.85" type="line" smooth="yes"/>
      <point x="319.7" y="433.2"/>
      <point x="295.75" y="404.35"/>
      <point x="215.5" y="404.35" type="curve" smooth="yes"/>
      <point x="103.25" y="404.35" type="line"/>
      <point x="89.75" y="315.35" type="line"/>
      <point x="202.0" y="315.35" type="line" smooth="yes"/>
      <point x="281.4" y="315.35"/>
      <point x="296.35" y="286.5"/>
      <point x="282.25" y="219.85" type="curve" smooth="yes"/>
      <point x="246.7" y="58.7" type="line" smooth="yes"/>
      <point x="223.25" y="-47.35"/>
      <point x="287.7" y="-110.15"/>
    </contour>
  </outline>
</glyph>
<glyph name="bar" format="2">
  <advance width="600.0"/>
  <unicode hex="007C"/>
  <outline>
    <contour>
      <point x="189.5" y="-110.0" type="line"/>
      <point x="288.5" y="-110.0" type="line"/>
      <point x="436.5" y="830.0" type="line"/>
      <point x="337.5" y="830.0" type="line"/>
    </contour>
  </outline>
</glyph>
<glyph name="braceright" format="2">
  <advance width="600.0"/>
  <unicode hex="007D"/>
  <outline>
    <contour>
      <point x="22.35" y="-110.15" type="line"/>
      <point x="73.35" y="-110.15" type="line" smooth="yes"/>
      <point x="190.0" y="-110.15"/>
      <point x="273.35" y="-47.35"/>
      <point x="284.2" y="58.7" type="curve" smooth="yes"/>
      <point x="299.75" y="219.85" type="line" smooth="yes"/>
      <point x="306.15" y="286.5"/>
      <point x="331.1" y="315.35"/>
      <point x="410.5" y="315.35" type="curve" smooth="yes"/>
      <point x="522.75" y="315.35" type="line"/>
      <point x="536.25" y="404.35" type="line"/>
      <point x="424.0" y="404.35" type="line" smooth="yes"/>
      <point x="343.75" y="404.35"/>
      <point x="329.5" y="433.2"/>
      <point x="343.75" y="499.85" type="curve" smooth="yes"/>
      <point x="379.45" y="661.9" type="line" smooth="yes"/>
      <point x="402.6" y="767.65"/>
      <point x="338.3" y="830.0"/>
      <point x="221.5" y="830.0" type="curve" smooth="yes"/>
      <point x="170.5" y="830.0" type="line"/>
      <point x="157.0" y="741.0" type="line"/>
      <point x="203.5" y="741.0" type="line" smooth="yes"/>
      <point x="262.75" y="741.0"/>
      <point x="291.7" y="713.8"/>
      <point x="280.0" y="658.9" type="curve" smooth="yes"/>
      <point x="244.3" y="496.85" type="line" smooth="yes"/>
      <point x="225.6" y="411.95"/>
      <point x="269.55" y="357.85"/>
      <point x="356.5" y="357.85" type="curve"/>
      <point x="356.65" y="363.15" type="line"/>
      <point x="270.55" y="363.15"/>
      <point x="209.05" y="307.2"/>
      <point x="201.2" y="222.85" type="curve" smooth="yes"/>
      <point x="185.5" y="60.95" type="line" smooth="yes"/>
      <point x="179.8" y="7.1"/>
      <point x="141.45" y="-21.15"/>
      <point x="82.5" y="-21.15" type="curve" smooth="yes"/>
      <point x="36.0" y="-21.15" type="line"/>
    </contour>
  </outline>
</glyph>
<glyph name="asciitilde" format="2">
  <advance width="600.0"/>
  <unicode hex="007E"/>
  <outline>
    <contour>
      <point x="61.5" y="255.0" type="line"/>
      <point x="151.75" y="255.0" type="line"/>
      <point x="162.9" y="325.75" type="line" smooth="yes"/>
      <point x="168.6" y="359.65"/>
      <point x="187.55" y="377.75"/>
      <point x="216.2" y="377.75" type="curve" smooth="yes"/>
      <point x="284.2" y="377.75"/>
      <point x="268.15" y="246.25"/>
      <point x="396.15" y="246.25" type="curve" smooth="yes"/>
      <point x="476.7" y="246.25"/>
      <point x="537.9" y="299.55"/>
      <point x="550.2" y="377.75" type="curve" smooth="yes"/>
      <point x="561.5" y="450.0" type="line"/>
      <point x="471.25" y="450.0" type="line"/>
      <point x="460.1" y="379.25" type="line" smooth="yes"/>
      <point x="454.55" y="345.35"/>
      <point x="435.6" y="327.25"/>
      <point x="406.95" y="327.25" type="curve" smooth="yes"/>
      <point x="338.95" y="327.25"/>
      <point x="355.85" y="458.75"/>
      <point x="227.85" y="458.75" type="curve" smooth="yes"/>
      <point x="147.45" y="458.75"/>
      <point x="85.95" y="406.3"/>
      <point x="72.95" y="327.25" type="curve" smooth="yes"/>
    </contour>
  </outline>
</glyph>
<glyph name="exclamdown" format="2">
  <advance width="600.0"/>
  <unicode hex="00A1"/>
  <outline>
    <contour>
      <point x="170.1" y="-180.0" type="line"/>
      <point x="283.9" y="-180.0" type="line"/>
      <point x="304.8" y="-49.75" type="line"/>
      <point x="343.85" y="331.35" type="line"/>
      <point x="272.65" y="331.35" type="line"/>
      <point x="191.0" y="-49.75" type="line"/>
    </contour>
    <contour>
      <point x="313.8" y="432.85" type="curve" smooth="yes"/>
      <point x="335.3" y="432.85" type="line" smooth="yes"/>
      <point x="375.2" y="432.85"/>
      <point x="405.8" y="458.3"/>
      <point x="411.95" y="496.05" type="curve" smooth="yes"/>
      <point x="417.95" y="532.95"/>
      <point x="394.65" y="555.85"/>
      <point x="354.75" y="555.85" type="curve" smooth="yes"/>
      <point x="333.4" y="555.85" type="line" smooth="yes"/>
      <point x="293.35" y="555.85"/>
      <point x="262.75" y="532.25"/>
      <point x="257.45" y="495.35" type="curve" smooth="yes"/>
      <point x="251.3" y="458.3"/>
      <point x="273.9" y="432.85"/>
    </contour>
  </outline>
</glyph>
<glyph name="cent" format="2">
  <advance width="600.0"/>
  <unicode hex="00A2"/>
  <anchor x="259.85" y="0.0" name="bottom"/>
  <anchor x="346.85" y="550.0" name="top"/>
  <outline>
    <contour>
      <point x="212.8" y="-140.0" type="line"/>
      <point x="273.55" y="-140.0" type="line"/>
      <point x="404.55" y="690.0" type="line"/>
      <point x="343.8" y="690.0" type="line"/>
    </contour>
    <component base="c"/>
  </outline>
</glyph>
<glyph name="sterling" format="2">
  <advance width="600.0"/>
  <unicode hex="00A3"/>
  <outline>
    <contour>
      <point x="31.0" y="0.0" type="line"/>
      <point x="491.0" y="0.0" type="line"/>
      <point x="505.35" y="89.0" type="line"/>
      <point x="135.35" y="89.0" type="line"/>
      <point x="188.75" y="114.3"/>
      <point x="265.45" y="179.0"/>
      <point x="279.45" y="266.0" type="curve" smooth="yes"/>
      <point x="304.45" y="425.0"/>
      <point x="207.9" y="446.45"/>
      <point x="223.45" y="547.3" type="curve" smooth="yes"/>
      <point x="233.85" y="613.25"/>
      <point x="283.35" y="652.5"/>
      <point x="358.35" y="652.5" type="curve" smooth="yes"/>
      <point x="428.8" y="652.5"/>
      <point x="468.15" y="610.55"/>
      <point x="458.5" y="547.0" type="curve"/>
      <point x="561.75" y="547.0" type="line"/>
      <point x="577.85" y="666.75"/>
      <point x="506.5" y="740.0"/>
      <point x="373.0" y="740.0" type="curve" smooth="yes"/>
      <point x="239.0" y="740.0"/>
      <point x="142.6" y="665.6"/>
      <point x="124.75" y="552.75" type="curve" smooth="yes"/>
      <point x="104.6" y="426.6"/>
      <point x="203.3" y="399.5"/>
      <point x="180.45" y="257.0" type="curve" smooth="yes"/>
      <point x="172.45" y="207.0"/>
      <point x="101.05" y="143.45"/>
      <point x="48.35" y="109.0" type="curve"/>
    </contour>
    <contour>
      <point x="77.05" y="302.0" type="line"/>
      <point x="438.55" y="302.0" type="line"/>
      <point x="452.45" y="388.0" type="line"/>
      <point x="90.95" y="388.0" type="line"/>
    </contour>
  </outline>
</glyph>
<glyph name="currency" format="2">
  <advance width="600.0"/>
  <unicode hex="00A4"/>
  <outline>
    <contour>
      <point x="470.55" y="112.55" type="line"/>
      <point x="543.05" y="174.6" type="line"/>
      <point x="442.05" y="293.9" type="line"/>
      <point x="451.8" y="239.8" type="line"/>
      <point x="486.55" y="276.1"/>
      <point x="511.15" y="321.55"/>
      <point x="520.0" y="373.0" type="curve" smooth="yes"/>
      <point x="529.0" y="424.45"/>
      <point x="518.7" y="471.05"/>
      <point x="494.25" y="506.9" type="curve"/>
      <point x="473.45" y="452.25" type="line"/>
      <point x="603.6" y="564.25" type="line"/>
      <point x="548.55" y="628.6" type="line"/>
      <point x="417.55" y="514.9" type="line"/>
      <point x="474.8" y="526.95" type="line"/>
      <point x="443.9" y="557.55"/>
      <point x="400.75" y="575.0"/>
      <point x="348.0" y="575.0" type="curve" smooth="yes"/>
      <point x="298.25" y="575.0"/>
      <point x="250.35" y="559.25"/>
      <point x="213.35" y="531.8" type="curve"/>
      <point x="263.85" y="513.0" type="line"/>
      <point x="161.3" y="635.15" type="line"/>
      <point x="88.95" y="572.95" type="line"/>
      <point x="189.65" y="452.65" type="line"/>
      <point x="181.9" y="506.6" type="line"/>
      <point x="143.45" y="470.75"/>
      <point x="118.85" y="425.3"/>
      <point x="110.0" y="373.0" type="curve" smooth="yes"/>
      <point x="101.15" y="320.4"/>
      <point x="113.3" y="272.8"/>
      <point x="139.05" y="239.35" type="curve"/>
      <point x="157.85" y="293.15" type="line"/>
      <point x="28.4" y="179.45" type="line"/>
      <point x="82.45" y="113.4" type="line"/>
      <point x="215.75" y="227.4" type="line"/>
      <point x="159.5" y="217.05" type="line"/>
      <point x="189.8" y="187.3"/>
      <point x="232.55" y="171.0"/>
      <point x="284.0" y="171.0" type="curve" smooth="yes"/>
      <point x="333.6" y="171.0"/>
      <point x="382.35" y="186.45"/>
      <point x="419.35" y="215.9" type="curve"/>
      <point x="368.7" y="233.55" type="line"/>
    </contour>
    <contour>
      <point x="295.6" y="243.9" type="curve" smooth="yes"/>
      <point x="222.85" y="243.9"/>
      <point x="176.2" y="299.25"/>
      <point x="187.9" y="373.0" type="curve" smooth="yes"/>
      <point x="199.6" y="446.75"/>
      <point x="263.65" y="502.1"/>
      <point x="336.4" y="502.1" type="curve" smooth="yes"/>
      <point x="408.15" y="502.1"/>
      <point x="453.8" y="446.75"/>
      <point x="442.1" y="373.0" type="curve" smooth="yes"/>
      <point x="430.4" y="299.25"/>
      <point x="367.35" y="243.9"/>
    </contour>
  </outline>
</glyph>
<glyph name="yen" format="2">
  <advance width="600.0"/>
  <unicode hex="00A5"/>
  <anchor x="256.0" y="0.0" name="bottom"/>
  <anchor x="372.0" y="730.0" name="top"/>
  <anchor x="92.0" y="730.0" name="topleft"/>
  <outline>
    <contour>
      <point x="58.7" y="268.5" type="line"/>
      <point x="538.7" y="268.5" type="line"/>
      <point x="551.45" y="348.0" type="line"/>
      <point x="71.45" y="348.0" type="line"/>
    </contour>
    <contour>
      <point x="34.55" y="117.0" type="line"/>
      <point x="514.55" y="117.0" type="line"/>
      <point x="527.15" y="196.5" type="line"/>
      <point x="47.15" y="196.5" type="line"/>
    </contour>
    <component base="Y"/>
  </outline>
</glyph>
<glyph name="brokenbar" format="2">
  <advance width="600.0"/>
  <unicode hex="00A6"/>
  <outline>
    <contour>
      <point x="277.5" y="450.0" type="line"/>
      <point x="376.5" y="450.0" type="line"/>
      <point x="436.5" y="830.0" type="line"/>
      <point x="337.5" y="830.0" type="line"/>
    </contour>
    <contour>
      <point x="189.5" y="-110.0" type="line"/>
      <point x="288.5" y="-110.0" type="line"/>
      <point x="348.5" y="270.0" type="line"/>
      <point x="249.5" y="270.0" type="line"/>
    </contour>
  </outline>
</glyph>
<glyph name="section" format="2">
  <advance width="600.0"/>
  <unicode hex="00A7"/>
  <outline>
    <contour>
      <point x="216.7" y="-154.15" type="curve" smooth="yes"/>
      <point x="246.7" y="-154.15" type="line" smooth="yes"/>
      <point x="381.0" y="-154.15"/>
      <point x="469.8" y="-88.85"/>
      <point x="485.95" y="15.6" type="curve" smooth="yes"/>
      <point x="502.8" y="117.15"/>
      <point x="431.35" y="160.9"/>
      <point x="374.05" y="164.8" type="curve"/>
      <point x="375.05" y="171.8" type="line"/>
      <point x="456.85" y="172.85"/>
      <point x="519.25" y="231.9"/>
      <point x="531.25" y="308.9" type="curve" smooth="yes"/>
      <point x="544.25" y="389.9"/>
      <point x="494.2" y="451.5"/>
      <point x="398.9" y="472.25" type="curve" smooth="yes"/>
      <point x="309.95" y="491.7" type="line" smooth="yes"/>
      <point x="253.9" y="504.25"/>
      <point x="224.85" y="535.6"/>
      <point x="231.55" y="576.8" type="curve" smooth="yes"/>
      <point x="238.4" y="624.55"/>
      <point x="282.15" y="655.2"/>
      <point x="348.35" y="655.2" type="curve" smooth="yes"/>
      <point x="378.35" y="655.2" type="line" smooth="yes"/>
      <point x="429.6" y="655.2"/>
      <point x="464.25" y="630.25"/>
      <point x="467.95" y="593.95" type="curve"/>
      <point x="571.2" y="593.95" type="line"/>
      <point x="571.65" y="682.45"/>
      <point x="500.9" y="740.0"/>
      <point x="391.25" y="740.0" type="curve" smooth="yes"/>
      <point x="361.25" y="740.0" type="line" smooth="yes"/>
      <point x="233.4" y="740.0"/>
      <point x="147.75" y="676.4"/>
      <point x="132.45" y="577.05" type="curve" smooth="yes"/>
      <point x="115.75" y="473.3"/>
      <point x="181.8" y="433.2"/>
      <point x="236.55" y="432.1" type="curve"/>
      <point x="235.55" y="425.1" type="line"/>
      <point x="158.0" y="417.95"/>
      <point x="94.05" y="359.2"/>
      <point x="82.05" y="282.9" type="curve" smooth="yes"/>
      <point x="69.9" y="204.6"/>
      <point x="121.25" y="140.5"/>
      <point x="214.25" y="121.6" type="curve" smooth="yes"/>
      <point x="303.4" y="102.45" type="line" smooth="yes"/>
      <point x="365.9" y="88.75"/>
      <point x="394.55" y="59.25"/>
      <point x="387.0" y="13.65" type="curve" smooth="yes"/>
      <point x="379.15" y="-36.4"/>
      <point x="333.2" y="-69.35"/>
      <point x="259.6" y="-69.35" type="curve" smooth="yes"/>
      <point x="229.6" y="-69.35" type="line" smooth="yes"/>
      <point x="175.25" y="-69.35"/>
      <point x="136.3" y="-41.15"/>
      <point x="131.45" y="0.3" type="curve"/>
      <point x="28.2" y="0.3" type="line"/>
      <point x="27.75" y="-92.9"/>
      <point x="103.05" y="-154.15"/>
    </contour>
    <contour>
      <point x="313.2" y="188.3" type="curve" smooth="yes"/>
      <point x="243.2" y="202.7" type="line" smooth="yes"/>
      <point x="199.7" y="211.4"/>
      <point x="175.6" y="250.5"/>
      <point x="184.3" y="300.6" type="curve" smooth="yes"/>
      <point x="194.3" y="367.55"/>
      <point x="242.65" y="417.55"/>
      <point x="298.6" y="405.7" type="curve" smooth="yes"/>
      <point x="366.9" y="391.15" type="line" smooth="yes"/>
      <point x="412.15" y="381.3"/>
      <point x="437.55" y="343.75"/>
      <point x="429.85" y="297.35" type="curve" smooth="yes"/>
      <point x="419.0" y="228.0"/>
      <point x="370.05" y="176.3"/>
    </contour>
  </outline>
</glyph>
<glyph name="copyright" format="2">
  <advance width="600.0"/>
  <unicode hex="00A9"/>
  <outline>
    <contour>
      <point x="273.0" y="110.0" type="curve" smooth="yes"/>
      <point x="426.0" y="110.0"/>
      <point x="544.0" y="206.0"/>
      <point x="566.0" y="350.0" type="curve" smooth="yes"/>
      <point x="590.0" y="500.0" type="line" smooth="yes"/>
      <point x="613.0" y="644.0"/>
      <point x="526.0" y="740.0"/>
      <point x="373.0" y="740.0" type="curve" smooth="yes"/>
      <point x="220.0" y="740.0"/>
      <point x="103.0" y="644.0"/>
      <point x="80.0" y="500.0" type="curve" smooth="yes"/>
      <point x="56.0" y="350.0" type="line" smooth="yes"/>
      <point x="34.0" y="206.0"/>
      <point x="120.0" y="110.0"/>
    </contour>
    <contour>
      <point x="281.0" y="160.0" type="curve" smooth="yes"/>
      <point x="162.0" y="160.0"/>
      <point x="93.0" y="236.0"/>
      <point x="111.0" y="350.0" type="curve" smooth="yes"/>
      <point x="135.0" y="500.0" type="line" smooth="yes"/>
      <point x="153.0" y="614.0"/>
      <point x="246.0" y="690.0"/>
      <point x="365.0" y="690.0" type="curve" smooth="yes"/>
      <point x="485.0" y="690.0"/>
      <point x="553.0" y="614.0"/>
      <point x="535.0" y="500.0" type="curve" smooth="yes"/>
      <point x="511.0" y="350.0" type="line" smooth="yes"/>
      <point x="493.0" y="236.0"/>
      <point x="401.0" y="160.0"/>
    </contour>
    <contour>
      <point x="300.0" y="245.0" type="curve" smooth="yes"/>
      <point x="374.9" y="245.0"/>
      <point x="432.65" y="291.6"/>
      <point x="443.8" y="361.5" type="curve"/>
      <point x="375.8" y="361.5" type="line"/>
      <point x="369.95" y="326.4"/>
      <point x="343.55" y="303.0"/>
      <point x="309.45" y="303.0" type="curve" smooth="yes"/>
      <point x="274.35" y="303.0"/>
      <point x="253.95" y="326.4"/>
      <point x="259.8" y="361.5" type="curve" smooth="yes"/>
      <point x="280.2" y="488.5" type="line" smooth="yes"/>
      <point x="285.2" y="523.6"/>
      <point x="312.45" y="547.0"/>
      <point x="347.55" y="547.0" type="curve" smooth="yes"/>
      <point x="381.65" y="547.0"/>
      <point x="401.2" y="523.6"/>
      <point x="396.2" y="488.5" type="curve"/>
      <point x="464.2" y="488.5" type="line"/>
      <point x="475.35" y="558.4"/>
      <point x="431.9" y="605.0"/>
      <point x="357.0" y="605.0" type="curve" smooth="yes"/>
      <point x="281.1" y="605.0"/>
      <point x="223.35" y="558.4"/>
      <point x="212.2" y="488.5" type="curve" smooth="yes"/>
      <point x="191.8" y="361.5" type="line" smooth="yes"/>
      <point x="180.65" y="291.6"/>
      <point x="224.1" y="245.0"/>
    </contour>
  </outline>
</glyph>
<glyph name="ordfeminine" format="2">
  <advance width="600.0"/>
  <unicode hex="00AA"/>
  <outline>
    <contour>
      <point x="398.0" y="455.0" type="line"/>
      <point x="449.5" y="455.0" type="line"/>
      <point x="480.5" y="650.0" type="line" smooth="yes"/>
      <point x="489.5" y="705.7"/>
      <point x="449.6" y="740.0"/>
      <point x="378.0" y="740.0" type="curve" smooth="yes"/>
      <point x="312.15" y="740.0"/>
      <point x="264.8" y="710.25"/>
      <point x="249.35" y="659.25" type="curve"/>
      <point x="303.85" y="659.25" type="line"/>
      <point x="310.4" y="681.9"/>
      <point x="338.05" y="697.0"/>
      <point x="371.55" y="697.0" type="curve" smooth="yes"/>
      <point x="409.6" y="697.0"/>
      <point x="430.7" y="679.05"/>
      <point x="426.0" y="650.0" type="curve" smooth="yes"/>
      <point x="404.0" y="510.0" type="line"/>
      <point x="407.0" y="510.0" type="line"/>
    </contour>
    <contour>
      <point x="299.5" y="450.0" type="curve" smooth="yes"/>
      <point x="344.45" y="450.0"/>
      <point x="383.85" y="472.85"/>
      <point x="404.0" y="510.0" type="curve"/>
      <point x="415.0" y="510.0" type="line"/>
      <point x="422.0" y="555.0" type="line"/>
      <point x="411.0" y="555.0" type="line"/>
      <point x="404.3" y="514.8"/>
      <point x="370.2" y="490.55"/>
      <point x="320.45" y="490.55" type="curve" smooth="yes"/>
      <point x="284.55" y="490.55"/>
      <point x="264.3" y="508.1"/>
      <point x="269.15" y="536.6" type="curve" smooth="yes"/>
      <point x="273.0" y="563.7"/>
      <point x="294.95" y="580.1"/>
      <point x="327.85" y="580.1" type="curve" smooth="yes"/>
      <point x="425.85" y="580.1" type="line"/>
      <point x="432.15" y="621.6" type="line"/>
      <point x="334.15" y="621.6" type="line" smooth="yes"/>
      <point x="268.55" y="621.6"/>
      <point x="222.5" y="588.3"/>
      <point x="214.5" y="536.3" type="curve" smooth="yes"/>
      <point x="206.5" y="484.15"/>
      <point x="239.65" y="450.0"/>
    </contour>
  </outline>
</glyph>
<glyph name="guillemetleft" format="2">
  <advance width="600.0"/>
  <unicode hex="00AB"/>
  <outline>
    <contour>
      <point x="421.45" y="40.0" type="line"/>
      <point x="530.1" y="40.0" type="line"/>
      <point x="372.95" y="276.55" type="line"/>
      <point x="614.4" y="520.0" type="line"/>
      <point x="496.9" y="520.0" type="line"/>
      <point x="263.3" y="280.0" type="line"/>
    </contour>
    <contour>
      <point x="185.9" y="40.0" type="line"/>
      <point x="294.55" y="40.0" type="line"/>
      <point x="137.4" y="276.55" type="line"/>
      <point x="378.85" y="520.0" type="line"/>
      <point x="261.35" y="520.0" type="line"/>
      <point x="27.75" y="280.0" type="line"/>
    </contour>
  </outline>
</glyph>
<glyph name="logicalnot" format="2">
  <advance width="600.0"/>
  <unicode hex="00AC"/>
  <outline>
    <contour>
      <point x="422.65" y="200.5" type="line"/>
      <point x="517.4" y="200.5" type="line"/>
      <point x="552.75" y="420.25" type="line"/>
      <point x="92.75" y="420.25" type="line"/>
      <point x="78.4" y="331.25" type="line"/>
      <point x="443.65" y="331.25" type="line"/>
    </contour>
  </outline>
</glyph>
<glyph name="registered" format="2">
  <advance width="600.0"/>
  <unicode hex="00AE"/>
  <outline>
    <contour>
      <point x="273.0" y="110.0" type="curve" smooth="yes"/>
      <point x="426.0" y="110.0"/>
      <point x="543.0" y="206.0"/>
      <point x="566.0" y="350.0" type="curve" smooth="yes"/>
      <point x="590.0" y="500.0" type="line" smooth="yes"/>
      <point x="613.0" y="644.0"/>
      <point x="526.0" y="740.0"/>
      <point x="373.0" y="740.0" type="curve" smooth="yes"/>
      <point x="220.0" y="740.0"/>
      <point x="103.0" y="644.0"/>
      <point x="80.0" y="500.0" type="curve" smooth="yes"/>
      <point x="56.0" y="350.0" type="line" smooth="yes"/>
      <point x="33.0" y="206.0"/>
      <point x="120.0" y="110.0"/>
    </contour>
    <contour>
      <point x="281.0" y="160.0" type="curve" smooth="yes"/>
      <point x="162.0" y="160.0"/>
      <point x="93.0" y="236.0"/>
      <point x="111.0" y="350.0" type="curve" smooth="yes"/>
      <point x="135.0" y="500.0" type="line" smooth="yes"/>
      <point x="153.0" y="614.0"/>
      <point x="246.0" y="690.0"/>
      <point x="365.0" y="690.0" type="curve" smooth="yes"/>
      <point x="485.0" y="690.0"/>
      <point x="553.0" y="614.0"/>
      <point x="535.0" y="500.0" type="curve" smooth="yes"/>
      <point x="511.0" y="350.0" type="line" smooth="yes"/>
      <point x="493.0" y="236.0"/>
      <point x="401.0" y="160.0"/>
    </contour>
    <contour>
      <point x="184.5" y="250.0" type="line"/>
      <point x="247.5" y="250.0" type="line"/>
      <point x="269.35" y="389.25" type="line"/>
      <point x="321.25" y="389.25" type="line"/>
      <point x="358.65" y="250.0" type="line"/>
      <point x="424.5" y="250.0" type="line"/>
      <point x="371.1" y="437.9" type="line"/>
      <point x="352.4" y="392.1" type="line"/>
      <point x="408.3" y="401.8"/>
      <point x="447.35" y="438.8"/>
      <point x="456.5" y="494.25" type="curve" smooth="yes"/>
      <point x="467.35" y="558.55"/>
      <point x="427.6" y="600.0"/>
      <point x="355.0" y="600.0" type="curve" smooth="yes"/>
      <point x="239.5" y="600.0" type="line"/>
    </contour>
    <contour>
      <point x="277.65" y="441.5" type="line"/>
      <point x="294.35" y="548.5" type="line"/>
      <point x="346.85" y="548.5" type="line" smooth="yes"/>
      <point x="380.8" y="548.5"/>
      <point x="398.35" y="528.8"/>
      <point x="392.5" y="495.0" type="curve" smooth="yes"/>
      <point x="387.65" y="461.2"/>
      <point x="364.1" y="441.5"/>
      <point x="330.15" y="441.5" type="curve" smooth="yes"/>
    </contour>
  </outline>
</glyph>
<glyph name="degree" format="2">
  <advance width="600.0"/>
  <unicode hex="00B0"/>
  <outline>
    <contour>
      <point x="327.0" y="450.0" type="curve" smooth="yes"/>
      <point x="417.0" y="450.0"/>
      <point x="486.0" y="508.0"/>
      <point x="500.0" y="595.0" type="curve" smooth="yes"/>
      <point x="514.0" y="682.0"/>
      <point x="463.0" y="740.0"/>
      <point x="373.0" y="740.0" type="curve" smooth="yes"/>
      <point x="283.0" y="740.0"/>
      <point x="214.0" y="682.0"/>
      <point x="200.0" y="595.0" type="curve" smooth="yes"/>
      <point x="186.0" y="508.0"/>
      <point x="237.0" y="450.0"/>
    </contour>
    <contour>
      <point x="334.6" y="503.1" type="curve" smooth="yes"/>
      <point x="282.8" y="503.1"/>
      <point x="253.55" y="540.2"/>
      <point x="262.25" y="595.0" type="curve" smooth="yes"/>
      <point x="271.1" y="650.65"/>
      <point x="312.05" y="687.75"/>
      <point x="363.85" y="687.75" type="curve" smooth="yes"/>
      <point x="417.35" y="687.75"/>
      <point x="446.6" y="650.65"/>
      <point x="437.75" y="595.0" type="curve" smooth="yes"/>
      <point x="429.05" y="540.2"/>
      <point x="388.1" y="503.1"/>
    </contour>
  </outline>
</glyph>
<glyph name="plusminus" format="2">
  <advance width="600.0"/>
  <unicode hex="00B1"/>
  <outline>
    <contour>
      <point x="25.25" y="0.0" type="line"/>
      <point x="486.75" y="0.0" type="line"/>
      <point x="498.8" y="76.15" type="line"/>
      <point x="317.45" y="76.15" type="line"/>
      <point x="351.5" y="289.75" type="line"/>
      <point x="539.35" y="289.75" type="line"/>
      <point x="552.85" y="378.75" type="line"/>
      <point x="365.0" y="378.75" type="line"/>
      <point x="395.4" y="570.0" type="line"/>
      <point x="298.1" y="570.0" type="line"/>
      <point x="267.7" y="378.75" type="line"/>
      <point x="79.85" y="378.75" type="line"/>
      <point x="66.35" y="289.75" type="line"/>
      <point x="254.2" y="289.75" type="line"/>
      <point x="220.15" y="76.15" type="line"/>
      <point x="37.3" y="76.15" type="line"/>
    </contour>
  </outline>
</glyph>
<glyph name="twosuperior" format="2">
  <advance width="600.0"/>
  <unicode hex="00B2"/>
  <outline>
    <contour>
      <point x="184.05" y="405.0" type="line"/>
      <point x="476.95" y="405.0" type="line"/>
      <point x="487.4" y="471.85" type="line"/>
      <point x="272.8" y="471.85" type="line"/>
      <point x="412.05" y="559.8" type="line" smooth="yes"/>
      <point x="468.4" y="595.65"/>
      <point x="505.4" y="648.6"/>
      <point x="513.55" y="697.55" type="curve" smooth="yes"/>
      <point x="526.7" y="784.7"/>
      <point x="478.65" y="840.0"/>
      <point x="387.6" y="840.0" type="curve" smooth="yes"/>
      <point x="299.95" y="840.0"/>
      <point x="233.05" y="783.85"/>
      <point x="215.65" y="695.7" type="curve"/>
      <point x="289.4" y="695.7" type="line"/>
      <point x="297.1" y="744.05"/>
      <point x="331.35" y="774.15"/>
      <point x="377.15" y="774.15" type="curve" smooth="yes"/>
      <point x="422.95" y="774.15"/>
      <point x="447.5" y="744.05"/>
      <point x="439.8" y="695.7" type="curve" smooth="yes"/>
      <point x="434.8" y="665.85"/>
      <point x="412.25" y="634.15"/>
      <point x="381.0" y="613.9" type="curve" smooth="yes"/>
      <point x="198.35" y="493.5" type="line"/>
    </contour>
  </outline>
</glyph>
<glyph name="threesuperior" format="2">
  <advance width="600.0"/>
  <unicode hex="00B3"/>
  <outline>
    <contour>
      <point x="303.0" y="395.0" type="curve" smooth="yes"/>
      <point x="394.75" y="395.0"/>
      <point x="460.95" y="449.3"/>
      <point x="475.1" y="536.05" type="curve" smooth="yes"/>
      <point x="488.1" y="617.75"/>
      <point x="439.95" y="669.75"/>
      <point x="352.7" y="669.75" type="curve"/>
      <point x="348.4" y="638.4" type="line"/>
      <point x="481.5" y="752.05" type="line"/>
      <point x="494.65" y="830.85" type="line"/>
      <point x="251.05" y="830.85" type="line"/>
      <point x="239.75" y="764.0" type="line"/>
      <point x="419.3" y="764.0" type="line"/>
      <point x="318.0" y="677.55" type="line"/>
      <point x="307.85" y="610.7" type="line"/>
      <point x="337.85" y="610.7" type="line" smooth="yes"/>
      <point x="382.95" y="610.7"/>
      <point x="406.5" y="582.3"/>
      <point x="399.65" y="536.05" type="curve" smooth="yes"/>
      <point x="391.8" y="489.5"/>
      <point x="359.55" y="460.85"/>
      <point x="313.45" y="460.85" type="curve" smooth="yes"/>
      <point x="265.5" y="460.85"/>
      <point x="239.8" y="489.5"/>
      <point x="247.65" y="535.75" type="curve"/>
      <point x="174.75" y="535.75" type="line"/>
      <point x="160.6" y="449.3"/>
      <point x="210.95" y="395.0"/>
    </contour>
  </outline>
</glyph>
<glyph name="paragraph" format="2">
  <advance width="600.0"/>
  <unicode hex="00B6"/>
  <outline>
    <contour>
      <point x="179.75" y="-180.0" type="line"/>
      <point x="264.25" y="-180.0" type="line"/>
      <point x="409.25" y="730.0" type="line"/>
      <point x="324.75" y="730.0" type="line" smooth="yes"/>
      <point x="210.75" y="730.0"/>
      <point x="123.75" y="662.0"/>
      <point x="107.75" y="560.0" type="curve" smooth="yes"/>
      <point x="94.75" y="480.0" type="line" smooth="yes"/>
      <point x="78.75" y="378.0"/>
      <point x="143.75" y="310.0"/>
      <point x="257.75" y="310.0" type="curve"/>
    </contour>
    <contour>
      <point x="351.25" y="-180.0" type="line"/>
      <point x="435.75" y="-180.0" type="line"/>
      <point x="580.75" y="730.0" type="line"/>
      <point x="496.25" y="730.0" type="line"/>
    </contour>
  </outline>
</glyph>
<glyph name="onesuperior" format="2">
  <advance width="600.0"/>
  <unicode hex="00B9"/>
  <outline>
    <contour>
      <point x="173.5" y="405.0" type="line"/>
      <point x="482.25" y="405.0" type="line"/>
      <point x="492.85" y="472.15" type="line"/>
      <point x="389.15" y="472.15" type="line"/>
      <point x="445.55" y="830.0" type="line"/>
      <point x="346.8" y="830.0" type="line"/>
      <point x="238.5" y="758.55" type="line"/>
      <point x="225.9" y="676.7" type="line"/>
      <point x="361.35" y="764.0" type="line"/>
      <point x="315.4" y="472.15" type="line"/>
      <point x="184.1" y="472.15" type="line"/>
    </contour>
  </outline>
</glyph>
<glyph name="ordmasculine" format="2">
  <advance width="600.0"/>
  <unicode hex="00BA"/>
  <outline>
    <contour>
      <point x="326.15" y="445.75" type="curve" smooth="yes"/>
      <point x="396.95" y="445.75"/>
      <point x="451.45" y="489.25"/>
      <point x="461.45" y="553.15" type="curve" smooth="yes"/>
      <point x="473.7" y="628.5" type="line" smooth="yes"/>
      <point x="484.0" y="692.85"/>
      <point x="442.95" y="735.75"/>
      <point x="372.15" y="735.75" type="curve" smooth="yes"/>
      <point x="301.35" y="735.75"/>
      <point x="248.0" y="692.85"/>
      <point x="237.7" y="628.5" type="curve" smooth="yes"/>
      <point x="225.45" y="553.15" type="line" smooth="yes"/>
      <point x="215.45" y="489.25"/>
      <point x="255.35" y="445.75"/>
    </contour>
    <contour>
      <point x="333.75" y="490.25" type="curve" smooth="yes"/>
      <point x="295.65" y="490.25"/>
      <point x="274.25" y="515.35"/>
      <point x="279.95" y="553.15" type="curve" smooth="yes"/>
      <point x="292.2" y="628.5" type="line" smooth="yes"/>
      <point x="298.05" y="666.15"/>
      <point x="327.3" y="691.25"/>
      <point x="365.4" y="691.25" type="curve" smooth="yes"/>
      <point x="403.5" y="691.25"/>
      <point x="425.05" y="666.15"/>
      <point x="419.2" y="628.5" type="curve" smooth="yes"/>
      <point x="406.95" y="553.15" type="line" smooth="yes"/>
      <point x="401.25" y="515.35"/>
      <point x="371.85" y="490.25"/>
    </contour>
  </outline>
</glyph>
<glyph name="guillemetright" format="2">
  <advance width="600.0"/>
  <unicode hex="00BB"/>
  <outline>
    <contour>
      <point x="222.0" y="40.0" type="line"/>
      <point x="338.65" y="40.0" type="line"/>
      <point x="572.25" y="280.0" type="line"/>
      <point x="414.1" y="520.0" type="line"/>
      <point x="305.45" y="520.0" type="line"/>
      <point x="461.45" y="286.15" type="line"/>
    </contour>
    <contour>
      <point x="-13.55" y="40.0" type="line"/>
      <point x="103.1" y="40.0" type="line"/>
      <point x="336.7" y="280.0" type="line"/>
      <point x="178.55" y="520.0" type="line"/>
      <point x="69.9" y="520.0" type="line"/>
      <point x="225.9" y="286.15" type="line"/>
    </contour>
  </outline>
</glyph>
<glyph name="onequarter" format="2">
  <advance width="600.0"/>
  <unicode hex="00BC"/>
  <outline>
    <contour>
      <point x="51.05" y="404.85" type="line"/>
      <point x="328.9" y="404.85" type="line"/>
      <point x="337.5" y="458.6" type="line"/>
      <point x="241.55" y="458.6" type="line"/>
      <point x="284.8" y="729.85" type="line"/>
      <point x="195.3" y="729.85" type="line"/>
      <point x="114.85" y="669.9" type="line"/>
      <point x="103.1" y="595.7" type="line"/>
      <point x="172.95" y="648.65" type="line" smooth="yes"/>
      <point x="189.95" y="661.5"/>
      <point x="205.55" y="677.95"/>
      <point x="213.0" y="687.4" type="curve"/>
      <point x="177.05" y="458.6" type="line"/>
      <point x="59.65" y="458.6" type="line"/>
    </contour>
    <contour>
      <point x="432.85" y="0.0" type="line"/>
      <point x="497.35" y="0.0" type="line"/>
      <point x="530.2" y="208.4" type="line"/>
      <point x="465.7" y="208.4" type="line"/>
      <point x="452.15" y="121.5" type="line"/>
      <point x="343.15" y="121.5" type="line"/>
      <point x="346.0" y="137.5" type="line"/>
      <point x="509.85" y="325.0" type="line"/>
      <point x="436.35" y="325.0" type="line"/>
      <point x="283.5" y="151.5" type="line"/>
      <point x="270.2" y="68.5" type="line"/>
      <point x="443.7" y="68.5" type="line"/>
    </contour>
    <component base="fraction"/>
  </outline>
</glyph>
<glyph name="onehalf" format="2">
  <advance width="600.0"/>
  <unicode hex="00BD"/>
  <outline>
    <contour>
      <point x="270.25" y="0.0" type="line"/>
      <point x="528.25" y="0.0" type="line"/>
      <point x="536.85" y="53.75" type="line"/>
      <point x="429.2" y="53.75" type="line" smooth="yes"/>
      <point x="401.85" y="53.75"/>
      <point x="370.45" y="49.05"/>
      <point x="355.45" y="46.2" type="curve"/>
      <point x="356.6" y="56.05" type="line"/>
      <point x="451.75" y="104.9" type="line" smooth="yes"/>
      <point x="513.55" y="136.5"/>
      <point x="551.4" y="177.45"/>
      <point x="558.4" y="219.35" type="curve" smooth="yes"/>
      <point x="568.4" y="285.6"/>
      <point x="524.8" y="330.0"/>
      <point x="449.2" y="330.0" type="curve" smooth="yes"/>
      <point x="375.85" y="330.0"/>
      <point x="317.8" y="284.7"/>
      <point x="304.25" y="216.0" type="curve"/>
      <point x="368.75" y="216.0" type="line"/>
      <point x="374.45" y="253.05"/>
      <point x="403.25" y="277.0"/>
      <point x="440.75" y="277.0" type="curve" smooth="yes"/>
      <point x="477.65" y="277.0"/>
      <point x="498.6" y="253.35"/>
      <point x="492.9" y="216.45" type="curve" smooth="yes"/>
      <point x="489.05" y="188.8"/>
      <point x="463.15" y="163.6"/>
      <point x="415.6" y="138.4" type="curve" smooth="yes"/>
      <point x="280.85" y="67.75" type="line"/>
    </contour>
    <contour>
      <point x="51.05" y="405.0" type="line"/>
      <point x="337.4" y="405.0" type="line"/>
      <point x="346.0" y="458.75" type="line"/>
      <point x="241.55" y="458.75" type="line"/>
      <point x="284.95" y="730.0" type="line"/>
      <point x="195.45" y="730.0" type="line"/>
      <point x="114.85" y="670.05" type="line"/>
      <point x="103.25" y="595.85" type="line"/>
      <point x="172.95" y="648.8" type="line" smooth="yes"/>
      <point x="189.95" y="661.65"/>
      <point x="205.55" y="678.1"/>
      <point x="213.0" y="687.55" type="curve"/>
      <point x="177.05" y="458.75" type="line"/>
      <point x="59.65" y="458.75" type="line"/>
    </contour>
    <component base="fraction"/>
  </outline>
</glyph>
<glyph name="threequarters" format="2">
  <advance width="600.0"/>
  <unicode hex="00BE"/>
  <outline>
    <contour>
      <point x="432.85" y="0.0" type="line"/>
      <point x="497.35" y="0.0" type="line"/>
      <point x="530.2" y="208.4" type="line"/>
      <point x="465.7" y="208.4" type="line"/>
      <point x="452.15" y="121.5" type="line"/>
      <point x="343.15" y="121.5" type="line"/>
      <point x="346.0" y="137.5" type="line"/>
      <point x="509.85" y="325.0" type="line"/>
      <point x="436.35" y="325.0" type="line"/>
      <point x="283.5" y="151.5" type="line"/>
      <point x="270.2" y="68.5" type="line"/>
      <point x="443.7" y="68.5" type="line"/>
    </contour>
    <contour>
      <point x="173.15" y="400.0" type="curve" smooth="yes"/>
      <point x="250.05" y="400.0"/>
      <point x="308.5" y="442.3"/>
      <point x="318.65" y="505.75" type="curve" smooth="yes"/>
      <point x="328.5" y="568.3"/>
      <point x="286.1" y="610.0"/>
      <point x="213.7" y="610.0" type="curve"/>
      <point x="210.55" y="591.7" type="line"/>
      <point x="329.5" y="673.95" type="line"/>
      <point x="338.65" y="730.0" type="line"/>
      <point x="120.65" y="730.0" type="line"/>
      <point x="112.2" y="677.75" type="line"/>
      <point x="266.85" y="677.75" type="line"/>
      <point x="179.15" y="616.85" type="line"/>
      <point x="169.85" y="558.5" type="line"/>
      <point x="199.85" y="558.5" type="line" smooth="yes"/>
      <point x="237.05" y="558.5"/>
      <point x="259.0" y="537.4"/>
      <point x="254.15" y="505.75" type="curve" smooth="yes"/>
      <point x="249.3" y="474.1"/>
      <point x="219.8" y="453.0"/>
      <point x="181.6" y="453.0" type="curve" smooth="yes"/>
      <point x="142.4" y="453.0"/>
      <point x="120.45" y="473.8"/>
      <point x="125.15" y="505.0" type="curve"/>
      <point x="60.65" y="505.0" type="line"/>
      <point x="50.65" y="442.0"/>
      <point x="95.25" y="400.0"/>
    </contour>
    <component base="fraction"/>
  </outline>
</glyph>
<glyph name="questiondown" format="2">
  <advance width="600.0"/>
  <unicode hex="00BF"/>
  <outline>
    <contour>
      <point x="267.5" y="-170.0" type="curve" smooth="yes"/>
      <point x="397.0" y="-170.0" type="line"/>
      <point x="412.2" y="-76.75" type="line"/>
      <point x="281.2" y="-76.75" type="line" smooth="yes"/>
      <point x="198.85" y="-76.75"/>
      <point x="155.25" y="-32.9"/>
      <point x="166.5" y="40.0" type="curve" smooth="yes"/>
      <point x="178.6" y="112.9"/>
      <point x="235.3" y="156.75"/>
      <point x="316.65" y="156.75" type="curve" smooth="yes"/>
      <point x="374.15" y="156.75" type="line"/>
      <point x="403.15" y="342.0" type="line"/>
      <point x="307.9" y="342.0" type="line"/>
      <point x="291.65" y="240.75" type="line"/>
      <point x="176.0" y="235.65"/>
      <point x="85.8" y="155.35"/>
      <point x="67.5" y="40.0" type="curve" smooth="yes"/>
      <point x="47.5" y="-88.55"/>
      <point x="124.3" y="-170.0"/>
    </contour>
    <contour>
      <point x="360.45" y="432.0" type="curve" smooth="yes"/>
      <point x="381.95" y="432.0" type="line" smooth="yes"/>
      <point x="421.85" y="432.0"/>
      <point x="452.45" y="457.45"/>
      <point x="458.6" y="495.2" type="curve" smooth="yes"/>
      <point x="463.75" y="532.1"/>
      <point x="441.3" y="555.0"/>
      <point x="401.4" y="555.0" type="curve" smooth="yes"/>
      <point x="380.05" y="555.0" type="line" smooth="yes"/>
      <point x="340.0" y="555.0"/>
      <point x="309.4" y="531.4"/>
      <point x="304.1" y="494.5" type="curve" smooth="yes"/>
      <point x="297.95" y="457.45"/>
      <point x="320.55" y="432.0"/>
    </contour>
  </outline>
</glyph>
<glyph name="AE" format="2">
  <advance width="600.0"/>
  <unicode hex="00C6"/>
  <anchor x="256.0" y="0.0" name="bottom"/>
  <anchor x="372.0" y="730.0" name="top"/>
  <outline>
    <contour>
      <point x="-18.5" y="0.0" type="line"/>
      <point x="80.3" y="0.0" type="line"/>
      <point x="149.3" y="197.3" type="line"/>
      <point x="287.45" y="197.3" type="line"/>
      <point x="256.35" y="0.0" type="line"/>
      <point x="527.5" y="0.0" type="line"/>
      <point x="541.55" y="88.6" type="line"/>
      <point x="362.25" y="88.6" type="line"/>
      <point x="401.3" y="333.05" type="line"/>
      <point x="555.6" y="333.05" type="line"/>
      <point x="569.8" y="422.4" type="line"/>
      <point x="415.5" y="422.4" type="line"/>
      <point x="450.15" y="641.55" type="line"/>
      <point x="629.45" y="641.55" type="line"/>
      <point x="643.5" y="730.0" type="line"/>
      <point x="241.3" y="730.0" type="line"/>
    </contour>
    <contour>
      <point x="176.5" y="276.8" type="line"/>
      <point x="303.35" y="641.55" type="line"/>
      <point x="358.3" y="641.55" type="line"/>
      <point x="300.2" y="276.8" type="line"/>
    </contour>
  </outline>
</glyph>
<glyph name="Ccedilla" format="2">
  <advance width="600.0"/>
  <unicode hex="00C7"/>
  <anchor x="261.0" y="0.0" name="bottom"/>
  <anchor x="377.0" y="730.0" name="top"/>
  <outline>
    <contour>
      <point x="131.9" y="-206.3" type="line"/>
      <point x="220.65" y="-206.3" type="line" smooth="yes"/>
      <point x="294.45" y="-206.3"/>
      <point x="349.8" y="-168.4"/>
      <point x="356.95" y="-121.95" type="curve" smooth="yes"/>
      <point x="365.25" y="-68.6"/>
      <point x="300.15" y="-41.3"/>
      <point x="246.95" y="-35.6" type="curve"/>
      <point x="277.5" y="24.5" type="line"/>
      <point x="218.1" y="24.5" type="line"/>
      <point x="168.25" y="-69.0" type="line"/>
      <point x="236.15" y="-69.0"/>
      <point x="271.9" y="-88.85"/>
      <point x="267.75" y="-113.05" type="curve" smooth="yes"/>
      <point x="264.9" y="-130.75"/>
      <point x="242.3" y="-149.05"/>
      <point x="212.7" y="-149.05" type="curve" smooth="yes"/>
      <point x="141.2" y="-149.05" type="line"/>
    </contour>
    <component base="C"/>
  </outline>
</glyph>
<glyph name="multiply" format="2">
  <advance width="600.0"/>
  <unicode hex="00D7"/>
  <outline>
    <contour>
      <point x="137.85" y="129.75" type="line"/>
      <point x="298.8" y="269.45" type="line"/>
      <point x="414.4" y="131.45" type="line"/>
      <point x="481.25" y="189.1" type="line"/>
      <point x="364.95" y="326.4" type="line"/>
      <point x="529.45" y="468.2" type="line"/>
      <point x="477.85" y="529.85" type="line"/>
      <point x="313.5" y="387.75" type="line"/>
      <point x="197.9" y="524.75" type="line"/>
      <point x="131.9" y="467.95" type="line"/>
      <point x="246.35" y="329.8" type="line"/>
      <point x="86.25" y="191.4" type="line"/>
    </contour>
  </outline>
</glyph>
<glyph name="Oslash" format="2">
  <advance width="600.0"/>
  <unicode hex="00D8"/>
  <anchor x="256.0" y="0.0" name="bottom"/>
  <anchor x="392.0" y="730.0" name="horn"/>
  <anchor x="372.0" y="730.0" name="top"/>
  <outline>
    <contour>
      <point x="-18.0" y="-40.0" type="line"/>
      <point x="72.8" y="-40.0" type="line"/>
      <point x="643.0" y="750.0" type="line"/>
      <point x="552.2" y="750.0" type="line"/>
    </contour>
    <contour>
      <point x="254.0" y="-10.0" type="curve" smooth="yes"/>
      <point x="387.4" y="-10.0"/>
      <point x="483.35" y="70.35"/>
      <point x="504.35" y="201.5" type="curve" smooth="yes"/>
      <point x="555.9" y="529.35" type="line" smooth="yes"/>
      <point x="576.05" y="659.65"/>
      <point x="506.4" y="740.0"/>
      <point x="373.0" y="740.0" type="curve" smooth="yes"/>
      <point x="239.6" y="740.0"/>
      <point x="144.5" y="659.65"/>
      <point x="123.5" y="528.5" type="curve" smooth="yes"/>
      <point x="71.95" y="201.5" type="line" smooth="yes"/>
      <point x="50.95" y="70.35"/>
      <point x="120.6" y="-10.0"/>
    </contour>
    <contour>
      <point x="268.2" y="78.35" type="curve" smooth="yes"/>
      <point x="192.75" y="78.35"/>
      <point x="157.8" y="122.25"/>
      <point x="170.2" y="201.5" type="curve" smooth="yes"/>
      <point x="221.75" y="528.5" type="line" smooth="yes"/>
      <point x="234.3" y="607.75"/>
      <point x="283.5" y="651.65"/>
      <point x="358.95" y="651.65" type="curve" smooth="yes"/>
      <point x="434.4" y="651.65"/>
      <point x="470.2" y="607.75"/>
      <point x="457.65" y="528.5" type="curve" smooth="yes"/>
      <point x="406.1" y="201.5" type="line" smooth="yes"/>
      <point x="393.7" y="122.25"/>
      <point x="343.65" y="78.35"/>
    </contour>
  </outline>
</glyph>
<glyph name="Thorn" format="2">
  <advance width="600.0"/>
  <unicode hex="00DE"/>
  <outline>
    <contour>
      <point x="43.0" y="0.0" type="line"/>
      <point x="142.0" y="0.0" type="line"/>
      <point x="170.55" y="177.75" type="line"/>
      <point x="318.6" y="177.75" type="line" smooth="yes"/>
      <point x="452.25" y="177.75"/>
      <point x="549.7" y="256.2"/>
      <point x="569.0" y="380.0" type="curve" smooth="yes"/>
      <point x="588.45" y="502.25"/>
      <point x="515.3" y="582.25"/>
      <point x="382.35" y="582.25" type="curve" smooth="yes"/>
      <point x="234.3" y="582.25" type="line"/>
      <point x="258.0" y="730.0" type="line"/>
      <point x="159.0" y="730.0" type="line"/>
    </contour>
    <contour>
      <point x="183.75" y="264.5" type="line"/>
      <point x="220.25" y="495.5" type="line"/>
      <point x="364.55" y="495.5" type="line" smooth="yes"/>
      <point x="439.35" y="495.5"/>
      <point x="479.0" y="451.6"/>
      <point x="467.45" y="380.0" type="curve" smooth="yes"/>
      <point x="455.9" y="308.4"/>
      <point x="403.7" y="264.5"/>
      <point x="328.05" y="264.5" type="curve" smooth="yes"/>
    </contour>
  </outline>
</glyph>
<glyph name="germandbls" format="2">
  <advance width="600.0"/>
  <unicode hex="00DF"/>
  <outline>
    <contour>
      <point x="-132.0" y="-180.0" type="line"/>
      <point x="-69.6" y="-180.0" type="line" smooth="yes"/>
      <point x="43.35" y="-180.0"/>
      <point x="121.25" y="-117.05"/>
      <point x="137.7" y="-14.9" type="curve" smooth="yes"/>
      <point x="224.5" y="531.3" type="line" smooth="yes"/>
      <point x="236.2" y="605.9"/>
      <point x="288.7" y="651.55"/>
      <point x="360.75" y="651.55" type="curve" smooth="yes"/>
      <point x="432.1" y="651.55"/>
      <point x="470.2" y="607.6"/>
      <point x="458.65" y="533.15" type="curve" smooth="yes"/>
      <point x="447.95" y="464.55"/>
      <point x="396.05" y="415.25"/>
      <point x="324.75" y="415.25" type="curve" smooth="yes"/>
      <point x="282.3" y="415.25" type="line"/>
      <point x="269.4" y="332.45" type="line"/>
      <point x="313.85" y="332.45" type="line" smooth="yes"/>
      <point x="392.15" y="332.45"/>
      <point x="432.95" y="286.95"/>
      <point x="420.4" y="212.5" type="curve" smooth="yes"/>
      <point x="408.7" y="138.05"/>
      <point x="352.95" y="88.45"/>
      <point x="275.35" y="88.45" type="curve" smooth="yes"/>
      <point x="220.7" y="88.45" type="line"/>
      <point x="206.65" y="0.0" type="line"/>
      <point x="270.55" y="0.0" type="line" smooth="yes"/>
      <point x="402.55" y="0.0"/>
      <point x="504.35" y="85.7"/>
      <point x="523.5" y="208.15" type="curve" smooth="yes"/>
      <point x="541.5" y="324.55"/>
      <point x="477.0" y="399.55"/>
      <point x="360.5" y="397.55" type="curve"/>
      <point x="358.35" y="382.55" type="line"/>
      <point x="467.2" y="380.85"/>
      <point x="548.35" y="451.05"/>
      <point x="564.35" y="552.65" type="curve" smooth="yes"/>
      <point x="583.35" y="672.2"/>
      <point x="506.4" y="740.0"/>
      <point x="376.75" y="740.0" type="curve" smooth="yes"/>
      <point x="244.85" y="740.0"/>
      <point x="147.9" y="656.8"/>
      <point x="127.75" y="531.3" type="curve" smooth="yes"/>
      <point x="41.1" y="-14.15" type="line" smooth="yes"/>
      <point x="33.1" y="-66.4"/>
      <point x="1.1500000000000004" y="-92.3"/>
      <point x="-55.6" y="-92.3" type="curve" smooth="yes"/>
      <point x="-118.1" y="-92.3" type="line"/>
    </contour>
  </outline>
</glyph>
<glyph name="ae" format="2">
  <advance width="600.0"/>
  <unicode hex="00E6"/>
  <anchor x="343.0" y="550.0" name="top"/>
  <outline>
    <contour>
      <point x="124.3" y="-10.0" type="curve" smooth="yes"/>
      <point x="208.7" y="-10.0"/>
      <point x="256.1" y="35.55"/>
      <point x="267.1" y="69.25" type="curve"/>
      <point x="271.7" y="69.25" type="line"/>
      <point x="271.7" y="35.55"/>
      <point x="298.7" y="-10.0"/>
      <point x="374.0" y="-10.0" type="curve" smooth="yes"/>
      <point x="461.0" y="-10.0"/>
      <point x="528.15" y="46.6"/>
      <point x="542.15" y="131.5" type="curve"/>
      <point x="452.65" y="131.5" type="line"/>
      <point x="445.95" y="93.25"/>
      <point x="417.45" y="70.0"/>
      <point x="376.55" y="70.0" type="curve" smooth="yes"/>
      <point x="338.2" y="70.0"/>
      <point x="317.25" y="101.05"/>
      <point x="324.8" y="148.5" type="curve" smooth="yes"/>
      <point x="341.1" y="254.25" type="line"/>
      <point x="561.0" y="254.25" type="line"/>
      <point x="584.3" y="401.5" type="line" smooth="yes"/>
      <point x="600.0" y="499.15"/>
      <point x="554.55" y="560.0"/>
      <point x="465.0" y="560.0" type="curve" smooth="yes"/>
      <point x="390.55" y="560.0"/>
      <point x="347.85" y="514.45"/>
      <point x="337.0" y="480.75" type="curve"/>
      <point x="332.4" y="480.75" type="line"/>
      <point x="331.55" y="514.45"/>
      <point x="302.85" y="560.0"/>
      <point x="225.15" y="560.0" type="curve" smooth="yes"/>
      <point x="143.95" y="560.0"/>
      <point x="81.05" y="502.8"/>
      <point x="67.6" y="417.0" type="curve"/>
      <point x="157.1" y="417.0" type="line"/>
      <point x="163.25" y="455.3"/>
      <point x="190.2" y="480.0"/>
      <point x="227.15" y="480.0" type="curve" smooth="yes"/>
      <point x="270.45" y="480.0"/>
      <point x="286.85" y="454.9"/>
      <point x="278.45" y="400.65" type="curve" smooth="yes"/>
      <point x="266.3" y="325.75" type="line"/>
      <point x="196.95" y="325.75" type="line" smooth="yes"/>
      <point x="103.05" y="325.75"/>
      <point x="34.0" y="272.3"/>
      <point x="21.0" y="190.0" type="curve" smooth="yes"/>
      <point x="12.15" y="131.5" type="line" smooth="yes"/>
      <point x="-1.85" y="44.9"/>
      <point x="41.45" y="-10.0"/>
    </contour>
    <contour>
      <point x="158.8" y="70.0" type="curve" smooth="yes"/>
      <point x="120.15" y="70.0"/>
      <point x="99.2" y="93.4"/>
      <point x="105.9" y="131.5" type="curve" smooth="yes"/>
      <point x="114.75" y="190.0" type="line" smooth="yes"/>
      <point x="120.75" y="229.7"/>
      <point x="148.0" y="254.25"/>
      <point x="187.5" y="254.25" type="curve" smooth="yes"/>
      <point x="255.15" y="254.25" type="line"/>
      <point x="238.85" y="148.5" type="line" smooth="yes"/>
      <point x="231.3" y="101.05"/>
      <point x="199.55" y="70.0"/>
    </contour>
    <contour>
      <point x="352.25" y="325.75" type="line"/>
      <point x="364.4" y="401.5" type="line" smooth="yes"/>
      <point x="371.95" y="448.95"/>
      <point x="400.45" y="480.0"/>
      <point x="440.65" y="480.0" type="curve" smooth="yes"/>
      <point x="482.4" y="480.0"/>
      <point x="502.5" y="449.1"/>
      <point x="494.8" y="401.5" type="curve" smooth="yes"/>
      <point x="482.65" y="325.75" type="line"/>
    </contour>
  </outline>
</glyph>
<glyph name="ccedilla" format="2">
  <advance width="600.0"/>
  <unicode hex="00E7"/>
  <anchor x="259.85" y="0.0" name="_bottom"/>
  <anchor x="259.85" y="0.0" name="bottom"/>
  <anchor x="346.85" y="550.0" name="top"/>
  <outline>
    <contour>
      <point x="130.0" y="-206.3" type="line"/>
      <point x="218.75" y="-206.3" type="line" smooth="yes"/>
      <point x="292.55" y="-206.3"/>
      <point x="347.9" y="-168.4"/>
      <point x="355.05" y="-121.95" type="curve" smooth="yes"/>
      <point x="363.35" y="-68.6"/>
      <point x="298.25" y="-41.3"/>
      <point x="245.05" y="-35.6" type="curve"/>
      <point x="275.6" y="24.5" type="line"/>
      <point x="216.2" y="24.5" type="line"/>
      <point x="166.35" y="-69.0" type="line"/>
      <point x="234.25" y="-69.0"/>
      <point x="270.0" y="-88.85"/>
      <point x="265.85" y="-113.05" type="curve" smooth="yes"/>
      <point x="263.0" y="-130.75"/>
      <point x="240.4" y="-149.05"/>
      <point x="210.8" y="-149.05" type="curve" smooth="yes"/>
      <point x="139.3" y="-149.05" type="line"/>
    </contour>
    <component base="c"/>
  </outline>
</glyph>
<glyph name="eth" format="2">
  <advance width="600.0"/>
  <unicode hex="00F0"/>
  <outline>
    <contour>
      <point x="253.45" y="-8.5" type="curve" smooth="yes"/>
      <point x="395.45" y="-8.5"/>
      <point x="503.8" y="84.95"/>
      <point x="526.25" y="227.2" type="curve" smooth="yes"/>
      <point x="540.1" y="312.35"/>
      <point x="519.65" y="412.85"/>
      <point x="468.1" y="499.6" type="curve" smooth="yes"/>
      <point x="406.7" y="604.0" type="line"/>
      <point x="525.65" y="651.2" type="line"/>
      <point x="538.1" y="736.8" type="line"/>
      <point x="369.0" y="670.85" type="line"/>
      <point x="336.35" y="730.0" type="line"/>
      <point x="232.65" y="730.0" type="line"/>
      <point x="287.35" y="634.35" type="line"/>
      <point x="163.1" y="581.65" type="line"/>
      <point x="149.8" y="496.75" type="line"/>
      <point x="324.9" y="567.35" type="line"/>
      <point x="373.55" y="481.35" type="line" smooth="yes"/>
      <point x="404.25" y="427.3"/>
      <point x="419.05" y="391.05"/>
      <point x="422.15" y="379.25" type="curve"/>
      <point x="409.35" y="379.25" type="line"/>
      <point x="397.9" y="404.9"/>
      <point x="360.4" y="439.0"/>
      <point x="300.75" y="439.0" type="curve" smooth="yes"/>
      <point x="174.65" y="439.0"/>
      <point x="76.95" y="351.0"/>
      <point x="55.95" y="218.15" type="curve" smooth="yes"/>
      <point x="34.8" y="82.1"/>
      <point x="113.45" y="-8.5"/>
    </contour>
    <contour>
      <point x="267.5" y="78.25" type="curve" smooth="yes"/>
      <point x="186.9" y="78.25"/>
      <point x="141.55" y="134.0"/>
      <point x="154.95" y="218.0" type="curve" smooth="yes"/>
      <point x="168.5" y="302.0"/>
      <point x="231.25" y="357.75"/>
      <point x="311.85" y="357.75" type="curve" smooth="yes"/>
      <point x="394.0" y="357.75"/>
      <point x="439.5" y="301.85"/>
      <point x="425.95" y="218.0" type="curve" smooth="yes"/>
      <point x="412.55" y="134.0"/>
      <point x="349.8" y="78.25"/>
    </contour>
  </outline>
</glyph>
<glyph name="divide" format="2">
  <advance width="600.0"/>
  <unicode hex="00F7"/>
  <outline>
    <contour>
      <point x="102.25" y="289.75" type="line"/>
      <point x="502.25" y="289.75" type="line"/>
      <point x="515.75" y="374.5" type="line"/>
      <point x="115.75" y="374.5" type="line"/>
    </contour>
    <contour>
      <point x="329.15" y="460.0" type="curve" smooth="yes"/>
      <point x="380.65" y="460.0"/>
      <point x="419.85" y="490.9"/>
      <point x="427.0" y="537.25" type="curve" smooth="yes"/>
      <point x="434.3" y="583.6"/>
      <point x="405.25" y="614.5"/>
      <point x="353.75" y="614.5" type="curve" smooth="yes"/>
      <point x="302.25" y="614.5"/>
      <point x="263.2" y="583.6"/>
      <point x="255.9" y="537.25" type="curve" smooth="yes"/>
      <point x="248.75" y="490.9"/>
      <point x="277.65" y="460.0"/>
    </contour>
    <contour>
      <point x="264.25" y="49.75" type="curve" smooth="yes"/>
      <point x="315.75" y="49.75"/>
      <point x="354.95" y="80.65"/>
      <point x="362.1" y="127.0" type="curve" smooth="yes"/>
      <point x="369.4" y="173.35"/>
      <point x="340.5" y="204.25"/>
      <point x="289.0" y="204.25" type="curve" smooth="yes"/>
      <point x="237.5" y="204.25"/>
      <point x="198.3" y="173.35"/>
      <point x="191.0" y="127.0" type="curve" smooth="yes"/>
      <point x="183.85" y="80.65"/>
      <point x="212.75" y="49.75"/>
    </contour>
  </outline>
</glyph>
<glyph name="oslash" format="2">
  <advance width="600.0"/>
  <unicode hex="00F8"/>
  <anchor x="256.0" y="0.0" name="bottom"/>
  <anchor x="373.2" y="550.0" name="horn"/>
  <anchor x="343.0" y="550.0" name="top"/>
  <outline>
    <contour>
      <point x="-15.5" y="-30.0" type="line"/>
      <point x="79.95" y="-30.0" type="line"/>
      <point x="615.5" y="590.0" type="line"/>
      <point x="519.2" y="590.0" type="line"/>
    </contour>
    <contour>
      <point x="254.0" y="-10.0" type="curve" smooth="yes"/>
      <point x="387.4" y="-10.0"/>
      <point x="483.35" y="70.35"/>
      <point x="504.35" y="201.5" type="curve" smooth="yes"/>
      <point x="527.9" y="349.35" type="line" smooth="yes"/>
      <point x="548.9" y="479.65"/>
      <point x="478.4" y="560.0"/>
      <point x="345.0" y="560.0" type="curve" smooth="yes"/>
      <point x="211.6" y="560.0"/>
      <point x="114.8" y="479.65"/>
      <point x="94.65" y="348.5" type="curve" smooth="yes"/>
      <point x="71.95" y="201.5" type="line" smooth="yes"/>
      <point x="51.8" y="70.35"/>
      <point x="120.6" y="-10.0"/>
    </contour>
    <contour>
      <point x="268.2" y="77.5" type="curve" smooth="yes"/>
      <point x="190.75" y="77.5"/>
      <point x="152.8" y="123.4"/>
      <point x="165.2" y="201.5" type="curve" smooth="yes"/>
      <point x="187.9" y="348.5" type="line" smooth="yes"/>
      <point x="200.3" y="426.6"/>
      <point x="253.35" y="472.5"/>
      <point x="330.8" y="472.5" type="curve" smooth="yes"/>
      <point x="408.25" y="472.5"/>
      <point x="446.2" y="426.6"/>
      <point x="433.8" y="348.5" type="curve" smooth="yes"/>
      <point x="411.1" y="201.5" type="line" smooth="yes"/>
      <point x="398.7" y="123.4"/>
      <point x="345.65" y="77.5"/>
    </contour>
  </outline>
</glyph>
<glyph name="thorn" format="2">
  <advance width="600.0"/>
  <unicode hex="00FE"/>
  <anchor x="251.75" y="0.0" name="bottom"/>
  <anchor x="367.75" y="730.0" name="top"/>
  <outline>
    <contour>
      <point x="10.85" y="-180.0" type="line"/>
      <point x="109.1" y="-180.0" type="line"/>
      <point x="146.95" y="57.65" type="line"/>
      <point x="48.7" y="57.65" type="line"/>
    </contour>
    <component base="b" xOffset="-4.25"/>
  </outline>
</glyph>
<glyph name="Aogonek" format="2">
  <advance width="600.0"/>
  <unicode hex="0104"/>
  <anchor x="256.0" y="0.0" name="bottom"/>
  <anchor x="451.25" y="0.0" name="ogonek"/>
  <anchor x="372.0" y="730.0" name="top"/>
  <outline>
    <contour>
      <point x="423.95" y="-206.3" type="curve" smooth="yes"/>
      <point x="506.45" y="-206.3" type="line"/>
      <point x="516.65" y="-139.55" type="line"/>
      <point x="455.3" y="-139.55" type="line" smooth="yes"/>
      <point x="422.05" y="-139.55"/>
      <point x="405.5" y="-119.15"/>
      <point x="409.35" y="-91.5" type="curve" smooth="yes"/>
      <point x="414.05" y="-65.15"/>
      <point x="436.3" y="-36.9"/>
      <point x="484.15" y="-1.85" type="curve"/>
      <point x="500.75" y="10.15" type="line"/>
      <point x="424.1" y="10.15" type="line"/>
      <point x="353.65" y="-31.75"/>
      <point x="322.2" y="-71.4"/>
      <point x="316.05" y="-110.75" type="curve" smooth="yes"/>
      <point x="306.75" y="-166.4"/>
      <point x="348.9" y="-206.3"/>
    </contour>
    <component base="A"/>
  </outline>
</glyph>
<glyph name="aogonek" format="2">
  <advance width="600.0"/>
  <unicode hex="0105"/>
  <anchor x="261.0" y="0.0" name="bottom"/>
  <anchor x="415.5" y="0.0" name="ogonek"/>
  <anchor x="348.0" y="550.0" name="top"/>
  <outline>
    <contour>
      <point x="404.55" y="-206.3" type="curve" smooth="yes"/>
      <point x="487.05" y="-206.3" type="line"/>
      <point x="497.25" y="-139.55" type="line"/>
      <point x="435.9" y="-139.55" type="line" smooth="yes"/>
      <point x="402.65" y="-139.55"/>
      <point x="386.1" y="-119.15"/>
      <point x="389.95" y="-91.5" type="curve" smooth="yes"/>
      <point x="394.65" y="-65.15"/>
      <point x="416.9" y="-37.75"/>
      <point x="468.2" y="0.0" type="curve"/>
      <point x="404.7" y="10.15" type="line"/>
      <point x="334.25" y="-31.75"/>
      <point x="302.8" y="-71.4"/>
      <point x="296.65" y="-110.75" type="curve" smooth="yes"/>
      <point x="287.35" y="-166.4"/>
      <point x="329.5" y="-206.3"/>
    </contour>
    <component base="a"/>
  </outline>
</glyph>
<glyph name="dcaron" format="2">
  <advance width="600.0"/>
  <unicode hex="010F"/>
  <outline>
    <contour>
      <point x="552.25" y="550.0" type="line"/>
      <point x="635.25" y="550.0" type="line"/>
      <point x="674.25" y="730.0" type="line"/>
      <point x="581.25" y="730.0" type="line"/>
    </contour>
    <contour>
      <point x="178.25" y="-10.0" type="curve" smooth="yes"/>
      <point x="260.35" y="-10.0"/>
      <point x="321.05" y="43.75"/>
      <point x="334.2" y="128.1" type="curve"/>
      <point x="310.35" y="105.0" type="line"/>
      <point x="330.9" y="105.0" type="line"/>
      <point x="313.9" y="0.0" type="line"/>
      <point x="410.65" y="0.0" type="line"/>
      <point x="526.65" y="730.0" type="line"/>
      <point x="429.15" y="730.0" type="line"/>
      <point x="403.45" y="571.5" type="line"/>
      <point x="385.6" y="445.0" type="line"/>
      <point x="363.35" y="445.0" type="line"/>
      <point x="380.6" y="421.9" type="line"/>
      <point x="393.9" y="506.25"/>
      <point x="351.35" y="560.0"/>
      <point x="269.25" y="560.0" type="curve" smooth="yes"/>
      <point x="168.4" y="560.0"/>
      <point x="91.55" y="482.4"/>
      <point x="72.4" y="358.65" type="curve" smooth="yes"/>
      <point x="45.85" y="190.65" type="line" smooth="yes"/>
      <point x="26.55" y="67.6"/>
      <point x="77.4" y="-10.0"/>
    </contour>
    <contour>
      <point x="225.75" y="74.3" type="curve" smooth="yes"/>
      <point x="162.45" y="74.3"/>
      <point x="131.8" y="119.5"/>
      <point x="144.2" y="196.5" type="curve" smooth="yes"/>
      <point x="168.9" y="353.65" type="line" smooth="yes"/>
      <point x="181.3" y="430.5"/>
      <point x="225.65" y="475.7"/>
      <point x="288.95" y="475.7" type="curve" smooth="yes"/>
      <point x="351.35" y="475.7"/>
      <point x="381.4" y="430.5"/>
      <point x="369.0" y="353.65" type="curve" smooth="yes"/>
      <point x="344.3" y="196.5" type="line" smooth="yes"/>
      <point x="331.9" y="119.5"/>
      <point x="288.15" y="74.3"/>
    </contour>
  </outline>
</glyph>
<glyph name="Dcroat" format="2">
  <advance width="600.0"/>
  <unicode hex="0110"/>
  <anchor x="256.0" y="0.0" name="bottom"/>
  <anchor x="314.0" y="365.0" name="center"/>
  <anchor x="372.0" y="730.0" name="top"/>
  <outline>
    <contour>
      <point x="10.0" y="333.5" type="line"/>
      <point x="290.0" y="333.5" type="line"/>
      <point x="302.45" y="411.5" type="line"/>
      <point x="22.45" y="411.5" type="line"/>
    </contour>
    <component base="D"/>
  </outline>
</glyph>
<glyph name="dcroat" format="2">
  <advance width="600.0"/>
  <unicode hex="0111"/>
  <outline>
    <contour>
      <point x="72.65" y="195.65" type="line" smooth="yes"/>
      <point x="52.65" y="68.75"/>
      <point x="108.1" y="-10.0"/>
      <point x="218.25" y="-10.0" type="curve" smooth="yes"/>
      <point x="301.5" y="-10.0"/>
      <point x="362.2" y="32.85"/>
      <point x="382.8" y="105.0" type="curve"/>
      <point x="384.95" y="105.0" type="line"/>
      <point x="367.95" y="0.0" type="line"/>
      <point x="466.2" y="0.0" type="line"/>
      <point x="555.9" y="567.75" type="line"/>
      <point x="645.7" y="567.75" type="line"/>
      <point x="658.0" y="645.0" type="line"/>
      <point x="568.2" y="645.0" type="line"/>
      <point x="582.2" y="730.0" type="line"/>
      <point x="483.2" y="730.0" type="line"/>
      <point x="469.2" y="645.0" type="line"/>
      <point x="306.5" y="645.0" type="line"/>
      <point x="294.2" y="567.75" type="line"/>
      <point x="456.9" y="567.75" type="line"/>
      <point x="448.35" y="511.5" type="line"/>
      <point x="430.65" y="385.0" type="line"/>
      <point x="427.65" y="385.0" type="line"/>
      <point x="429.35" y="456.3"/>
      <point x="380.8" y="500.0"/>
      <point x="299.25" y="500.0" type="curve" smooth="yes"/>
      <point x="188.25" y="500.0"/>
      <point x="108.35" y="421.1"/>
      <point x="88.2" y="293.5" type="curve" smooth="yes"/>
    </contour>
    <contour>
      <point x="172.65" y="201.5" type="curve" smooth="yes"/>
      <point x="186.2" y="288.5" type="line" smooth="yes"/>
      <point x="198.6" y="369.3"/>
      <point x="246.65" y="414.2"/>
      <point x="319.65" y="414.2" type="curve" smooth="yes"/>
      <point x="390.8" y="414.2"/>
      <point x="425.3" y="367.6"/>
      <point x="412.9" y="288.5" type="curve" smooth="yes"/>
      <point x="399.35" y="201.5" type="line" smooth="yes"/>
      <point x="386.95" y="122.25"/>
      <point x="337.2" y="75.8"/>
      <point x="266.05" y="75.8" type="curve" smooth="yes"/>
      <point x="193.05" y="75.8"/>
      <point x="159.4" y="120.55"/>
    </contour>
  </outline>
</glyph>
<glyph name="Eogonek" format="2">
  <advance width="600.0"/>
  <unicode hex="0118"/>
  <anchor x="320.0" y="0.0" name="bottom"/>
  <anchor x="388.5" y="0.0" name="ogonek"/>
  <anchor x="392.0" y="730.0" name="top"/>
  <anchor x="92.0" y="730.0" name="topleft"/>
  <outline>
    <contour>
      <point x="367.25" y="-206.3" type="curve" smooth="yes"/>
      <point x="449.75" y="-206.3" type="line"/>
      <point x="459.95" y="-139.55" type="line"/>
      <point x="398.6" y="-139.55" type="line" smooth="yes"/>
      <point x="365.35" y="-139.55"/>
      <point x="348.8" y="-119.15"/>
      <point x="352.65" y="-91.5" type="curve" smooth="yes"/>
      <point x="357.35" y="-65.15"/>
      <point x="379.6" y="-36.9"/>
      <point x="427.45" y="-1.85" type="curve"/>
      <point x="444.05" y="10.15" type="line"/>
      <point x="367.4" y="10.15" type="line"/>
      <point x="296.95" y="-31.75"/>
      <point x="265.5" y="-71.4"/>
      <point x="259.35" y="-110.75" type="curve" smooth="yes"/>
      <point x="250.05" y="-166.4"/>
      <point x="292.2" y="-206.3"/>
    </contour>
    <component base="E"/>
  </outline>
</glyph>
<glyph name="eogonek" format="2">
  <advance width="600.0"/>
  <unicode hex="0119"/>
  <anchor x="343.0" y="550.0" name="top"/>
  <outline>
    <contour>
      <point x="294.45" y="-206.3" type="curve" smooth="yes"/>
      <point x="376.95" y="-206.3" type="line"/>
      <point x="387.15" y="-139.55" type="line"/>
      <point x="325.8" y="-139.55" type="line" smooth="yes"/>
      <point x="292.55" y="-139.55"/>
      <point x="276.0" y="-119.15"/>
      <point x="279.85" y="-91.5" type="curve" smooth="yes"/>
      <point x="284.55" y="-65.15"/>
      <point x="306.8" y="-36.9"/>
      <point x="354.65" y="-1.85" type="curve" smooth="yes"/>
      <point x="378.8" y="16.25" type="line"/>
      <point x="433.6" y="41.85"/>
      <point x="475.3" y="85.4"/>
      <point x="492.05" y="141.5" type="curve"/>
      <point x="393.5" y="141.5" type="line"/>
      <point x="376.1" y="95.65"/>
      <point x="333.2" y="71.85"/>
      <point x="267.5" y="71.85" type="curve" smooth="yes"/>
      <point x="187.75" y="71.85"/>
      <point x="154.65" y="117.2"/>
      <point x="168.2" y="201.5" type="curve" smooth="yes"/>
      <point x="175.75" y="251.05" type="line"/>
      <point x="511.9" y="251.05" type="line"/>
      <point x="527.05" y="348.5" type="line" smooth="yes"/>
      <point x="548.05" y="476.25"/>
      <point x="477.55" y="560.0"/>
      <point x="345.15" y="560.0" type="curve" smooth="yes"/>
      <point x="212.6" y="560.0"/>
      <point x="115.65" y="476.25"/>
      <point x="94.65" y="348.5" type="curve" smooth="yes"/>
      <point x="71.95" y="201.5" type="line" smooth="yes"/>
      <point x="51.8" y="73.75"/>
      <point x="121.6" y="-10.0"/>
      <point x="254.15" y="-10.0" type="curve" smooth="yes"/>
      <point x="261.95" y="-10.0"/>
      <point x="269.25" y="-7.15"/>
      <point x="272.4" y="-4.15" type="curve"/>
      <point x="220.75" y="-41.1"/>
      <point x="191.0" y="-78.2"/>
      <point x="186.55" y="-110.75" type="curve" smooth="yes"/>
      <point x="177.25" y="-166.4"/>
      <point x="219.4" y="-206.3"/>
    </contour>
    <contour>
      <point x="421.7" y="286.4" type="line"/>
      <point x="462.6" y="321.9" type="line"/>
      <point x="187.05" y="321.6" type="line"/>
      <point x="190.9" y="348.5" type="line" smooth="yes"/>
      <point x="204.45" y="432.65"/>
      <point x="252.65" y="479.3"/>
      <point x="332.25" y="479.3" type="curve" smooth="yes"/>
      <point x="411.7" y="479.3"/>
      <point x="444.35" y="432.95"/>
      <point x="430.8" y="348.8" type="curve" smooth="yes"/>
    </contour>
  </outline>
</glyph>
<glyph name="Iogonek" format="2">
  <advance width="600.0"/>
  <unicode hex="012E"/>
  <anchor x="256.0" y="0.0" name="bottom"/>
  <anchor x="280.0" y="0.0" name="ogonek"/>
  <anchor x="372.0" y="730.0" name="top"/>
  <anchor x="92.0" y="730.0" name="topleft"/>
  <outline>
    <contour>
      <point x="228.75" y="-206.3" type="curve" smooth="yes"/>
      <point x="311.25" y="-206.3" type="line"/>
      <point x="321.45" y="-139.55" type="line"/>
      <point x="260.1" y="-139.55" type="line" smooth="yes"/>
      <point x="226.85" y="-139.55"/>
      <point x="210.3" y="-119.15"/>
      <point x="214.15" y="-91.5" type="curve" smooth="yes"/>
      <point x="218.85" y="-65.15"/>
      <point x="241.1" y="-36.9"/>
      <point x="288.95" y="-1.85" type="curve"/>
      <point x="305.55" y="10.15" type="line"/>
      <point x="228.9" y="10.15" type="line"/>
      <point x="158.45" y="-31.75"/>
      <point x="127.0" y="-71.4"/>
      <point x="120.85" y="-110.75" type="curve" smooth="yes"/>
      <point x="111.55" y="-166.4"/>
      <point x="153.7" y="-206.3"/>
    </contour>
    <component base="I"/>
  </outline>
</glyph>
<glyph name="iogonek" format="2">
  <advance width="600.0"/>
  <unicode hex="012F"/>
  <anchor x="271.75" y="0.0" name="bottom"/>
  <anchor x="290.0" y="0.0" name="ogonek"/>
  <anchor x="395.05" y="779.4" name="top"/>
  <outline>
    <contour>
      <point x="244.5" y="-206.3" type="curve" smooth="yes"/>
      <point x="327.0" y="-206.3" type="line"/>
      <point x="337.2" y="-139.55" type="line"/>
      <point x="275.85" y="-139.55" type="line" smooth="yes"/>
      <point x="242.6" y="-139.55"/>
      <point x="226.05" y="-119.15"/>
      <point x="229.9" y="-91.5" type="curve" smooth="yes"/>
      <point x="234.6" y="-65.15"/>
      <point x="256.85" y="-36.9"/>
      <point x="304.7" y="-1.85" type="curve"/>
      <point x="321.3" y="10.15" type="line"/>
      <point x="244.65" y="10.15" type="line"/>
      <point x="174.2" y="-31.75"/>
      <point x="142.75" y="-71.4"/>
      <point x="136.6" y="-110.75" type="curve" smooth="yes"/>
      <point x="127.3" y="-166.4"/>
      <point x="169.45" y="-206.3"/>
    </contour>
    <component base="idotless"/>
    <component base="dotaccentcomb" xOffset="615.75"/>
  </outline>
</glyph>
<glyph name="idotless" format="2">
  <advance width="600.0"/>
  <unicode hex="0131"/>
  <anchor x="271.75" y="0.0" name="bottom"/>
  <anchor x="290.0" y="0.0" name="ogonek"/>
  <anchor x="358.75" y="550.0" name="top"/>
  <outline>
    <contour>
      <point x="34.5" y="0.0" type="line"/>
      <point x="507.5" y="0.0" type="line"/>
      <point x="521.85" y="90.1" type="line"/>
      <point x="340.6" y="90.1" type="line"/>
      <point x="413.25" y="550.0" type="line"/>
      <point x="146.5" y="550.0" type="line"/>
      <point x="132.3" y="460.05" type="line"/>
      <point x="301.55" y="460.05" type="line"/>
      <point x="243.1" y="90.1" type="line"/>
      <point x="48.85" y="90.1" type="line"/>
    </contour>
  </outline>
</glyph>
<glyph name="Lslash" format="2">
  <advance width="600.0"/>
  <unicode hex="0141"/>
  <anchor x="297.5" y="0.0" name="bottom"/>
  <anchor x="315.5" y="365.0" name="center"/>
  <anchor x="255.85" y="730.0" name="top"/>
  <anchor x="653.5" y="730.0" name="topright"/>
  <outline>
    <contour>
      <point x="12.0" y="225.85" type="line"/>
      <point x="422.15" y="471.0" type="line"/>
      <point x="436.5" y="564.15" type="line"/>
      <point x="26.5" y="319.0" type="line"/>
    </contour>
    <component base="L" xOffset="1.5"/>
  </outline>
</glyph>
<glyph name="lslash" format="2">
  <advance width="600.0"/>
  <unicode hex="0142"/>
  <anchor x="246.0" y="0.0" name="bottom"/>
  <anchor x="314.0" y="365.0" name="center"/>
  <anchor x="316.5" y="730.0" name="top"/>
  <anchor x="652.0" y="730.0" name="topright"/>
  <outline>
    <contour>
      <point x="100.0" y="230.0" type="line"/>
      <point x="471.5" y="471.0" type="line"/>
      <point x="471.5" y="560.0" type="line"/>
      <point x="100.0" y="319.0" type="line"/>
    </contour>
    <component base="l"/>
  </outline>
</glyph>
<glyph name="Eng" format="2">
  <advance width="600.0"/>
  <unicode hex="014A"/>
  <outline>
    <contour>
      <point x="168.5" y="-180.0" type="line"/>
      <point x="231.25" y="-180.0" type="line" smooth="yes"/>
      <point x="357.8" y="-180.0"/>
      <point x="453.8" y="-101.95"/>
      <point x="472.8" y="16.5" type="curve" smooth="yes"/>
      <point x="586.5" y="730.0" type="line"/>
      <point x="492.75" y="730.0" type="line"/>
      <point x="442.75" y="416.35" type="line" smooth="yes"/>
      <point x="430.9" y="343.95"/>
      <point x="422.75" y="244.15"/>
      <point x="418.6" y="190.7" type="curve"/>
      <point x="283.3" y="730.0" type="line"/>
      <point x="157.5" y="730.0" type="line"/>
      <point x="41.5" y="0.0" type="line"/>
      <point x="135.25" y="0.0" type="line"/>
      <point x="198.15" y="396.5" type="line" smooth="yes"/>
      <point x="210.0" y="468.9"/>
      <point x="219.0" y="564.75"/>
      <point x="223.0" y="616.0" type="curve"/>
      <point x="374.1" y="18.9" type="line"/>
      <point x="363.7" y="-47.8"/>
      <point x="315.25" y="-88.55"/>
      <point x="247.25" y="-88.55" type="curve" smooth="yes"/>
      <point x="183.0" y="-88.55" type="line"/>
    </contour>
  </outline>
</glyph>
<glyph name="eng" format="2">
  <advance width="600.0"/>
  <unicode hex="014B"/>
  <outline>
    <contour>
      <point x="167.9" y="-180.0" type="line"/>
      <point x="228.95" y="-180.0" type="line" smooth="yes"/>
      <point x="355.5" y="-180.0"/>
      <point x="452.35" y="-101.95"/>
      <point x="470.5" y="16.5" type="curve" smooth="yes"/>
      <point x="526.75" y="367.75" type="line" smooth="yes"/>
      <point x="545.05" y="485.8"/>
      <point x="488.05" y="560.0"/>
      <point x="378.5" y="560.0" type="curve" smooth="yes"/>
      <point x="286.65" y="560.0"/>
      <point x="224.9" y="508.95"/>
      <point x="210.75" y="421.9" type="curve"/>
      <point x="236.8" y="445.0" type="line"/>
      <point x="214.05" y="445.0" type="line"/>
      <point x="231.05" y="550.0" type="line"/>
      <point x="132.8" y="550.0" type="line"/>
      <point x="45.8" y="0.0" type="line"/>
      <point x="144.8" y="0.0" type="line"/>
      <point x="199.65" y="348.5" type="line" smooth="yes"/>
      <point x="212.9" y="429.3"/>
      <point x="262.5" y="475.9"/>
      <point x="334.2" y="475.9" type="curve" smooth="yes"/>
      <point x="403.5" y="475.9"/>
      <point x="437.3" y="431.85"/>
      <point x="425.75" y="357.0" type="curve" smooth="yes"/>
      <point x="371.8" y="18.9" type="line" smooth="yes"/>
      <point x="361.4" y="-47.8"/>
      <point x="312.95" y="-88.55"/>
      <point x="244.95" y="-88.55" type="curve" smooth="yes"/>
      <point x="182.4" y="-88.55" type="line"/>
    </contour>
  </outline>
</glyph>
<glyph name="OE" format="2">
  <advance width="600.0"/>
  <unicode hex="0152"/>
  <outline>
    <contour>
      <point x="146.15" y="-9.1" type="curve" smooth="yes"/>
      <point x="215.6" y="-9.1"/>
      <point x="258.3" y="41.9"/>
      <point x="271.15" y="80.9" type="curve"/>
      <point x="276.15" y="80.9" type="line"/>
      <point x="263.0" y="0.0" type="line"/>
      <point x="531.75" y="0.0" type="line"/>
      <point x="545.8" y="88.6" type="line"/>
      <point x="371.2" y="88.6" type="line"/>
      <point x="409.55" y="332.25" type="line"/>
      <point x="559.15" y="332.25" type="line"/>
      <point x="573.2" y="420.85" type="line"/>
      <point x="423.6" y="420.85" type="line"/>
      <point x="459.1" y="641.55" type="line"/>
      <point x="633.7" y="641.55" type="line"/>
      <point x="647.75" y="730.0" type="line"/>
      <point x="379.0" y="730.0" type="line"/>
      <point x="366.0" y="650.0" type="line"/>
      <point x="361.0" y="650.0" type="line"/>
      <point x="361.15" y="689.0"/>
      <point x="334.45" y="740.0"/>
      <point x="265.0" y="740.0" type="curve" smooth="yes"/>
      <point x="169.75" y="740.0"/>
      <point x="100.35" y="666.85"/>
      <point x="81.35" y="548.65" type="curve" smooth="yes"/>
      <point x="23.8" y="182.25" type="line" smooth="yes"/>
      <point x="4.65" y="64.05"/>
      <point x="50.9" y="-9.1"/>
    </contour>
    <contour>
      <point x="189.25" y="77.65" type="curve" smooth="yes"/>
      <point x="136.4" y="77.65"/>
      <point x="110.9" y="117.55"/>
      <point x="121.3" y="182.25" type="curve" smooth="yes"/>
      <point x="178.85" y="548.65" type="line" smooth="yes"/>
      <point x="189.25" y="613.35"/>
      <point x="228.0" y="653.25"/>
      <point x="280.85" y="653.25" type="curve" smooth="yes"/>
      <point x="333.85" y="653.25"/>
      <point x="359.35" y="613.5"/>
      <point x="348.95" y="548.65" type="curve" smooth="yes"/>
      <point x="291.4" y="182.25" type="line" smooth="yes"/>
      <point x="280.85" y="117.4"/>
      <point x="242.25" y="77.65"/>
    </contour>
  </outline>
</glyph>
<glyph name="oe" format="2">
  <advance width="600.0"/>
  <unicode hex="0153"/>
  <outline>
    <contour>
      <point x="134.0" y="-10.0" type="curve" smooth="yes"/>
      <point x="213.1" y="-10.0"/>
      <point x="256.1" y="35.55"/>
      <point x="264.55" y="69.25" type="curve"/>
      <point x="269.15" y="69.25" type="line"/>
      <point x="267.45" y="35.55"/>
      <point x="294.45" y="-10.0"/>
      <point x="374.0" y="-10.0" type="curve" smooth="yes"/>
      <point x="449.95" y="-10.0"/>
      <point x="514.55" y="43.2"/>
      <point x="538.75" y="127.25" type="curve"/>
      <point x="449.25" y="127.25" type="line"/>
      <point x="438.3" y="92.4"/>
      <point x="409.8" y="70.0"/>
      <point x="376.55" y="70.0" type="curve" smooth="yes"/>
      <point x="337.35" y="70.0"/>
      <point x="317.25" y="100.2"/>
      <point x="324.8" y="148.5" type="curve" smooth="yes"/>
      <point x="341.1" y="250.0" type="line"/>
      <point x="561.0" y="250.0" type="line"/>
      <point x="584.3" y="401.5" type="line" smooth="yes"/>
      <point x="600.0" y="498.3"/>
      <point x="553.7" y="560.0"/>
      <point x="465.0" y="560.0" type="curve" smooth="yes"/>
      <point x="385.45" y="560.0"/>
      <point x="342.75" y="514.45"/>
      <point x="334.45" y="480.75" type="curve"/>
      <point x="329.85" y="480.75" type="line"/>
      <point x="331.4" y="514.45"/>
      <point x="304.1" y="560.0"/>
      <point x="225.0" y="560.0" type="curve" smooth="yes"/>
      <point x="136.3" y="560.0"/>
      <point x="70.0" y="498.3"/>
      <point x="54.3" y="401.5" type="curve" smooth="yes"/>
      <point x="14.7" y="148.5" type="line" smooth="yes"/>
      <point x="-1.0" y="51.7"/>
      <point x="45.3" y="-10.0"/>
    </contour>
    <contour>
      <point x="158.5" y="70.0" type="curve" smooth="yes"/>
      <point x="117.6" y="70.0"/>
      <point x="96.65" y="100.2"/>
      <point x="104.2" y="148.5" type="curve" smooth="yes"/>
      <point x="143.8" y="401.5" type="line" smooth="yes"/>
      <point x="151.35" y="449.8"/>
      <point x="181.7" y="480.0"/>
      <point x="222.6" y="480.0" type="curve" smooth="yes"/>
      <point x="261.8" y="480.0"/>
      <point x="281.75" y="449.95"/>
      <point x="274.2" y="401.5" type="curve" smooth="yes"/>
      <point x="234.6" y="148.5" type="line" smooth="yes"/>
      <point x="227.05" y="100.05"/>
      <point x="197.7" y="70.0"/>
    </contour>
    <contour>
      <point x="352.25" y="324.05" type="line"/>
      <point x="364.4" y="401.5" type="line" smooth="yes"/>
      <point x="371.95" y="449.8"/>
      <point x="401.3" y="480.0"/>
      <point x="440.65" y="480.0" type="curve" smooth="yes"/>
      <point x="481.55" y="480.0"/>
      <point x="502.35" y="449.95"/>
      <point x="494.8" y="401.5" type="curve" smooth="yes"/>
      <point x="482.65" y="324.05" type="line"/>
    </contour>
  </outline>
</glyph>
<glyph name="Scedilla" format="2">
  <advance width="600.0"/>
  <unicode hex="015E"/>
  <anchor x="256.0" y="0.0" name="_bottom"/>
  <anchor x="256.0" y="0.0" name="bottom"/>
  <anchor x="372.0" y="730.0" name="top"/>
  <outline>
    <contour>
      <point x="126.9" y="-206.3" type="line"/>
      <point x="215.65" y="-206.3" type="line" smooth="yes"/>
      <point x="289.45" y="-206.3"/>
      <point x="344.8" y="-168.4"/>
      <point x="351.95" y="-121.95" type="curve" smooth="yes"/>
      <point x="360.25" y="-68.6"/>
      <point x="295.15" y="-41.3"/>
      <point x="241.95" y="-35.6" type="curve"/>
      <point x="272.5" y="24.5" type="line"/>
      <point x="213.1" y="24.5" type="line"/>
      <point x="163.25" y="-69.0" type="line"/>
      <point x="231.15" y="-69.0"/>
      <point x="266.9" y="-88.85"/>
      <point x="262.75" y="-113.05" type="curve" smooth="yes"/>
      <point x="259.9" y="-130.75"/>
      <point x="237.3" y="-149.05"/>
      <point x="207.7" y="-149.05" type="curve" smooth="yes"/>
      <point x="136.2" y="-149.05" type="line"/>
    </contour>
    <component base="S"/>
  </outline>
</glyph>
<glyph name="scedilla" format="2">
  <advance width="600.0"/>
  <unicode hex="015F"/>
  <anchor x="256.7" y="0.0" name="bottom"/>
  <anchor x="344.15" y="550.0" name="top"/>
  <outline>
    <contour>
      <point x="212.75" y="-206.3" type="line"/>
      <point x="301.5" y="-206.3" type="line" smooth="yes"/>
      <point x="375.3" y="-206.3"/>
      <point x="424.5" y="-168.4"/>
      <point x="424.5" y="-121.95" type="curve" smooth="yes"/>
      <point x="424.5" y="-68.6"/>
      <point x="354.55" y="-41.3"/>
      <point x="301.2" y="-35.6" type="curve"/>
      <point x="321.9" y="24.5" type="line"/>
      <point x="262.5" y="24.5" type="line"/>
      <point x="227.5" y="-69.0" type="line"/>
      <point x="295.4" y="-69.0"/>
      <point x="334.15" y="-88.85"/>
      <point x="334.15" y="-113.05" type="curve" smooth="yes"/>
      <point x="334.15" y="-130.75"/>
      <point x="313.85" y="-149.05"/>
      <point x="284.25" y="-149.05" type="curve" smooth="yes"/>
      <point x="212.75" y="-149.05" type="line"/>
    </contour>
    <component base="s"/>
  </outline>
</glyph>
<glyph name="Tcedilla" format="2">
  <advance width="600.0"/>
  <unicode hex="0162"/>
  <anchor x="256.0" y="0.0" name="bottom"/>
  <anchor x="314.0" y="365.0" name="center"/>
  <anchor x="372.0" y="730.0" name="top"/>
  <outline>
    <contour>
      <point x="172.3" y="-206.3" type="line"/>
      <point x="261.05" y="-206.3" type="line" smooth="yes"/>
      <point x="334.85" y="-206.3"/>
      <point x="390.2" y="-168.4"/>
      <point x="397.35" y="-121.95" type="curve" smooth="yes"/>
      <point x="405.65" y="-68.6"/>
      <point x="340.55" y="-41.3"/>
      <point x="287.35" y="-35.6" type="curve"/>
      <point x="305.5" y="0.0" type="line"/>
      <point x="258.5" y="24.5" type="line"/>
      <point x="208.65" y="-69.0" type="line"/>
      <point x="276.55" y="-69.0"/>
      <point x="312.3" y="-88.85"/>
      <point x="308.15" y="-113.05" type="curve" smooth="yes"/>
      <point x="305.3" y="-130.75"/>
      <point x="282.7" y="-149.05"/>
      <point x="253.1" y="-149.05" type="curve" smooth="yes"/>
      <point x="181.6" y="-149.05" type="line"/>
    </contour>
    <component base="T"/>
  </outline>
</glyph>
<glyph name="tcaron" format="2">
  <advance width="600.0"/>
  <unicode hex="0165"/>
  <anchor x="316.0" y="0.0" name="bottom"/>
  <anchor x="300.0" y="275.0" name="center"/>
  <anchor x="375.0" y="700.0" name="top"/>
  <anchor x="624.0" y="550.0" name="topright"/>
  <outline>
    <contour>
      <point x="424.05" y="620.0" type="line"/>
      <point x="514.85" y="620.0" type="line"/>
      <point x="638.35" y="775.85" type="line"/>
      <point x="537.55" y="775.85" type="line"/>
    </contour>
    <component base="t"/>
  </outline>
</glyph>
<glyph name="Uogonek" format="2">
  <advance width="600.0"/>
  <unicode hex="0172"/>
  <anchor x="457.0" y="730.0" name="horn"/>
  <anchor x="372.0" y="730.0" name="top"/>
  <outline>
    <contour>
      <point x="298.65" y="-206.3" type="curve" smooth="yes"/>
      <point x="381.15" y="-206.3" type="line"/>
      <point x="391.35" y="-139.55" type="line"/>
      <point x="330.0" y="-139.55" type="line" smooth="yes"/>
      <point x="296.75" y="-139.55"/>
      <point x="280.2" y="-119.15"/>
      <point x="284.05" y="-91.35" type="curve" smooth="yes"/>
      <point x="288.75" y="-65.0"/>
      <point x="307.3" y="-36.3"/>
      <point x="354.3" y="-1.6999999999999997" type="curve" smooth="yes"/>
      <point x="390.45" y="24.4" type="line"/>
      <point x="450.25" y="59.7"/>
      <point x="489.65" y="121.9"/>
      <point x="502.65" y="201.5" type="curve" smooth="yes"/>
      <point x="586.5" y="730.0" type="line"/>
      <point x="487.5" y="730.0" type="line"/>
      <point x="403.65" y="201.5" type="line" smooth="yes"/>
      <point x="391.25" y="122.25"/>
      <point x="343.5" y="78.35"/>
      <point x="268.2" y="78.35" type="curve" smooth="yes"/>
      <point x="192.9" y="78.35"/>
      <point x="160.25" y="122.25"/>
      <point x="172.65" y="201.5" type="curve" smooth="yes"/>
      <point x="256.5" y="730.0" type="line"/>
      <point x="157.5" y="730.0" type="line"/>
      <point x="73.65" y="201.5" type="line" smooth="yes"/>
      <point x="52.65" y="70.35"/>
      <point x="120.6" y="-10.0"/>
      <point x="254.0" y="-10.0" type="curve" smooth="yes"/>
      <point x="262.35" y="-10.0"/>
      <point x="269.45" y="-6.85"/>
      <point x="273.0" y="-5.3500000000000005" type="curve"/>
      <point x="227.35" y="-39.6"/>
      <point x="195.2" y="-79.9"/>
      <point x="190.75" y="-110.75" type="curve" smooth="yes"/>
      <point x="181.45" y="-166.4"/>
      <point x="223.6" y="-206.3"/>
    </contour>
  </outline>
</glyph>
<glyph name="uogonek" format="2">
  <advance width="600.0"/>
  <unicode hex="0173"/>
  <anchor x="461.5" y="550.0" name="horn"/>
  <anchor x="343.0" y="550.0" name="top"/>
  <outline>
    <contour>
      <point x="293.45" y="-206.3" type="curve" smooth="yes"/>
      <point x="375.95" y="-206.3" type="line"/>
      <point x="386.15" y="-139.55" type="line"/>
      <point x="324.8" y="-139.55" type="line" smooth="yes"/>
      <point x="291.55" y="-139.55"/>
      <point x="275.0" y="-119.15"/>
      <point x="278.85" y="-91.5" type="curve" smooth="yes"/>
      <point x="283.55" y="-65.15"/>
      <point x="305.8" y="-36.75"/>
      <point x="353.65" y="-1.85" type="curve" smooth="yes"/>
      <point x="386.2" y="22.5" type="line"/>
      <point x="448.75" y="57.25"/>
      <point x="489.2" y="119.7"/>
      <point x="502.05" y="201.5" type="curve" smooth="yes"/>
      <point x="556.9" y="550.0" type="line"/>
      <point x="457.9" y="550.0" type="line"/>
      <point x="403.05" y="201.5" type="line" smooth="yes"/>
      <point x="389.8" y="120.55"/>
      <point x="343.2" y="77.5"/>
      <point x="268.2" y="77.5" type="curve" smooth="yes"/>
      <point x="193.2" y="77.5"/>
      <point x="160.0" y="120.55"/>
      <point x="173.25" y="201.5" type="curve" smooth="yes"/>
      <point x="228.1" y="550.0" type="line"/>
      <point x="129.1" y="550.0" type="line"/>
      <point x="74.25" y="201.5" type="line" smooth="yes"/>
      <point x="53.25" y="70.35"/>
      <point x="120.6" y="-10.0"/>
      <point x="254.0" y="-10.0" type="curve" smooth="yes"/>
      <point x="259.7" y="-10.0"/>
      <point x="269.15" y="-6.7"/>
      <point x="272.15" y="-3.8500000000000005" type="curve"/>
      <point x="212.95" y="-46.2"/>
      <point x="190.0" y="-79.05"/>
      <point x="185.55" y="-110.75" type="curve" smooth="yes"/>
      <point x="176.25" y="-166.4"/>
      <point x="218.4" y="-206.3"/>
    </contour>
  </outline>
</glyph>
<glyph name="longs" format="2">
  <advance width="600.0"/>
  <unicode hex="017F"/>
  <outline>
    <contour>
      <point x="-48.95" y="-180.0" type="line"/>
      <point x="61.7" y="-180.0" type="line" smooth="yes"/>
      <point x="174.65" y="-180.0"/>
      <point x="253.4" y="-117.05"/>
      <point x="269.0" y="-14.9" type="curve"/>
      <point x="360.95" y="567.75" type="line"/>
      <point x="368.35" y="616.85"/>
      <point x="397.0" y="640.8"/>
      <point x="448.65" y="640.8" type="curve" smooth="yes"/>
      <point x="620.8" y="640.8" type="line"/>
      <point x="635.0" y="730.0" type="line"/>
      <point x="462.95" y="730.0" type="line" smooth="yes"/>
      <point x="354.05" y="730.0"/>
      <point x="277.25" y="667.95"/>
      <point x="262.1" y="568.5" type="curve"/>
      <point x="170.15" y="-14.15" type="line"/>
      <point x="162.15" y="-66.7"/>
      <point x="131.25" y="-92.3"/>
      <point x="75.7" y="-92.3" type="curve" smooth="yes"/>
      <point x="-35.05" y="-92.3" type="line"/>
    </contour>
  </outline>
</glyph>
